%TF.GenerationSoftware,Flux,Flux PCB Export,1*%
%TF.CreationDate,2026-09-04T00:22:16+00:00*%
%TF.ProjectId,input,696e7075-742e-46b6-9963-61645f706362,rev?*%
%TF.SameCoordinates,Original*%
%TF.FileFunction,Copper,L4,Bot*%
%TF.FilePolarity,Positive*%
%FSLAX46Y46*%
G04 Gerber Fmt 4.6, Leading zero omitted, Abs format (unit mm)*
G04 Filename: claude-handset*
G04 Build it with Flux! Visit our site at: https://www.flux.ai (Flux) date 2026-09-04 00:22:16*
%MOMM*%
%LPD*%
G01*
G04 APERTURE LIST*
G04 Aperture macros list*
%AMRoundRect*
0 Rectangle with rounded corners*
0 $1 Rounding radius*
0 $2 $3 $4 $5 $6 $7 $8 $9 X,Y pos of 4 corners*
0 Add a 4 corners polygon primitive as box body*
4,1,4,$2,$3,$4,$5,$6,$7,$8,$9,$2,$3,0*
0 Add four circle primitives for the rounded corners*
1,1,$1+$1,$2,$3*
1,1,$1+$1,$4,$5*
1,1,$1+$1,$6,$7*
1,1,$1+$1,$8,$9*
0 Add four rect primitives between the rounded corners*
20,1,$1+$1,$2,$3,$4,$5,0*
20,1,$1+$1,$4,$5,$6,$7,0*
20,1,$1+$1,$6,$7,$8,$9,0*
20,1,$1+$1,$8,$9,$2,$3,0*%
G04 Aperture macros list end*
%TA.AperFunction,ComponentPad*%
%ADD10C,0.600000*%
%TD*%
%TA.AperFunction,ComponentPad*%
%ADD11C,1.400000*%
%TD*%
%TA.AperFunction,ComponentPad*%
%ADD12R,1.400000X1.500000*%
%TD*%
%TA.AperFunction,ComponentPad*%
%ADD13O,1.000000X2.100000*%
%TD*%
%TA.AperFunction,ComponentPad*%
%ADD14RoundRect,0.135000X-0.365000X-0.765000X0.365000X-0.765000X0.365000X0.765000X-0.365000X0.765000X0*%
%TD*%
%TA.AperFunction,ViaPad*%
%ADD15C,0.600000*%
%TD*%
%TA.AperFunction,Conductor*%
%ADD16C,0.200000*%
%TD*%
%TA.AperFunction,Conductor*%
%ADD17C,0.254000*%
%TD*%
%TA.AperFunction,Conductor*%
%ADD18C,0.150000*%
%TD*%
G04 APERTURE END LIST*
D10*
%TO.P,,bf75bd65271f4eb6bc530e8204cbcec3e3551b6962804962a30c8c0b0e85004200*%
%TO.N,USB_DP_CONN*%
X43200000Y-59950000D03*
%TD*%
D11*
%TO.P,J3,2*%
%TO.N,SPKR_N*%
X60000007Y-43000000D03*
D12*
%TO.P,J3,1*%
%TO.N,SPKR_P*%
X59999993Y-41000000D03*
%TD*%
D13*
%TO.P,J1,SHELL_GND*%
%TO.N,GND*%
X35680000Y-61920000D03*
%TO.P,J1,SHELL_GND__1*%
X44320000Y-61920000D03*
D14*
%TO.P,J1,SHELL_GND__2*%
X35680000Y-66100000D03*
%TO.P,J1,SHELL_GND__3*%
X44320000Y-66100000D03*
%TD*%
D15*
%TO.N,F13_BTN_N*%
X40731600Y-36785200D03*
X57470500Y-22837400D03*
X42325000Y-33425000D03*
X43475000Y-32200000D03*
%TO.N,I2S_DAC_DATA*%
X38294400Y-38332400D03*
X47175200Y-41494000D03*
%TO.N,I2S_LRCLK*%
X38410900Y-39117100D03*
X50224700Y-39723200D03*
%TO.N,QSPI_SCLK*%
X31583400Y-39021300D03*
X24083600Y-40325600D03*
%TO.N,1V1_CORE*%
X33970500Y-45945500D03*
X33400000Y-35712500D03*
X32200000Y-42286500D03*
X38748200Y-44526800D03*
X34200000Y-40588500D03*
%TO.N,USB_DM*%
X31875500Y-40463600D03*
X40432700Y-41036000D03*
X40621500Y-53361900D03*
%TO.N,F14_BTN_N*%
X41399900Y-32863000D03*
X36461200Y-36053000D03*
%TO.N,QSPI_SD2*%
X27413700Y-41250000D03*
X35588500Y-42254300D03*
%TO.N,AMP_SD_MODE*%
X48334500Y-42750000D03*
X31496000Y-36124800D03*
%TO.N,USB_VBUS_RAW*%
X37470000Y-59690000D03*
X41755400Y-63970500D03*
%TO.N,XOSC_OUT*%
X29948400Y-33842700D03*
X35154500Y-35537300D03*
%TO.N,SWCLK*%
X18909100Y-30127200D03*
X32536100Y-32729300D03*
%TO.N,QSPI_SD3*%
X24402700Y-41981800D03*
X34600000Y-42296900D03*
%TO.N,QSPI_CS_FLASH*%
X28799600Y-43128500D03*
X26510000Y-44895800D03*
X24026500Y-36706500D03*
%TO.N,3V3*%
X29595500Y-26120500D03*
X39754500Y-29779500D03*
X30835500Y-45862800D03*
X33800000Y-42286500D03*
X42410400Y-40971000D03*
X37725000Y-34086500D03*
X33034000Y-45910800D03*
%TO.N,SWDIO*%
X19569300Y-32057400D03*
X32137600Y-35406200D03*
%TO.N,QSPI_SD0*%
X23844800Y-38381000D03*
X35670700Y-40098200D03*
%TO.N,USB_DP_CONN*%
X38400000Y-56800000D03*
%TO.N,GND*%
X22932800Y-30000000D03*
X36735300Y-47867500D03*
%TO.N,3V3_PWRGD*%
X40692700Y-51754200D03*
X31583400Y-38281000D03*
X37286900Y-53753100D03*
X36540000Y-53078100D03*
%TO.N,VBUS_5V*%
X32759000Y-57818900D03*
X47313200Y-52484300D03*
X39623500Y-58500000D03*
%TO.N,USB_DP*%
X33119800Y-40568400D03*
X39003100Y-54678100D03*
%TO.N,SPKR_N*%
X54313900Y-42250000D03*
%TO.N,PDM_CLK*%
X36603500Y-37800000D03*
X22990500Y-49748000D03*
%TO.N,PDM_DATA*%
X36600000Y-38548800D03*
X20162500Y-47874500D03*
%TO.N,3V3*%
X38500000Y-36000000D03*
X38575700Y-36340900D03*
%TO.N,3V3_PWRGD*%
X38332100Y-35208900D03*
%TO.N,3V3*%
X33810000Y-32730400D03*
%TO.N,3V3_PWRGD*%
X41424500Y-50200500D03*
%TO.N,GND*%
X40000000Y-25000000D03*
X55000000Y-40000000D03*
X55000000Y-55000000D03*
X25000000Y-55000000D03*
X44470000Y-50855200D03*
X46297200Y-64285400D03*
X48147200Y-46957200D03*
X18590700Y-48665200D03*
X25999200Y-31278800D03*
X30392700Y-28888600D03*
X22114900Y-45705200D03*
X35337000Y-59900000D03*
X39823000Y-46652500D03*
X24943800Y-34037800D03*
X42343100Y-47137800D03*
X22309000Y-37322800D03*
X45365500Y-31437000D03*
X41781800Y-55636600D03*
X35954500Y-51063500D03*
X38474700Y-49691500D03*
X25628800Y-40050300D03*
X24639700Y-36096500D03*
X48893100Y-40436400D03*
X40467800Y-34224700D03*
X39395400Y-63225100D03*
X27400100Y-39911100D03*
X27267000Y-38208000D03*
X22815300Y-39624400D03*
X20923600Y-43184900D03*
X40667000Y-42919000D03*
X24626500Y-38817500D03*
X37364900Y-52797200D03*
X41375000Y-41002000D03*
X28842600Y-31695600D03*
%TD*%
%TO.N,F13_BTN_N*%
D16*
X42325000Y-33425000D02*
X42325000Y-35191800D01*
X42325000Y-35191800D02*
X40731600Y-36785200D01*
%TO.N,I2S_LRCLK*%
D17*
X38410900Y-39117100D02*
X49618600Y-39117100D01*
X49618600Y-39117100D02*
X50224700Y-39723200D01*
%TO.N,1V1_CORE*%
D18*
X33400000Y-35712500D02*
X33400000Y-39788500D01*
X33400000Y-39788500D02*
X34200000Y-40588500D01*
%TO.N,QSPI_CS_FLASH*%
D17*
X24026500Y-36706500D02*
X26510000Y-39190000D01*
X26510000Y-39190000D02*
X26510000Y-44895800D01*
%TO.N,3V3*%
D18*
X30835500Y-45862800D02*
X33800000Y-42898300D01*
X33800000Y-42898300D02*
X33800000Y-42286500D01*
%TO.N,USB_DP_CONN*%
X41300000Y-59200000D02*
X41300000Y-56400000D01*
X38400000Y-56400000D02*
X38400000Y-56800000D01*
X43200000Y-59200000D02*
X41300000Y-59200000D01*
X43200000Y-59950000D02*
X43200000Y-59200000D01*
X41300000Y-56400000D02*
X38400000Y-56400000D01*
%TO.N,3V3_PWRGD*%
D17*
X29950100Y-46488200D02*
X36540000Y-53078100D01*
X29950100Y-39914200D02*
X29950100Y-46488200D01*
X31583400Y-38281000D02*
X29950100Y-39914200D01*
%TO.N,VBUS_5V*%
D18*
X32759000Y-57818900D02*
X33440100Y-58500000D01*
X33440100Y-58500000D02*
X39623500Y-58500000D01*
%TO.N,3V3*%
X38575700Y-36340900D02*
X34965200Y-32730400D01*
X34965200Y-32730400D02*
X33810000Y-32730400D01*
%TD*%
%TA.AperFunction,Conductor*%
%TO.N,GND*%
G36*
X40005000Y-69498000D02*
G01*
X39995000Y-69498000D01*
X36146000Y-69245000D01*
X36137000Y-69244000D01*
X32371000Y-68496000D01*
X32361000Y-68494000D01*
X28717000Y-67255000D01*
X28708000Y-67252000D01*
X25477984Y-65659000D01*
X35383000Y-65659000D01*
X35383000Y-66541000D01*
X35402000Y-66612000D01*
X35443000Y-66684000D01*
X35496000Y-66737000D01*
X35568000Y-66778000D01*
X35639000Y-66797000D01*
X35721000Y-66797000D01*
X35792000Y-66778000D01*
X35864000Y-66737000D01*
X35917000Y-66684000D01*
X35958000Y-66612000D01*
X35977000Y-66541000D01*
X35977000Y-65659000D01*
X44023000Y-65659000D01*
X44023000Y-66541000D01*
X44042000Y-66612000D01*
X44083000Y-66684000D01*
X44136000Y-66737000D01*
X44208000Y-66778000D01*
X44279000Y-66797000D01*
X44361000Y-66797000D01*
X44432000Y-66778000D01*
X44504000Y-66737000D01*
X44557000Y-66684000D01*
X44598000Y-66612000D01*
X44617000Y-66541000D01*
X44617000Y-65659000D01*
X44598000Y-65588000D01*
X44559000Y-65519000D01*
X44557000Y-65516000D01*
X44504000Y-65463000D01*
X44432000Y-65422000D01*
X44361000Y-65403000D01*
X44279000Y-65403000D01*
X44208000Y-65422000D01*
X44136000Y-65463000D01*
X44083000Y-65516000D01*
X44081000Y-65519000D01*
X44042000Y-65588000D01*
X44023000Y-65659000D01*
X35977000Y-65659000D01*
X35958000Y-65588000D01*
X35919000Y-65519000D01*
X35917000Y-65516000D01*
X35864000Y-65463000D01*
X35792000Y-65422000D01*
X35721000Y-65403000D01*
X35639000Y-65403000D01*
X35568000Y-65422000D01*
X35496000Y-65463000D01*
X35443000Y-65516000D01*
X35441000Y-65519000D01*
X35402000Y-65588000D01*
X35383000Y-65659000D01*
X25477984Y-65659000D01*
X25259000Y-65551000D01*
X25251000Y-65546000D01*
X22816181Y-63920000D01*
X41358000Y-63920000D01*
X41358000Y-64021000D01*
X41386000Y-64124000D01*
X41438000Y-64215000D01*
X41511000Y-64288000D01*
X41602000Y-64340000D01*
X41705000Y-64368000D01*
X41806000Y-64368000D01*
X41910000Y-64340000D01*
X41912000Y-64339000D01*
X41999000Y-64290000D01*
X42000000Y-64289000D01*
X42072000Y-64215000D01*
X42074000Y-64213000D01*
X42126000Y-64122000D01*
X42153000Y-64022000D01*
X42153000Y-63919000D01*
X42126000Y-63819000D01*
X42074000Y-63728000D01*
X42072000Y-63726000D01*
X42000000Y-63652000D01*
X41999000Y-63651000D01*
X41912000Y-63602000D01*
X41910000Y-63601000D01*
X41806000Y-63573000D01*
X41705000Y-63573000D01*
X41602000Y-63601000D01*
X41511000Y-63653000D01*
X41438000Y-63726000D01*
X41386000Y-63817000D01*
X41358000Y-63920000D01*
X22816181Y-63920000D01*
X22048000Y-63407000D01*
X22040000Y-63401000D01*
X19677479Y-61329000D01*
X35383000Y-61329000D01*
X35383000Y-62511000D01*
X35402000Y-62582000D01*
X35443000Y-62654000D01*
X35496000Y-62707000D01*
X35568000Y-62748000D01*
X35639000Y-62767000D01*
X35721000Y-62767000D01*
X35792000Y-62748000D01*
X35864000Y-62707000D01*
X35917000Y-62654000D01*
X35958000Y-62582000D01*
X35977000Y-62511000D01*
X35977000Y-62367000D01*
X36691000Y-62367000D01*
X36691000Y-62473000D01*
X36720000Y-62581000D01*
X36776000Y-62678000D01*
X36852000Y-62754000D01*
X36948000Y-62809000D01*
X36949000Y-62810000D01*
X37057000Y-62839000D01*
X37163000Y-62839000D01*
X37271000Y-62810000D01*
X37272000Y-62809000D01*
X37368000Y-62754000D01*
X37444000Y-62678000D01*
X37501000Y-62578000D01*
X37528000Y-62477000D01*
X37528000Y-62363000D01*
X42472000Y-62363000D01*
X42472000Y-62477000D01*
X42499000Y-62578000D01*
X42556000Y-62678000D01*
X42632000Y-62754000D01*
X42728000Y-62809000D01*
X42729000Y-62810000D01*
X42837000Y-62839000D01*
X42943000Y-62839000D01*
X43051000Y-62810000D01*
X43052000Y-62809000D01*
X43148000Y-62754000D01*
X43224000Y-62678000D01*
X43280000Y-62581000D01*
X43309000Y-62473000D01*
X43309000Y-62367000D01*
X43280000Y-62259000D01*
X43279000Y-62258000D01*
X43224000Y-62162000D01*
X43148000Y-62086000D01*
X43048000Y-62029000D01*
X42947000Y-62002000D01*
X42833000Y-62002000D01*
X42732000Y-62029000D01*
X42632000Y-62086000D01*
X42556000Y-62162000D01*
X42499000Y-62262000D01*
X42472000Y-62363000D01*
X37528000Y-62363000D01*
X37501000Y-62262000D01*
X37444000Y-62162000D01*
X37368000Y-62086000D01*
X37268000Y-62029000D01*
X37167000Y-62002000D01*
X37053000Y-62002000D01*
X36952000Y-62029000D01*
X36852000Y-62086000D01*
X36776000Y-62162000D01*
X36721000Y-62258000D01*
X36720000Y-62259000D01*
X36691000Y-62367000D01*
X35977000Y-62367000D01*
X35977000Y-61329000D01*
X44023000Y-61329000D01*
X44023000Y-62511000D01*
X44042000Y-62582000D01*
X44083000Y-62654000D01*
X44136000Y-62707000D01*
X44208000Y-62748000D01*
X44279000Y-62767000D01*
X44361000Y-62767000D01*
X44432000Y-62748000D01*
X44504000Y-62707000D01*
X44557000Y-62654000D01*
X44598000Y-62582000D01*
X44617000Y-62511000D01*
X44617000Y-61329000D01*
X44598000Y-61258000D01*
X44559000Y-61189000D01*
X44557000Y-61186000D01*
X44504000Y-61133000D01*
X44432000Y-61092000D01*
X44361000Y-61073000D01*
X44279000Y-61073000D01*
X44208000Y-61092000D01*
X44136000Y-61133000D01*
X44083000Y-61186000D01*
X44081000Y-61189000D01*
X44042000Y-61258000D01*
X44023000Y-61329000D01*
X35977000Y-61329000D01*
X35958000Y-61258000D01*
X35919000Y-61189000D01*
X35917000Y-61186000D01*
X35864000Y-61133000D01*
X35792000Y-61092000D01*
X35721000Y-61073000D01*
X35639000Y-61073000D01*
X35568000Y-61092000D01*
X35496000Y-61133000D01*
X35443000Y-61186000D01*
X35441000Y-61189000D01*
X35402000Y-61258000D01*
X35383000Y-61329000D01*
X19677479Y-61329000D01*
X19145000Y-60862000D01*
X19138000Y-60855000D01*
X18074163Y-59642000D01*
X37073000Y-59642000D01*
X37073000Y-59740000D01*
X37101000Y-59844000D01*
X37153000Y-59935000D01*
X37225000Y-60007000D01*
X37316000Y-60059000D01*
X37421000Y-60087000D01*
X37519000Y-60087000D01*
X37625000Y-60059000D01*
X37624000Y-60059000D01*
X37715000Y-60007000D01*
X37787000Y-59935000D01*
X37839000Y-59844000D01*
X37867000Y-59740000D01*
X37867000Y-59642000D01*
X37839000Y-59536000D01*
X37787000Y-59445000D01*
X37715000Y-59373000D01*
X37624000Y-59321000D01*
X37520000Y-59293000D01*
X37420000Y-59293000D01*
X37316000Y-59321000D01*
X37225000Y-59373000D01*
X37153000Y-59445000D01*
X37101000Y-59536000D01*
X37073000Y-59642000D01*
X18074163Y-59642000D01*
X16599000Y-57960000D01*
X16593000Y-57952000D01*
X16472126Y-57771000D01*
X32365000Y-57771000D01*
X32365000Y-57868000D01*
X32393000Y-57972000D01*
X32443000Y-58060000D01*
X32518000Y-58135000D01*
X32606000Y-58185000D01*
X32711000Y-58213000D01*
X32810000Y-58213000D01*
X32851000Y-58205000D01*
X32923000Y-58226000D01*
X33301000Y-58602000D01*
X33309000Y-58613000D01*
X33309000Y-58614000D01*
X33318000Y-58623000D01*
X33339000Y-58638000D01*
X33341000Y-58639000D01*
X33364000Y-58656000D01*
X33370000Y-58659000D01*
X33408000Y-58667000D01*
X33409000Y-58668000D01*
X33428000Y-58672000D01*
X33436000Y-58673000D01*
X33443000Y-58672000D01*
X39220000Y-58672000D01*
X39288000Y-58711000D01*
X39308000Y-58744000D01*
X39382000Y-58816000D01*
X39384000Y-58818000D01*
X39469000Y-58865000D01*
X39574000Y-58894000D01*
X39673000Y-58894000D01*
X39778000Y-58865000D01*
X39863000Y-58818000D01*
X39865000Y-58816000D01*
X39933000Y-58750000D01*
X39941000Y-58739000D01*
X39989000Y-58656000D01*
X40018000Y-58549000D01*
X40018000Y-58452000D01*
X39990000Y-58347000D01*
X39941000Y-58261000D01*
X39934000Y-58252000D01*
X39865000Y-58184000D01*
X39864000Y-58183000D01*
X39773000Y-58132000D01*
X39772000Y-58132000D01*
X39678000Y-58107000D01*
X39569000Y-58107000D01*
X39475000Y-58132000D01*
X39383000Y-58183000D01*
X39382000Y-58184000D01*
X39313000Y-58252000D01*
X39306000Y-58261000D01*
X39288000Y-58290000D01*
X39220000Y-58329000D01*
X33544000Y-58329000D01*
X33489000Y-58306000D01*
X33167000Y-57984000D01*
X33145000Y-57915000D01*
X33152000Y-57873000D01*
X33152000Y-57766000D01*
X33127000Y-57669000D01*
X33075000Y-57578000D01*
X33000000Y-57503000D01*
X32913000Y-57453000D01*
X32914000Y-57453000D01*
X32809000Y-57425000D01*
X32709000Y-57425000D01*
X32605000Y-57453000D01*
X32518000Y-57503000D01*
X32443000Y-57578000D01*
X32393000Y-57666000D01*
X32365000Y-57771000D01*
X16472126Y-57771000D01*
X15791626Y-56752000D01*
X38006000Y-56752000D01*
X38006000Y-56849000D01*
X38034000Y-56953000D01*
X38084000Y-57041000D01*
X38159000Y-57116000D01*
X38247000Y-57166000D01*
X38352000Y-57194000D01*
X38448000Y-57194000D01*
X38554000Y-57166000D01*
X38553000Y-57166000D01*
X38641000Y-57116000D01*
X38716000Y-57041000D01*
X38768000Y-56950000D01*
X38793000Y-56853000D01*
X38793000Y-56748000D01*
X38785000Y-56672000D01*
X38874000Y-56572000D01*
X41041000Y-56572000D01*
X41129000Y-56660000D01*
X41129000Y-59178000D01*
X41127000Y-59196000D01*
X41127000Y-59199000D01*
X41137000Y-59260000D01*
X41138000Y-59262000D01*
X41157000Y-59293000D01*
X41157000Y-59294000D01*
X41170000Y-59315000D01*
X41176000Y-59321000D01*
X41211000Y-59344000D01*
X41216000Y-59348000D01*
X41230000Y-59358000D01*
X41240000Y-59360000D01*
X41252000Y-59364000D01*
X41286000Y-59372000D01*
X41286000Y-59371000D01*
X41293000Y-59372000D01*
X41299000Y-59373000D01*
X41306000Y-59372000D01*
X42959000Y-59372000D01*
X43036000Y-59557000D01*
X42884000Y-59709000D01*
X42832000Y-59800000D01*
X42807000Y-59897000D01*
X42807000Y-60003000D01*
X42832000Y-60100000D01*
X42885000Y-60192000D01*
X42959000Y-60266000D01*
X43047000Y-60316000D01*
X43152000Y-60344000D01*
X43248000Y-60344000D01*
X43354000Y-60316000D01*
X43353000Y-60316000D01*
X43441000Y-60266000D01*
X43515000Y-60192000D01*
X43566000Y-60103000D01*
X43594000Y-59999000D01*
X43594000Y-59902000D01*
X43566000Y-59797000D01*
X43516000Y-59709000D01*
X43442000Y-59635000D01*
X43407000Y-59612000D01*
X43372000Y-59546000D01*
X43372000Y-59219000D01*
X43373000Y-59209000D01*
X43373000Y-59203000D01*
X43372000Y-59197000D01*
X43372000Y-59196000D01*
X43362000Y-59139000D01*
X43361000Y-59136000D01*
X43343000Y-59108000D01*
X43341000Y-59104000D01*
X43329000Y-59083000D01*
X43328000Y-59082000D01*
X43289000Y-59056000D01*
X43284000Y-59052000D01*
X43271000Y-59042000D01*
X43266000Y-59039000D01*
X43229000Y-59032000D01*
X43205000Y-59027000D01*
X43204000Y-59027000D01*
X43198000Y-59028000D01*
X43187000Y-59029000D01*
X41560000Y-59029000D01*
X41472000Y-58941000D01*
X41472000Y-56422000D01*
X41473000Y-56406000D01*
X41472000Y-56401000D01*
X41472000Y-56396000D01*
X41462000Y-56339000D01*
X41461000Y-56336000D01*
X41443000Y-56308000D01*
X41441000Y-56304000D01*
X41429000Y-56283000D01*
X41428000Y-56282000D01*
X41389000Y-56256000D01*
X41384000Y-56252000D01*
X41371000Y-56242000D01*
X41366000Y-56239000D01*
X41329000Y-56232000D01*
X41305000Y-56227000D01*
X41304000Y-56227000D01*
X41298000Y-56228000D01*
X41287000Y-56229000D01*
X38424000Y-56229000D01*
X38409000Y-56228000D01*
X38407000Y-56228000D01*
X38401000Y-56227000D01*
X38392000Y-56229000D01*
X38349000Y-56236000D01*
X38345000Y-56236000D01*
X38339000Y-56237000D01*
X38332000Y-56241000D01*
X38308000Y-56256000D01*
X38304000Y-56259000D01*
X38283000Y-56271000D01*
X38278000Y-56275000D01*
X38241000Y-56330000D01*
X38239000Y-56336000D01*
X38222000Y-56418000D01*
X38184000Y-56470000D01*
X38160000Y-56484000D01*
X38157000Y-56486000D01*
X38084000Y-56559000D01*
X38034000Y-56647000D01*
X38006000Y-56752000D01*
X15791626Y-56752000D01*
X14454000Y-54749000D01*
X14449000Y-54741000D01*
X14393763Y-54629000D01*
X38606000Y-54629000D01*
X38606000Y-54728000D01*
X38634000Y-54832000D01*
X38686000Y-54923000D01*
X38760000Y-54997000D01*
X38846000Y-55047000D01*
X38953000Y-55076000D01*
X39053000Y-55076000D01*
X39160000Y-55047000D01*
X39246000Y-54997000D01*
X39322000Y-54921000D01*
X39372000Y-54835000D01*
X39401000Y-54728000D01*
X39401000Y-54628000D01*
X39372000Y-54521000D01*
X39322000Y-54435000D01*
X39248000Y-54361000D01*
X39157000Y-54309000D01*
X39158000Y-54309000D01*
X39053000Y-54281000D01*
X38953000Y-54281000D01*
X38849000Y-54309000D01*
X38758000Y-54361000D01*
X38686000Y-54433000D01*
X38634000Y-54524000D01*
X38606000Y-54629000D01*
X14393763Y-54629000D01*
X12748000Y-51292000D01*
X12745000Y-51283000D01*
X12633816Y-50956000D01*
X20655000Y-50956000D01*
X20655000Y-51044000D01*
X20679000Y-51134000D01*
X20727000Y-51213000D01*
X20727000Y-51214000D01*
X20786000Y-51273000D01*
X20866000Y-51321000D01*
X20956000Y-51345000D01*
X21044000Y-51345000D01*
X21134000Y-51321000D01*
X21213000Y-51273000D01*
X21214000Y-51273000D01*
X21272000Y-51215000D01*
X21278000Y-51207000D01*
X21320000Y-51135000D01*
X21344000Y-51047000D01*
X21344000Y-50953000D01*
X21320000Y-50865000D01*
X21278000Y-50793000D01*
X21273000Y-50786000D01*
X21214000Y-50727000D01*
X21209000Y-50724000D01*
X21135000Y-50680000D01*
X21047000Y-50656000D01*
X20953000Y-50656000D01*
X20865000Y-50680000D01*
X20791000Y-50724000D01*
X20785000Y-50728000D01*
X20727000Y-50786000D01*
X20727000Y-50787000D01*
X20679000Y-50866000D01*
X20655000Y-50956000D01*
X12633816Y-50956000D01*
X12206763Y-49700000D01*
X22596000Y-49700000D01*
X22596000Y-49797000D01*
X22624000Y-49901000D01*
X22673000Y-49987000D01*
X22680000Y-49996000D01*
X22749000Y-50064000D01*
X22751000Y-50066000D01*
X22836000Y-50113000D01*
X22941000Y-50142000D01*
X23040000Y-50142000D01*
X23145000Y-50113000D01*
X23230000Y-50066000D01*
X23232000Y-50064000D01*
X23301000Y-49996000D01*
X23308000Y-49987000D01*
X23359000Y-49898000D01*
X23384000Y-49801000D01*
X23384000Y-49696000D01*
X23359000Y-49598000D01*
X23308000Y-49509000D01*
X23301000Y-49500000D01*
X23232000Y-49432000D01*
X23231000Y-49431000D01*
X23140000Y-49380000D01*
X23139000Y-49380000D01*
X23045000Y-49355000D01*
X22936000Y-49355000D01*
X22842000Y-49380000D01*
X22750000Y-49431000D01*
X22749000Y-49432000D01*
X22680000Y-49500000D01*
X22673000Y-49509000D01*
X22624000Y-49595000D01*
X22596000Y-49700000D01*
X12206763Y-49700000D01*
X11568902Y-47824000D01*
X19765000Y-47824000D01*
X19765000Y-47925000D01*
X19793000Y-48028000D01*
X19845000Y-48119000D01*
X19918000Y-48192000D01*
X20009000Y-48244000D01*
X20112000Y-48272000D01*
X20213000Y-48272000D01*
X20317000Y-48244000D01*
X20316000Y-48244000D01*
X20407000Y-48192000D01*
X20480000Y-48119000D01*
X20532000Y-48028000D01*
X20560000Y-47925000D01*
X20560000Y-47824000D01*
X20532000Y-47721000D01*
X20480000Y-47630000D01*
X20407000Y-47557000D01*
X20316000Y-47505000D01*
X20317000Y-47505000D01*
X20213000Y-47477000D01*
X20112000Y-47477000D01*
X20009000Y-47505000D01*
X19918000Y-47557000D01*
X19845000Y-47630000D01*
X19793000Y-47721000D01*
X19765000Y-47824000D01*
X11568902Y-47824000D01*
X11506000Y-47639000D01*
X11504000Y-47629000D01*
X10756000Y-43863000D01*
X10755000Y-43854000D01*
X10628730Y-41933000D01*
X24008000Y-41933000D01*
X24008000Y-42034000D01*
X24036000Y-42136000D01*
X24039000Y-42141000D01*
X24085000Y-42219000D01*
X24089000Y-42224000D01*
X24161000Y-42298000D01*
X24163000Y-42299000D01*
X24247000Y-42347000D01*
X24249000Y-42348000D01*
X24355000Y-42376000D01*
X24451000Y-42376000D01*
X24556000Y-42348000D01*
X24561000Y-42346000D01*
X24641000Y-42300000D01*
X24720000Y-42221000D01*
X24770000Y-42136000D01*
X24770000Y-42135000D01*
X24796000Y-42035000D01*
X24796000Y-41930000D01*
X24770000Y-41830000D01*
X24770000Y-41829000D01*
X24720000Y-41741000D01*
X24645000Y-41668000D01*
X24643000Y-41666000D01*
X24555000Y-41615000D01*
X24454000Y-41588000D01*
X24353000Y-41588000D01*
X24249000Y-41616000D01*
X24162000Y-41666000D01*
X24087000Y-41741000D01*
X24037000Y-41828000D01*
X24008000Y-41933000D01*
X10628730Y-41933000D01*
X10519747Y-40275000D01*
X23689000Y-40275000D01*
X23689000Y-40376000D01*
X23716000Y-40478000D01*
X23771000Y-40570000D01*
X23843000Y-40643000D01*
X23845000Y-40644000D01*
X23927000Y-40691000D01*
X23932000Y-40693000D01*
X24033000Y-40720000D01*
X24134000Y-40720000D01*
X24238000Y-40692000D01*
X24237000Y-40692000D01*
X24322000Y-40643000D01*
X24325000Y-40641000D01*
X24400000Y-40566000D01*
X24452000Y-40474000D01*
X24477000Y-40381000D01*
X24477000Y-40271000D01*
X24452000Y-40175000D01*
X24401000Y-40085000D01*
X24328000Y-40013000D01*
X24236000Y-39958000D01*
X24134000Y-39931000D01*
X24033000Y-39931000D01*
X23931000Y-39958000D01*
X23844000Y-40010000D01*
X23839000Y-40013000D01*
X23771000Y-40081000D01*
X23768000Y-40086000D01*
X23716000Y-40173000D01*
X23715000Y-40177000D01*
X23689000Y-40275000D01*
X10519747Y-40275000D01*
X10502000Y-40005000D01*
X10502000Y-39995000D01*
X10611377Y-38331000D01*
X23450000Y-38331000D01*
X23450000Y-38431000D01*
X23479000Y-38535000D01*
X23529000Y-38622000D01*
X23604000Y-38697000D01*
X23695000Y-38749000D01*
X23792000Y-38774000D01*
X23898000Y-38774000D01*
X23998000Y-38748000D01*
X23999000Y-38748000D01*
X24082000Y-38699000D01*
X24087000Y-38695000D01*
X24160000Y-38624000D01*
X24162000Y-38621000D01*
X24212000Y-38534000D01*
X24238000Y-38434000D01*
X24238000Y-38330000D01*
X24212000Y-38229000D01*
X24212000Y-38228000D01*
X24164000Y-38143000D01*
X24161000Y-38139000D01*
X24087000Y-38067000D01*
X24082000Y-38063000D01*
X24003000Y-38017000D01*
X23998000Y-38015000D01*
X23894000Y-37987000D01*
X23796000Y-37987000D01*
X23692000Y-38015000D01*
X23604000Y-38065000D01*
X23530000Y-38139000D01*
X23527000Y-38143000D01*
X23479000Y-38227000D01*
X23450000Y-38331000D01*
X10611377Y-38331000D01*
X10721477Y-36656000D01*
X23632000Y-36656000D01*
X23632000Y-36757000D01*
X23660000Y-36860000D01*
X23711000Y-36948000D01*
X23785000Y-37022000D01*
X23788000Y-37024000D01*
X23878000Y-37075000D01*
X23972000Y-37100000D01*
X24071000Y-37100000D01*
X24126000Y-37123000D01*
X26263000Y-39259000D01*
X26286000Y-39314000D01*
X26286000Y-44531000D01*
X26263000Y-44586000D01*
X26194000Y-44655000D01*
X26144000Y-44743000D01*
X26143000Y-44746000D01*
X26116000Y-44849000D01*
X26116000Y-44945000D01*
X26144000Y-45049000D01*
X26146000Y-45054000D01*
X26192000Y-45133000D01*
X26196000Y-45138000D01*
X26268000Y-45212000D01*
X26270000Y-45213000D01*
X26354000Y-45261000D01*
X26356000Y-45262000D01*
X26462000Y-45290000D01*
X26558000Y-45290000D01*
X26664000Y-45262000D01*
X26666000Y-45261000D01*
X26750000Y-45213000D01*
X26752000Y-45212000D01*
X26824000Y-45138000D01*
X26828000Y-45133000D01*
X26877000Y-45050000D01*
X26877000Y-45049000D01*
X26903000Y-44949000D01*
X26903000Y-44843000D01*
X26878000Y-44746000D01*
X26826000Y-44655000D01*
X26756000Y-44585000D01*
X26733000Y-44530000D01*
X26733000Y-43078000D01*
X28405000Y-43078000D01*
X28405000Y-43179000D01*
X28432000Y-43281000D01*
X28487000Y-43373000D01*
X28558000Y-43445000D01*
X28560000Y-43446000D01*
X28643000Y-43494000D01*
X28648000Y-43496000D01*
X28749000Y-43523000D01*
X28850000Y-43523000D01*
X28954000Y-43495000D01*
X28953000Y-43495000D01*
X29040000Y-43445000D01*
X29116000Y-43369000D01*
X29168000Y-43277000D01*
X29193000Y-43183000D01*
X29193000Y-43075000D01*
X29168000Y-42980000D01*
X29115000Y-42887000D01*
X29040000Y-42812000D01*
X28948000Y-42760000D01*
X28854000Y-42735000D01*
X28745000Y-42735000D01*
X28650000Y-42760000D01*
X28646000Y-42762000D01*
X28558000Y-42812000D01*
X28486000Y-42886000D01*
X28432000Y-42976000D01*
X28405000Y-43078000D01*
X26733000Y-43078000D01*
X26733000Y-41253000D01*
X26752000Y-41251000D01*
X26745667Y-41250000D01*
X27002000Y-41250000D01*
X27046000Y-41408000D01*
X27095000Y-41493000D01*
X27169000Y-41567000D01*
X27260000Y-41619000D01*
X27365000Y-41647000D01*
X27465000Y-41647000D01*
X27567000Y-41620000D01*
X27574000Y-41617000D01*
X27653000Y-41571000D01*
X27658000Y-41567000D01*
X27732000Y-41495000D01*
X27733000Y-41494000D01*
X27782000Y-41408000D01*
X27811000Y-41300000D01*
X27811000Y-41201000D01*
X27783000Y-41095000D01*
X27734000Y-41008000D01*
X27732000Y-41005000D01*
X27658000Y-40933000D01*
X27653000Y-40929000D01*
X27574000Y-40883000D01*
X27567000Y-40880000D01*
X27465000Y-40853000D01*
X27364000Y-40853000D01*
X27260000Y-40881000D01*
X27169000Y-40933000D01*
X27095000Y-41007000D01*
X27045000Y-41094000D01*
X27002000Y-41250000D01*
X26745667Y-41250000D01*
X26733000Y-41248000D01*
X26733000Y-39914000D01*
X29726000Y-39914000D01*
X29726000Y-46495000D01*
X29727000Y-46503000D01*
X29729000Y-46517000D01*
X29729000Y-46526000D01*
X29736000Y-46548000D01*
X29737000Y-46553000D01*
X29741000Y-46570000D01*
X29744000Y-46575000D01*
X29749000Y-46588000D01*
X29749000Y-46589000D01*
X29766000Y-46613000D01*
X29769000Y-46618000D01*
X29776000Y-46629000D01*
X29781000Y-46636000D01*
X36123000Y-52977000D01*
X36146000Y-53032000D01*
X36146000Y-53127000D01*
X36174000Y-53231000D01*
X36225000Y-53320000D01*
X36299000Y-53394000D01*
X36386000Y-53444000D01*
X36490000Y-53473000D01*
X36590000Y-53473000D01*
X36692000Y-53445000D01*
X36780000Y-53391000D01*
X36944000Y-53513000D01*
X36892000Y-53703000D01*
X36892000Y-53803000D01*
X36921000Y-53908000D01*
X36922000Y-53909000D01*
X36971000Y-53994000D01*
X37046000Y-54069000D01*
X37133000Y-54119000D01*
X37237000Y-54148000D01*
X37337000Y-54148000D01*
X37441000Y-54119000D01*
X37528000Y-54069000D01*
X37603000Y-53994000D01*
X37655000Y-53903000D01*
X37680000Y-53806000D01*
X37680000Y-53700000D01*
X37655000Y-53603000D01*
X37602000Y-53511000D01*
X37528000Y-53437000D01*
X37437000Y-53385000D01*
X37340000Y-53360000D01*
X37234000Y-53360000D01*
X37135000Y-53386000D01*
X37043000Y-53439000D01*
X36885000Y-53318000D01*
X36886290Y-53313000D01*
X40224000Y-53313000D01*
X40224000Y-53412000D01*
X40252000Y-53517000D01*
X40254000Y-53521000D01*
X40303000Y-53606000D01*
X40378000Y-53680000D01*
X40469000Y-53731000D01*
X40571000Y-53759000D01*
X40672000Y-53759000D01*
X40774000Y-53731000D01*
X40865000Y-53680000D01*
X40940000Y-53606000D01*
X40989000Y-53521000D01*
X40991000Y-53517000D01*
X41019000Y-53412000D01*
X41019000Y-53313000D01*
X40992000Y-53210000D01*
X40990000Y-53205000D01*
X40942000Y-53120000D01*
X40940000Y-53117000D01*
X40867000Y-53046000D01*
X40862000Y-53042000D01*
X40779000Y-52993000D01*
X40778000Y-52993000D01*
X40673000Y-52964000D01*
X40570000Y-52964000D01*
X40465000Y-52993000D01*
X40381000Y-53042000D01*
X40376000Y-53046000D01*
X40303000Y-53117000D01*
X40301000Y-53120000D01*
X40253000Y-53205000D01*
X40251000Y-53210000D01*
X40224000Y-53313000D01*
X36886290Y-53313000D01*
X36933000Y-53132000D01*
X36933000Y-53026000D01*
X36908000Y-52928000D01*
X36856000Y-52837000D01*
X36781000Y-52762000D01*
X36690000Y-52710000D01*
X36593000Y-52685000D01*
X36496000Y-52685000D01*
X36441000Y-52662000D01*
X36209963Y-52431000D01*
X46920000Y-52431000D01*
X46920000Y-52537000D01*
X46946000Y-52636000D01*
X46996000Y-52724000D01*
X46997000Y-52726000D01*
X47071000Y-52798000D01*
X47076000Y-52802000D01*
X47159000Y-52850000D01*
X47159000Y-52851000D01*
X47263000Y-52879000D01*
X47363000Y-52879000D01*
X47467000Y-52850000D01*
X47554000Y-52800000D01*
X47629000Y-52725000D01*
X47679000Y-52638000D01*
X47708000Y-52535000D01*
X47708000Y-52434000D01*
X47680000Y-52330000D01*
X47679000Y-52330000D01*
X47633000Y-52250000D01*
X47627000Y-52242000D01*
X47555000Y-52168000D01*
X47553000Y-52167000D01*
X47468000Y-52118000D01*
X47465000Y-52117000D01*
X47366000Y-52091000D01*
X47260000Y-52091000D01*
X47160000Y-52117000D01*
X47075000Y-52166000D01*
X46995000Y-52246000D01*
X46946000Y-52330000D01*
X46946000Y-52331000D01*
X46920000Y-52431000D01*
X36209963Y-52431000D01*
X35481846Y-51703000D01*
X40299000Y-51703000D01*
X40299000Y-51804000D01*
X40327000Y-51908000D01*
X40377000Y-51995000D01*
X40452000Y-52070000D01*
X40539000Y-52120000D01*
X40643000Y-52149000D01*
X40743000Y-52149000D01*
X40847000Y-52121000D01*
X40847000Y-52120000D01*
X40930000Y-52072000D01*
X40935000Y-52068000D01*
X41009000Y-51996000D01*
X41010000Y-51994000D01*
X41058000Y-51910000D01*
X41059000Y-51908000D01*
X41087000Y-51803000D01*
X41087000Y-51706000D01*
X41059000Y-51601000D01*
X41057000Y-51596000D01*
X41011000Y-51516000D01*
X40931000Y-51436000D01*
X40847000Y-51387000D01*
X40846000Y-51387000D01*
X40746000Y-51361000D01*
X40640000Y-51361000D01*
X40541000Y-51387000D01*
X40538000Y-51388000D01*
X40453000Y-51437000D01*
X40451000Y-51438000D01*
X40379000Y-51512000D01*
X40377000Y-51514000D01*
X40326000Y-51603000D01*
X40299000Y-51703000D01*
X35481846Y-51703000D01*
X33924597Y-50146000D01*
X41031000Y-50146000D01*
X41031000Y-50257000D01*
X41056000Y-50349000D01*
X41108000Y-50441000D01*
X41184000Y-50517000D01*
X41271000Y-50567000D01*
X41374000Y-50595000D01*
X41475000Y-50595000D01*
X41579000Y-50567000D01*
X41578000Y-50567000D01*
X41665000Y-50517000D01*
X41741000Y-50441000D01*
X41791000Y-50354000D01*
X41819000Y-50251000D01*
X41819000Y-50150000D01*
X41791000Y-50047000D01*
X41741000Y-49960000D01*
X41665000Y-49884000D01*
X41573000Y-49832000D01*
X41479000Y-49807000D01*
X41370000Y-49807000D01*
X41276000Y-49832000D01*
X41184000Y-49884000D01*
X41108000Y-49960000D01*
X41055000Y-50052000D01*
X41055000Y-50054000D01*
X41031000Y-50146000D01*
X33924597Y-50146000D01*
X30196000Y-46418000D01*
X30173000Y-46363000D01*
X30173000Y-45921000D01*
X30433000Y-45886000D01*
X30467000Y-46011000D01*
X30471000Y-46021000D01*
X30518000Y-46102000D01*
X30594000Y-46178000D01*
X30597000Y-46180000D01*
X30682000Y-46229000D01*
X30785000Y-46257000D01*
X30886000Y-46257000D01*
X30990000Y-46229000D01*
X30989000Y-46229000D01*
X31074000Y-46180000D01*
X31077000Y-46178000D01*
X31153000Y-46102000D01*
X31203000Y-46017000D01*
X31203000Y-46016000D01*
X31229000Y-45916000D01*
X31229000Y-45864000D01*
X32640000Y-45864000D01*
X32640000Y-45960000D01*
X32668000Y-46064000D01*
X32670000Y-46069000D01*
X32716000Y-46148000D01*
X32720000Y-46153000D01*
X32792000Y-46227000D01*
X32794000Y-46228000D01*
X32878000Y-46276000D01*
X32880000Y-46277000D01*
X32986000Y-46305000D01*
X33082000Y-46305000D01*
X33188000Y-46277000D01*
X33190000Y-46276000D01*
X33274000Y-46228000D01*
X33276000Y-46227000D01*
X33348000Y-46153000D01*
X33350000Y-46150000D01*
X33406000Y-46055000D01*
X33579000Y-46055000D01*
X33654000Y-46186000D01*
X33730000Y-46262000D01*
X33817000Y-46312000D01*
X33920000Y-46340000D01*
X34021000Y-46340000D01*
X34125000Y-46312000D01*
X34124000Y-46312000D01*
X34211000Y-46262000D01*
X34287000Y-46186000D01*
X34338000Y-46097000D01*
X34339000Y-46095000D01*
X34364000Y-46000000D01*
X34364000Y-45891000D01*
X34339000Y-45797000D01*
X34287000Y-45705000D01*
X34211000Y-45629000D01*
X34119000Y-45577000D01*
X34025000Y-45552000D01*
X33916000Y-45552000D01*
X33822000Y-45577000D01*
X33730000Y-45629000D01*
X33654000Y-45705000D01*
X33598000Y-45801000D01*
X33425000Y-45801000D01*
X33350000Y-45670000D01*
X33275000Y-45595000D01*
X33188000Y-45545000D01*
X33189000Y-45545000D01*
X33084000Y-45517000D01*
X32984000Y-45517000D01*
X32880000Y-45545000D01*
X32793000Y-45595000D01*
X32718000Y-45670000D01*
X32668000Y-45758000D01*
X32640000Y-45864000D01*
X31229000Y-45864000D01*
X31229000Y-45812000D01*
X31220000Y-45780000D01*
X31240000Y-45701000D01*
X32461541Y-44479000D01*
X38354000Y-44479000D01*
X38354000Y-44576000D01*
X38382000Y-44680000D01*
X38384000Y-44686000D01*
X38430000Y-44765000D01*
X38510000Y-44845000D01*
X38590000Y-44891000D01*
X38595000Y-44893000D01*
X38700000Y-44921000D01*
X38796000Y-44921000D01*
X38902000Y-44893000D01*
X38904000Y-44892000D01*
X38988000Y-44844000D01*
X38990000Y-44843000D01*
X39062000Y-44769000D01*
X39064000Y-44767000D01*
X39115000Y-44678000D01*
X39142000Y-44578000D01*
X39142000Y-44477000D01*
X39114000Y-44373000D01*
X39064000Y-44286000D01*
X38989000Y-44211000D01*
X38902000Y-44161000D01*
X38903000Y-44161000D01*
X38798000Y-44133000D01*
X38697000Y-44133000D01*
X38597000Y-44160000D01*
X38508000Y-44211000D01*
X38506000Y-44213000D01*
X38432000Y-44285000D01*
X38431000Y-44287000D01*
X38383000Y-44371000D01*
X38382000Y-44373000D01*
X38354000Y-44479000D01*
X32461541Y-44479000D01*
X33903000Y-43037000D01*
X33913000Y-43029000D01*
X33923000Y-43020000D01*
X33933000Y-43004000D01*
X33935000Y-43002000D01*
X33956000Y-42974000D01*
X33959000Y-42969000D01*
X33965000Y-42940000D01*
X33966000Y-42939000D01*
X33973000Y-42909000D01*
X33972000Y-42904000D01*
X33971000Y-42889000D01*
X33971000Y-42701000D01*
X47937000Y-42701000D01*
X47937000Y-42800000D01*
X47965000Y-42905000D01*
X47967000Y-42909000D01*
X48015000Y-42994000D01*
X48016000Y-42995000D01*
X48091000Y-43068000D01*
X48182000Y-43119000D01*
X48284000Y-43147000D01*
X48385000Y-43147000D01*
X48487000Y-43119000D01*
X48578000Y-43068000D01*
X48653000Y-42995000D01*
X48654000Y-42994000D01*
X48702000Y-42909000D01*
X48704000Y-42905000D01*
X48732000Y-42800000D01*
X48732000Y-42701000D01*
X48704000Y-42595000D01*
X48655000Y-42508000D01*
X48653000Y-42505000D01*
X48578000Y-42432000D01*
X48487000Y-42381000D01*
X48385000Y-42353000D01*
X48284000Y-42353000D01*
X48182000Y-42381000D01*
X48091000Y-42432000D01*
X48016000Y-42505000D01*
X48014000Y-42508000D01*
X47965000Y-42595000D01*
X47937000Y-42701000D01*
X33971000Y-42701000D01*
X33971000Y-42690000D01*
X34010000Y-42622000D01*
X34039000Y-42604000D01*
X34048000Y-42598000D01*
X34131000Y-42512000D01*
X34257000Y-42510000D01*
X34358000Y-42612000D01*
X34361000Y-42614000D01*
X34447000Y-42663000D01*
X34552000Y-42691000D01*
X34648000Y-42691000D01*
X34754000Y-42663000D01*
X34753000Y-42663000D01*
X34839000Y-42614000D01*
X34842000Y-42612000D01*
X34916000Y-42538000D01*
X34967000Y-42448000D01*
X35000000Y-42367000D01*
X35188000Y-42354000D01*
X35269000Y-42498000D01*
X35272000Y-42501000D01*
X35343000Y-42570000D01*
X35348000Y-42574000D01*
X35432000Y-42623000D01*
X35537000Y-42652000D01*
X35640000Y-42652000D01*
X35745000Y-42623000D01*
X35746000Y-42623000D01*
X35829000Y-42574000D01*
X35834000Y-42570000D01*
X35905000Y-42501000D01*
X35908000Y-42498000D01*
X35957000Y-42412000D01*
X35958000Y-42409000D01*
X35986000Y-42305000D01*
X35986000Y-42205000D01*
X35984971Y-42201000D01*
X53920000Y-42201000D01*
X53920000Y-42300000D01*
X53948000Y-42405000D01*
X53999000Y-42492000D01*
X54073000Y-42566000D01*
X54161000Y-42616000D01*
X54266000Y-42644000D01*
X54362000Y-42644000D01*
X54468000Y-42616000D01*
X54467000Y-42616000D01*
X54555000Y-42566000D01*
X54629000Y-42492000D01*
X54679000Y-42405000D01*
X54680000Y-42404000D01*
X54707000Y-42304000D01*
X54708000Y-42301000D01*
X54708000Y-42203000D01*
X54681000Y-42100000D01*
X54680000Y-42097000D01*
X54630000Y-42009000D01*
X54556000Y-41935000D01*
X54464000Y-41882000D01*
X54367000Y-41857000D01*
X54261000Y-41857000D01*
X54164000Y-41882000D01*
X54072000Y-41935000D01*
X53999000Y-42008000D01*
X53996000Y-42012000D01*
X53948000Y-42096000D01*
X53920000Y-42201000D01*
X35984971Y-42201000D01*
X35959000Y-42100000D01*
X35906000Y-42008000D01*
X35834000Y-41938000D01*
X35833000Y-41937000D01*
X35742000Y-41885000D01*
X35639000Y-41857000D01*
X35538000Y-41857000D01*
X35435000Y-41885000D01*
X35344000Y-41937000D01*
X35343000Y-41938000D01*
X35271000Y-42008000D01*
X35217000Y-42102000D01*
X35181000Y-42185000D01*
X34996000Y-42196000D01*
X34917000Y-42058000D01*
X34916000Y-42056000D01*
X34841000Y-41981000D01*
X34754000Y-41931000D01*
X34755000Y-41931000D01*
X34650000Y-41903000D01*
X34550000Y-41903000D01*
X34446000Y-41931000D01*
X34359000Y-41981000D01*
X34268000Y-42072000D01*
X34143000Y-42072000D01*
X34048000Y-41976000D01*
X34042000Y-41971000D01*
X33950000Y-41918000D01*
X33853000Y-41893000D01*
X33747000Y-41893000D01*
X33650000Y-41918000D01*
X33558000Y-41971000D01*
X33552000Y-41976000D01*
X33484000Y-42045000D01*
X33481000Y-42049000D01*
X33435000Y-42132000D01*
X33406000Y-42238000D01*
X33406000Y-42336000D01*
X33435000Y-42442000D01*
X33482000Y-42526000D01*
X33485000Y-42529000D01*
X33556000Y-42602000D01*
X33558000Y-42603000D01*
X33589000Y-42622000D01*
X33628000Y-42690000D01*
X33628000Y-42795000D01*
X33605000Y-42850000D01*
X30999000Y-45457000D01*
X30923000Y-45478000D01*
X30885000Y-45469000D01*
X30785000Y-45469000D01*
X30682000Y-45497000D01*
X30594000Y-45547000D01*
X30592000Y-45549000D01*
X30525000Y-45615000D01*
X30518000Y-45624000D01*
X30469000Y-45710000D01*
X30433000Y-45840000D01*
X30173000Y-45805000D01*
X30173000Y-42238000D01*
X31806000Y-42238000D01*
X31806000Y-42336000D01*
X31835000Y-42442000D01*
X31882000Y-42526000D01*
X31885000Y-42529000D01*
X31952000Y-42597000D01*
X31961000Y-42604000D01*
X32047000Y-42653000D01*
X32152000Y-42681000D01*
X32248000Y-42681000D01*
X32354000Y-42653000D01*
X32353000Y-42653000D01*
X32439000Y-42604000D01*
X32448000Y-42597000D01*
X32515000Y-42529000D01*
X32517000Y-42527000D01*
X32567000Y-42437000D01*
X32568000Y-42435000D01*
X32593000Y-42343000D01*
X32593000Y-42232000D01*
X32569000Y-42141000D01*
X32568000Y-42137000D01*
X32519000Y-42049000D01*
X32516000Y-42045000D01*
X32448000Y-41976000D01*
X32442000Y-41971000D01*
X32350000Y-41918000D01*
X32253000Y-41893000D01*
X32147000Y-41893000D01*
X32050000Y-41918000D01*
X31958000Y-41971000D01*
X31952000Y-41976000D01*
X31884000Y-42045000D01*
X31881000Y-42049000D01*
X31835000Y-42132000D01*
X31806000Y-42238000D01*
X30173000Y-42238000D01*
X30173000Y-41445000D01*
X46778000Y-41445000D01*
X46778000Y-41544000D01*
X46807000Y-41650000D01*
X46856000Y-41738000D01*
X46858000Y-41740000D01*
X46931000Y-41811000D01*
X46936000Y-41815000D01*
X47015000Y-41861000D01*
X47022000Y-41864000D01*
X47124000Y-41891000D01*
X47224000Y-41891000D01*
X47330000Y-41863000D01*
X47329000Y-41863000D01*
X47420000Y-41811000D01*
X47494000Y-41737000D01*
X47544000Y-41651000D01*
X47573000Y-41544000D01*
X47573000Y-41444000D01*
X47544000Y-41337000D01*
X47495000Y-41253000D01*
X47493000Y-41250000D01*
X47420000Y-41177000D01*
X47329000Y-41125000D01*
X47330000Y-41125000D01*
X47225000Y-41097000D01*
X47124000Y-41097000D01*
X47022000Y-41124000D01*
X47015000Y-41127000D01*
X46936000Y-41173000D01*
X46931000Y-41177000D01*
X46857000Y-41249000D01*
X46856000Y-41250000D01*
X46807000Y-41337000D01*
X46805000Y-41342000D01*
X46778000Y-41445000D01*
X30173000Y-41445000D01*
X30173000Y-40986000D01*
X40035000Y-40986000D01*
X40035000Y-41088000D01*
X40064000Y-41193000D01*
X40114000Y-41279000D01*
X40188000Y-41353000D01*
X40279000Y-41405000D01*
X40384000Y-41433000D01*
X40484000Y-41433000D01*
X40586000Y-41406000D01*
X40593000Y-41403000D01*
X40672000Y-41357000D01*
X40677000Y-41353000D01*
X40749000Y-41283000D01*
X40752000Y-41280000D01*
X40801000Y-41193000D01*
X40802000Y-41191000D01*
X40830000Y-41086000D01*
X40830000Y-40987000D01*
X40811867Y-40919000D01*
X42017000Y-40919000D01*
X42017000Y-41024000D01*
X42042000Y-41121000D01*
X42093000Y-41210000D01*
X42100000Y-41219000D01*
X42171000Y-41289000D01*
X42173000Y-41290000D01*
X42256000Y-41336000D01*
X42361000Y-41365000D01*
X42461000Y-41365000D01*
X42565000Y-41337000D01*
X42650000Y-41287000D01*
X42656000Y-41283000D01*
X42724000Y-41215000D01*
X42777000Y-41124000D01*
X42805000Y-41020000D01*
X42805000Y-40923000D01*
X42777000Y-40818000D01*
X42724000Y-40727000D01*
X42657000Y-40660000D01*
X42652000Y-40656000D01*
X42559000Y-40603000D01*
X42465000Y-40578000D01*
X42356000Y-40578000D01*
X42262000Y-40603000D01*
X42170000Y-40654000D01*
X42169000Y-40655000D01*
X42100000Y-40723000D01*
X42093000Y-40732000D01*
X42042000Y-40821000D01*
X42017000Y-40919000D01*
X40811867Y-40919000D01*
X40802000Y-40882000D01*
X40802000Y-40881000D01*
X40752000Y-40792000D01*
X40751000Y-40791000D01*
X40678000Y-40720000D01*
X40672000Y-40715000D01*
X40593000Y-40669000D01*
X40586000Y-40666000D01*
X40484000Y-40639000D01*
X40383000Y-40639000D01*
X40279000Y-40667000D01*
X40188000Y-40719000D01*
X40114000Y-40793000D01*
X40064000Y-40879000D01*
X40035000Y-40986000D01*
X30173000Y-40986000D01*
X30173000Y-40413000D01*
X31478000Y-40413000D01*
X31478000Y-40514000D01*
X31506000Y-40617000D01*
X31558000Y-40708000D01*
X31631000Y-40781000D01*
X31722000Y-40833000D01*
X31825000Y-40861000D01*
X31926000Y-40861000D01*
X32030000Y-40833000D01*
X32029000Y-40833000D01*
X32120000Y-40781000D01*
X32193000Y-40708000D01*
X32245000Y-40617000D01*
X32272184Y-40517000D01*
X32722000Y-40517000D01*
X32722000Y-40620000D01*
X32751000Y-40725000D01*
X32753000Y-40729000D01*
X32801000Y-40810000D01*
X32807000Y-40818000D01*
X32874000Y-40885000D01*
X32965000Y-40938000D01*
X32967000Y-40939000D01*
X33069000Y-40966000D01*
X33171000Y-40966000D01*
X33273000Y-40939000D01*
X33363000Y-40887000D01*
X33436000Y-40815000D01*
X33439000Y-40811000D01*
X33488000Y-40726000D01*
X33545000Y-40521000D01*
X33774000Y-40521000D01*
X33835000Y-40744000D01*
X33883000Y-40829000D01*
X33885000Y-40831000D01*
X33952000Y-40899000D01*
X33961000Y-40906000D01*
X34047000Y-40955000D01*
X34152000Y-40983000D01*
X34248000Y-40983000D01*
X34353000Y-40955000D01*
X34439000Y-40906000D01*
X34448000Y-40899000D01*
X34515000Y-40831000D01*
X34517000Y-40829000D01*
X34567000Y-40739000D01*
X34568000Y-40738000D01*
X34593000Y-40645000D01*
X34593000Y-40534000D01*
X34568000Y-40440000D01*
X34519000Y-40351000D01*
X34518000Y-40349000D01*
X34450000Y-40279000D01*
X34440000Y-40272000D01*
X34350000Y-40220000D01*
X34253000Y-40195000D01*
X34145000Y-40195000D01*
X34104000Y-40202000D01*
X34035000Y-40180000D01*
X33903702Y-40049000D01*
X35276000Y-40049000D01*
X35276000Y-40150000D01*
X35305000Y-40252000D01*
X35355000Y-40339000D01*
X35430000Y-40414000D01*
X35517000Y-40464000D01*
X35621000Y-40493000D01*
X35721000Y-40493000D01*
X35825000Y-40465000D01*
X35825000Y-40464000D01*
X35908000Y-40416000D01*
X35913000Y-40412000D01*
X35984000Y-40343000D01*
X35988000Y-40338000D01*
X36036000Y-40255000D01*
X36038000Y-40250000D01*
X36064000Y-40151000D01*
X36064000Y-40047000D01*
X36040000Y-39951000D01*
X36038000Y-39944000D01*
X35989000Y-39861000D01*
X35986000Y-39857000D01*
X35910000Y-39781000D01*
X35829000Y-39734000D01*
X35824000Y-39732000D01*
X35720000Y-39704000D01*
X35622000Y-39704000D01*
X35517000Y-39732000D01*
X35515000Y-39733000D01*
X35431000Y-39781000D01*
X35427000Y-39784000D01*
X35356000Y-39857000D01*
X35351000Y-39864000D01*
X35304000Y-39944000D01*
X35276000Y-40049000D01*
X33903702Y-40049000D01*
X33594000Y-39740000D01*
X33571000Y-39685000D01*
X33571000Y-38501000D01*
X36203000Y-38501000D01*
X36203000Y-38600000D01*
X36229000Y-38699000D01*
X36233000Y-38709000D01*
X36280000Y-38789000D01*
X36284000Y-38794000D01*
X36355000Y-38867000D01*
X36356000Y-38868000D01*
X36443000Y-38917000D01*
X36445000Y-38918000D01*
X36551000Y-38946000D01*
X36649000Y-38946000D01*
X36755000Y-38918000D01*
X36757000Y-38917000D01*
X36844000Y-38868000D01*
X36845000Y-38867000D01*
X36916000Y-38794000D01*
X36920000Y-38789000D01*
X36967000Y-38709000D01*
X36971000Y-38699000D01*
X36997000Y-38600000D01*
X36997000Y-38501000D01*
X36969000Y-38395000D01*
X36917000Y-38304000D01*
X36895000Y-38282000D01*
X37897000Y-38282000D01*
X37897000Y-38384000D01*
X37925000Y-38487000D01*
X37927000Y-38491000D01*
X37976000Y-38576000D01*
X38050000Y-38649000D01*
X38058000Y-38655000D01*
X38111000Y-38688000D01*
X38134000Y-38819000D01*
X38095000Y-38870000D01*
X38042000Y-38961000D01*
X38013000Y-39067000D01*
X38013000Y-39167000D01*
X38042000Y-39274000D01*
X38092000Y-39360000D01*
X38168000Y-39436000D01*
X38254000Y-39486000D01*
X38361000Y-39515000D01*
X38461000Y-39515000D01*
X38568000Y-39486000D01*
X38654000Y-39436000D01*
X38723000Y-39367000D01*
X38778000Y-39344000D01*
X49493000Y-39344000D01*
X49548000Y-39367000D01*
X49804000Y-39624000D01*
X49827000Y-39679000D01*
X49827000Y-39775000D01*
X49857000Y-39881000D01*
X49906000Y-39966000D01*
X49982000Y-40042000D01*
X50068000Y-40092000D01*
X50175000Y-40121000D01*
X50275000Y-40121000D01*
X50379000Y-40093000D01*
X50453196Y-40050000D01*
X59100000Y-40050000D01*
X59100000Y-41950000D01*
X59856000Y-41950000D01*
X59891000Y-42211000D01*
X59694000Y-42264000D01*
X59514000Y-42369000D01*
X59368000Y-42515000D01*
X59264000Y-42694000D01*
X59263000Y-42697000D01*
X59210000Y-42896000D01*
X59210000Y-43105000D01*
X59264000Y-43306000D01*
X59369000Y-43486000D01*
X59514000Y-43631000D01*
X59695000Y-43737000D01*
X59899000Y-43791000D01*
X60101000Y-43791000D01*
X60305000Y-43737000D01*
X60486000Y-43631000D01*
X60631000Y-43486000D01*
X60737000Y-43305000D01*
X60791000Y-43101000D01*
X60791000Y-42899000D01*
X60737000Y-42695000D01*
X60632000Y-42515000D01*
X60486000Y-42369000D01*
X60487000Y-42369000D01*
X60306000Y-42264000D01*
X60109000Y-42211000D01*
X60144000Y-41950000D01*
X60900000Y-41950000D01*
X60900000Y-40050000D01*
X59100000Y-40050000D01*
X50453196Y-40050000D01*
X50467000Y-40042000D01*
X50469000Y-40040000D01*
X50541000Y-39970000D01*
X50544000Y-39967000D01*
X50593000Y-39881000D01*
X50594000Y-39878000D01*
X50622000Y-39774000D01*
X50622000Y-39672000D01*
X50595000Y-39569000D01*
X50594000Y-39568000D01*
X50545000Y-39482000D01*
X50543000Y-39479000D01*
X50468000Y-39404000D01*
X50380000Y-39354000D01*
X50276000Y-39326000D01*
X50181000Y-39326000D01*
X50126000Y-39303000D01*
X49777000Y-38952000D01*
X49774000Y-38950000D01*
X49770000Y-38947000D01*
X49761000Y-38940000D01*
X49752000Y-38931000D01*
X49750000Y-38930000D01*
X49735000Y-38924000D01*
X49720000Y-38915000D01*
X49712000Y-38909000D01*
X49710000Y-38908000D01*
X49706000Y-38907000D01*
X49699000Y-38905000D01*
X49687000Y-38900000D01*
X49673000Y-38897000D01*
X49668000Y-38896000D01*
X49643000Y-38890000D01*
X38778000Y-38890000D01*
X38723000Y-38867000D01*
X38657000Y-38801000D01*
X38599000Y-38772000D01*
X38568000Y-38634000D01*
X38608000Y-38583000D01*
X38664000Y-38487000D01*
X38692000Y-38384000D01*
X38692000Y-38281000D01*
X38666000Y-38182000D01*
X38613000Y-38090000D01*
X38611000Y-38088000D01*
X38539000Y-38014000D01*
X38538000Y-38013000D01*
X38451000Y-37964000D01*
X38449000Y-37963000D01*
X38345000Y-37935000D01*
X38244000Y-37935000D01*
X38141000Y-37963000D01*
X38050000Y-38015000D01*
X37977000Y-38088000D01*
X37925000Y-38179000D01*
X37924000Y-38182000D01*
X37897000Y-38282000D01*
X36895000Y-38282000D01*
X36850000Y-38237000D01*
X36850000Y-38113000D01*
X36914000Y-38049000D01*
X36921000Y-38039000D01*
X36971000Y-37952000D01*
X36997000Y-37853000D01*
X36997000Y-37747000D01*
X36972000Y-37650000D01*
X36921000Y-37561000D01*
X36914000Y-37552000D01*
X36845000Y-37484000D01*
X36843000Y-37482000D01*
X36758000Y-37435000D01*
X36653000Y-37406000D01*
X36554000Y-37406000D01*
X36449000Y-37435000D01*
X36364000Y-37482000D01*
X36362000Y-37484000D01*
X36293000Y-37552000D01*
X36286000Y-37561000D01*
X36237000Y-37647000D01*
X36209000Y-37751000D01*
X36209000Y-37848000D01*
X36237000Y-37954000D01*
X36238000Y-37956000D01*
X36286000Y-38039000D01*
X36293000Y-38049000D01*
X36353000Y-38107000D01*
X36355000Y-38233000D01*
X36283000Y-38304000D01*
X36231000Y-38395000D01*
X36203000Y-38501000D01*
X33571000Y-38501000D01*
X33571000Y-36116000D01*
X33610000Y-36048000D01*
X33639000Y-36030000D01*
X33648000Y-36023000D01*
X33666729Y-36004000D01*
X36067000Y-36004000D01*
X36067000Y-36101000D01*
X36095000Y-36207000D01*
X36096000Y-36209000D01*
X36144000Y-36294000D01*
X36147000Y-36297000D01*
X36220000Y-36368000D01*
X36224000Y-36371000D01*
X36308000Y-36420000D01*
X36408000Y-36446000D01*
X36514000Y-36446000D01*
X36611000Y-36421000D01*
X36702000Y-36369000D01*
X36777000Y-36294000D01*
X36827000Y-36207000D01*
X36855000Y-36103000D01*
X36855000Y-36003000D01*
X36828000Y-35901000D01*
X36777000Y-35812000D01*
X36702000Y-35737000D01*
X36614000Y-35687000D01*
X36615000Y-35687000D01*
X36510000Y-35659000D01*
X36412000Y-35659000D01*
X36308000Y-35687000D01*
X36303000Y-35689000D01*
X36224000Y-35735000D01*
X36219000Y-35739000D01*
X36144000Y-35812000D01*
X36144000Y-35813000D01*
X36095000Y-35899000D01*
X36067000Y-36004000D01*
X33666729Y-36004000D01*
X33717000Y-35953000D01*
X33767000Y-35863000D01*
X33768000Y-35861000D01*
X33793000Y-35768000D01*
X33793000Y-35659000D01*
X33769000Y-35567000D01*
X33769000Y-35566000D01*
X33725851Y-35488000D01*
X34760000Y-35488000D01*
X34760000Y-35585000D01*
X34788000Y-35691000D01*
X34789000Y-35692000D01*
X34837000Y-35776000D01*
X34844000Y-35785000D01*
X34912000Y-35852000D01*
X34913000Y-35853000D01*
X35001000Y-35903000D01*
X35104000Y-35931000D01*
X35205000Y-35931000D01*
X35309000Y-35903000D01*
X35308000Y-35903000D01*
X35396000Y-35853000D01*
X35397000Y-35852000D01*
X35465000Y-35785000D01*
X35472000Y-35776000D01*
X35522000Y-35689000D01*
X35548000Y-35590000D01*
X35548000Y-35486000D01*
X35522000Y-35384000D01*
X35474000Y-35301000D01*
X35472000Y-35298000D01*
X35395000Y-35221000D01*
X35308000Y-35171000D01*
X35205000Y-35143000D01*
X35104000Y-35143000D01*
X35001000Y-35171000D01*
X34914000Y-35221000D01*
X34837000Y-35298000D01*
X34835000Y-35301000D01*
X34790000Y-35379000D01*
X34788000Y-35384000D01*
X34760000Y-35488000D01*
X33725851Y-35488000D01*
X33717000Y-35472000D01*
X33648000Y-35402000D01*
X33640000Y-35396000D01*
X33553000Y-35346000D01*
X33449000Y-35318000D01*
X33351000Y-35318000D01*
X33247000Y-35346000D01*
X33160000Y-35396000D01*
X33152000Y-35402000D01*
X33083000Y-35472000D01*
X33034000Y-35559000D01*
X33034000Y-35560000D01*
X33006000Y-35663000D01*
X33006000Y-35762000D01*
X33035000Y-35868000D01*
X33083000Y-35953000D01*
X33156000Y-36028000D01*
X33189000Y-36048000D01*
X33228000Y-36116000D01*
X33228000Y-39771000D01*
X33227000Y-39786000D01*
X33227000Y-39790000D01*
X33236000Y-39844000D01*
X33238000Y-39852000D01*
X33240000Y-39857000D01*
X33257000Y-39881000D01*
X33259000Y-39885000D01*
X33270000Y-39903000D01*
X33276000Y-39909000D01*
X33353000Y-39970000D01*
X33282000Y-40171000D01*
X33070000Y-40171000D01*
X32965000Y-40199000D01*
X32963000Y-40200000D01*
X32876000Y-40249000D01*
X32875000Y-40250000D01*
X32804000Y-40323000D01*
X32798000Y-40331000D01*
X32751000Y-40411000D01*
X32751000Y-40412000D01*
X32722000Y-40517000D01*
X32272184Y-40517000D01*
X32273000Y-40514000D01*
X32273000Y-40413000D01*
X32245000Y-40309000D01*
X32244000Y-40307000D01*
X32195000Y-40220000D01*
X32194000Y-40219000D01*
X32121000Y-40148000D01*
X32118000Y-40145000D01*
X32027000Y-40093000D01*
X31927000Y-40066000D01*
X31824000Y-40066000D01*
X31724000Y-40093000D01*
X31633000Y-40145000D01*
X31630000Y-40148000D01*
X31557000Y-40219000D01*
X31556000Y-40220000D01*
X31507000Y-40307000D01*
X31506000Y-40309000D01*
X31478000Y-40413000D01*
X30173000Y-40413000D01*
X30173000Y-40040000D01*
X30196000Y-39985000D01*
X31053000Y-39127000D01*
X31200000Y-39146000D01*
X31266000Y-39260000D01*
X31273000Y-39269000D01*
X31340000Y-39335000D01*
X31344000Y-39338000D01*
X31430000Y-39387000D01*
X31533000Y-39415000D01*
X31634000Y-39415000D01*
X31739000Y-39387000D01*
X31822000Y-39339000D01*
X31825000Y-39336000D01*
X31896000Y-39266000D01*
X31897000Y-39266000D01*
X31952000Y-39171000D01*
X31977000Y-39074000D01*
X31977000Y-38968000D01*
X31954000Y-38876000D01*
X31951000Y-38869000D01*
X31897000Y-38780000D01*
X31832000Y-38714000D01*
X31832000Y-38590000D01*
X31896000Y-38526000D01*
X31897000Y-38526000D01*
X31952000Y-38431000D01*
X31977000Y-38334000D01*
X31977000Y-38228000D01*
X31952000Y-38131000D01*
X31898000Y-38038000D01*
X31830000Y-37970000D01*
X31823000Y-37965000D01*
X31738000Y-37915000D01*
X31634000Y-37887000D01*
X31534000Y-37887000D01*
X31429000Y-37916000D01*
X31343000Y-37964000D01*
X31342000Y-37965000D01*
X31273000Y-38033000D01*
X31266000Y-38042000D01*
X31216000Y-38130000D01*
X31189000Y-38233000D01*
X31189000Y-38327000D01*
X31166000Y-38382000D01*
X29786000Y-39762000D01*
X29781000Y-39769000D01*
X29768000Y-39782000D01*
X29766000Y-39785000D01*
X29759000Y-39800000D01*
X29752000Y-39814000D01*
X29745000Y-39824000D01*
X29742000Y-39833000D01*
X29734000Y-39852000D01*
X29729000Y-39883000D01*
X29728000Y-39887000D01*
X29727000Y-39893000D01*
X29727000Y-39901000D01*
X29726000Y-39914000D01*
X26733000Y-39914000D01*
X26733000Y-39180000D01*
X26731000Y-39165000D01*
X26731000Y-39163000D01*
X26730000Y-39151000D01*
X26726000Y-39138000D01*
X26723000Y-39128000D01*
X26720000Y-39110000D01*
X26716000Y-39103000D01*
X26711000Y-39090000D01*
X26694000Y-39065000D01*
X26691000Y-39060000D01*
X26684000Y-39049000D01*
X26679000Y-39042000D01*
X24443000Y-36807000D01*
X24420000Y-36752000D01*
X24420000Y-36652000D01*
X24396000Y-36560000D01*
X24396000Y-36559000D01*
X24343000Y-36466000D01*
X24268000Y-36391000D01*
X24180000Y-36340000D01*
X24181000Y-36340000D01*
X24077000Y-36312000D01*
X23976000Y-36312000D01*
X23873000Y-36340000D01*
X23785000Y-36391000D01*
X23710000Y-36466000D01*
X23659000Y-36555000D01*
X23632000Y-36656000D01*
X10721477Y-36656000D01*
X10755000Y-36146000D01*
X10756000Y-36137000D01*
X10768314Y-36075000D01*
X31099000Y-36075000D01*
X31099000Y-36177000D01*
X31100000Y-36181000D01*
X31125000Y-36275000D01*
X31126000Y-36276000D01*
X31127000Y-36281000D01*
X31129000Y-36285000D01*
X31175000Y-36364000D01*
X31179000Y-36369000D01*
X31251000Y-36443000D01*
X31254000Y-36445000D01*
X31339000Y-36493000D01*
X31341000Y-36494000D01*
X31447000Y-36522000D01*
X31545000Y-36522000D01*
X31651000Y-36494000D01*
X31653000Y-36493000D01*
X31738000Y-36445000D01*
X31741000Y-36443000D01*
X31813000Y-36369000D01*
X31817000Y-36364000D01*
X31863000Y-36285000D01*
X31865000Y-36281000D01*
X31867000Y-36276000D01*
X31867000Y-36275000D01*
X31892000Y-36181000D01*
X31893000Y-36177000D01*
X31893000Y-36075000D01*
X31844000Y-35890000D01*
X31967000Y-35767000D01*
X32087000Y-35800000D01*
X32188000Y-35800000D01*
X32292000Y-35772000D01*
X32291000Y-35772000D01*
X32379000Y-35722000D01*
X32381000Y-35720000D01*
X32448000Y-35654000D01*
X32455000Y-35645000D01*
X32506000Y-35556000D01*
X32531000Y-35459000D01*
X32531000Y-35354000D01*
X32505000Y-35253000D01*
X32505000Y-35252000D01*
X32456000Y-35169000D01*
X32454000Y-35166000D01*
X32378000Y-35090000D01*
X32291000Y-35040000D01*
X32292000Y-35040000D01*
X32188000Y-35012000D01*
X32087000Y-35012000D01*
X31986000Y-35039000D01*
X31981000Y-35041000D01*
X31898000Y-35089000D01*
X31896000Y-35090000D01*
X31823000Y-35165000D01*
X31770000Y-35254000D01*
X31743000Y-35356000D01*
X31743000Y-35457000D01*
X31791000Y-35637000D01*
X31669000Y-35759000D01*
X31548000Y-35727000D01*
X31446000Y-35727000D01*
X31339000Y-35756000D01*
X31253000Y-35806000D01*
X31179000Y-35880000D01*
X31126000Y-35973000D01*
X31099000Y-36075000D01*
X10768314Y-36075000D01*
X11221365Y-33794000D01*
X29554000Y-33794000D01*
X29554000Y-33891000D01*
X29582000Y-33996000D01*
X29584000Y-34002000D01*
X29630000Y-34081000D01*
X29708000Y-34159000D01*
X29800000Y-34211000D01*
X29894000Y-34236000D01*
X30003000Y-34236000D01*
X30098000Y-34211000D01*
X30102000Y-34209000D01*
X30188000Y-34160000D01*
X30190000Y-34159000D01*
X30262000Y-34085000D01*
X30316000Y-33995000D01*
X30318000Y-33991000D01*
X30342000Y-33897000D01*
X30342000Y-33790000D01*
X30317000Y-33693000D01*
X30262000Y-33599000D01*
X30190000Y-33528000D01*
X30189000Y-33527000D01*
X30101000Y-33477000D01*
X30099000Y-33476000D01*
X29999000Y-33448000D01*
X29894000Y-33448000D01*
X29800000Y-33474000D01*
X29794000Y-33477000D01*
X29707000Y-33527000D01*
X29705000Y-33529000D01*
X29638000Y-33595000D01*
X29631000Y-33604000D01*
X29581000Y-33692000D01*
X29581000Y-33693000D01*
X29554000Y-33794000D01*
X11221365Y-33794000D01*
X11442627Y-32680000D01*
X32142000Y-32680000D01*
X32142000Y-32777000D01*
X32170000Y-32883000D01*
X32171000Y-32884000D01*
X32220000Y-32970000D01*
X32295000Y-33045000D01*
X32382000Y-33095000D01*
X32486000Y-33123000D01*
X32586000Y-33123000D01*
X32691000Y-33095000D01*
X32690000Y-33095000D01*
X32777000Y-33045000D01*
X32852000Y-32970000D01*
X32902000Y-32884000D01*
X32930000Y-32781000D01*
X32930000Y-32681000D01*
X33416000Y-32681000D01*
X33416000Y-32783000D01*
X33444000Y-32885000D01*
X33494000Y-32970000D01*
X33498000Y-32976000D01*
X33566000Y-33044000D01*
X33660000Y-33099000D01*
X33757000Y-33124000D01*
X33863000Y-33124000D01*
X33960000Y-33099000D01*
X34054000Y-33044000D01*
X34122000Y-32976000D01*
X34137000Y-32946000D01*
X34209000Y-32901000D01*
X34861000Y-32901000D01*
X34916000Y-32924000D01*
X38112000Y-36118000D01*
X38126000Y-36138000D01*
X38132000Y-36151000D01*
X38171000Y-36219000D01*
X38181000Y-36256000D01*
X38181000Y-36392000D01*
X38210000Y-36496000D01*
X38211000Y-36497000D01*
X38260000Y-36582000D01*
X38335000Y-36657000D01*
X38426000Y-36709000D01*
X38523000Y-36734000D01*
X38629000Y-36734000D01*
X38632846Y-36733000D01*
X40338000Y-36733000D01*
X40338000Y-36838000D01*
X40363000Y-36935000D01*
X40419000Y-37030000D01*
X40491000Y-37101000D01*
X40493000Y-37103000D01*
X40576000Y-37151000D01*
X40681000Y-37179000D01*
X40782000Y-37179000D01*
X40886000Y-37151000D01*
X40885000Y-37151000D01*
X40973000Y-37101000D01*
X40974000Y-37100000D01*
X41042000Y-37033000D01*
X41049000Y-37024000D01*
X41097000Y-36941000D01*
X41126000Y-36833000D01*
X41126000Y-36701000D01*
X41149000Y-36646000D01*
X42467000Y-35328000D01*
X42475000Y-35321000D01*
X42477000Y-35319000D01*
X42487000Y-35301000D01*
X42503000Y-35277000D01*
X42504000Y-35275000D01*
X42508000Y-35265000D01*
X42509000Y-35263000D01*
X42511000Y-35258000D01*
X42513000Y-35245000D01*
X42515000Y-35237000D01*
X42522000Y-35212000D01*
X42523000Y-35204000D01*
X42522000Y-35194000D01*
X42522000Y-33817000D01*
X42545000Y-33762000D01*
X42641000Y-33666000D01*
X42691000Y-33578000D01*
X42719000Y-33474000D01*
X42719000Y-33376000D01*
X42691000Y-33272000D01*
X42640000Y-33183000D01*
X42567000Y-33110000D01*
X42478000Y-33059000D01*
X42479000Y-33059000D01*
X42374000Y-33031000D01*
X42276000Y-33031000D01*
X42172000Y-33059000D01*
X42083000Y-33110000D01*
X41987000Y-33207000D01*
X41957000Y-33274000D01*
X41932000Y-33373000D01*
X41932000Y-33479000D01*
X41958000Y-33577000D01*
X42009000Y-33666000D01*
X42106000Y-33763000D01*
X42129000Y-33818000D01*
X42129000Y-35078000D01*
X42106000Y-35133000D01*
X40871000Y-36368000D01*
X40816000Y-36391000D01*
X40681000Y-36391000D01*
X40580000Y-36418000D01*
X40575000Y-36420000D01*
X40492000Y-36468000D01*
X40490000Y-36469000D01*
X40418000Y-36543000D01*
X40364000Y-36633000D01*
X40362000Y-36638000D01*
X40338000Y-36733000D01*
X38632846Y-36733000D01*
X38729000Y-36708000D01*
X38730000Y-36708000D01*
X38813000Y-36659000D01*
X38818000Y-36655000D01*
X38891000Y-36584000D01*
X38893000Y-36581000D01*
X38943000Y-36493000D01*
X38969000Y-36395000D01*
X38969000Y-36289000D01*
X38944000Y-36191000D01*
X38903000Y-36120000D01*
X38893000Y-36082000D01*
X38893000Y-35948000D01*
X38868000Y-35850000D01*
X38816000Y-35759000D01*
X38741000Y-35684000D01*
X38646000Y-35628000D01*
X38614000Y-35508000D01*
X38697000Y-35365000D01*
X38698000Y-35364000D01*
X38726000Y-35259000D01*
X38726000Y-35160000D01*
X38698000Y-35055000D01*
X38648000Y-34968000D01*
X38573000Y-34893000D01*
X38486000Y-34843000D01*
X38382000Y-34814000D01*
X38282000Y-34814000D01*
X38178000Y-34843000D01*
X38091000Y-34893000D01*
X38016000Y-34968000D01*
X37966000Y-35056000D01*
X37965000Y-35057000D01*
X37920000Y-35230000D01*
X37752000Y-35275000D01*
X36514000Y-34037000D01*
X37331000Y-34037000D01*
X37331000Y-34136000D01*
X37360000Y-34242000D01*
X37407000Y-34326000D01*
X37409000Y-34328000D01*
X37477000Y-34397000D01*
X37486000Y-34404000D01*
X37575000Y-34455000D01*
X37672000Y-34480000D01*
X37778000Y-34480000D01*
X37875000Y-34455000D01*
X37964000Y-34404000D01*
X37973000Y-34397000D01*
X38041000Y-34328000D01*
X38042000Y-34327000D01*
X38091000Y-34239000D01*
X38093000Y-34236000D01*
X38118000Y-34141000D01*
X38118000Y-34032000D01*
X38094000Y-33941000D01*
X38093000Y-33937000D01*
X38042000Y-33846000D01*
X38041000Y-33845000D01*
X37973000Y-33776000D01*
X37965000Y-33770000D01*
X37878000Y-33720000D01*
X37879000Y-33720000D01*
X37774000Y-33692000D01*
X37676000Y-33692000D01*
X37572000Y-33720000D01*
X37485000Y-33770000D01*
X37477000Y-33776000D01*
X37409000Y-33845000D01*
X37407000Y-33847000D01*
X37360000Y-33932000D01*
X37331000Y-34037000D01*
X36514000Y-34037000D01*
X35290000Y-32813000D01*
X41006000Y-32813000D01*
X41006000Y-32913000D01*
X41034000Y-33017000D01*
X41084000Y-33104000D01*
X41159000Y-33179000D01*
X41250000Y-33231000D01*
X41347000Y-33256000D01*
X41453000Y-33256000D01*
X41550000Y-33231000D01*
X41641000Y-33179000D01*
X41741000Y-33079000D01*
X41766000Y-33018000D01*
X41794000Y-32911000D01*
X41794000Y-32814000D01*
X41766000Y-32710000D01*
X41716000Y-32622000D01*
X41641000Y-32547000D01*
X41553000Y-32497000D01*
X41449000Y-32469000D01*
X41351000Y-32469000D01*
X41247000Y-32497000D01*
X41159000Y-32547000D01*
X41084000Y-32622000D01*
X41034000Y-32709000D01*
X41006000Y-32813000D01*
X35290000Y-32813000D01*
X35105000Y-32628000D01*
X35097000Y-32618000D01*
X35093000Y-32612000D01*
X35090000Y-32609000D01*
X35066000Y-32592000D01*
X35064000Y-32591000D01*
X35041000Y-32574000D01*
X35035000Y-32571000D01*
X34997000Y-32563000D01*
X34996000Y-32562000D01*
X34977000Y-32558000D01*
X34969000Y-32557000D01*
X34962000Y-32558000D01*
X34223000Y-32558000D01*
X34168000Y-32535000D01*
X34142000Y-32509000D01*
X34135000Y-32501000D01*
X34128000Y-32491000D01*
X34060000Y-32421000D01*
X34050000Y-32414000D01*
X33963000Y-32364000D01*
X33859000Y-32336000D01*
X33761000Y-32336000D01*
X33657000Y-32364000D01*
X33570000Y-32414000D01*
X33560000Y-32421000D01*
X33492000Y-32491000D01*
X33491000Y-32493000D01*
X33445000Y-32576000D01*
X33416000Y-32681000D01*
X32930000Y-32681000D01*
X32930000Y-32678000D01*
X32904000Y-32580000D01*
X32904000Y-32578000D01*
X32853000Y-32491000D01*
X32850000Y-32487000D01*
X32778000Y-32413000D01*
X32692000Y-32364000D01*
X32690000Y-32363000D01*
X32585000Y-32335000D01*
X32487000Y-32335000D01*
X32382000Y-32363000D01*
X32380000Y-32364000D01*
X32294000Y-32413000D01*
X32222000Y-32487000D01*
X32217000Y-32493000D01*
X32171000Y-32573000D01*
X32170000Y-32576000D01*
X32142000Y-32680000D01*
X11442627Y-32680000D01*
X11504000Y-32371000D01*
X11506000Y-32361000D01*
X11626364Y-32007000D01*
X19175000Y-32007000D01*
X19175000Y-32108000D01*
X19202000Y-32209000D01*
X19204000Y-32214000D01*
X19252000Y-32297000D01*
X19256000Y-32302000D01*
X19327000Y-32371000D01*
X19417000Y-32425000D01*
X19422000Y-32427000D01*
X19515000Y-32451000D01*
X19622000Y-32451000D01*
X19719000Y-32426000D01*
X19813000Y-32371000D01*
X19884000Y-32299000D01*
X19887000Y-32296000D01*
X19935000Y-32213000D01*
X19952600Y-32147000D01*
X43082000Y-32147000D01*
X43082000Y-32253000D01*
X43107000Y-32350000D01*
X43159000Y-32441000D01*
X43234000Y-32516000D01*
X43325000Y-32568000D01*
X43422000Y-32593000D01*
X43528000Y-32593000D01*
X43625000Y-32568000D01*
X43716000Y-32516000D01*
X43791000Y-32441000D01*
X43841000Y-32354000D01*
X43869000Y-32248000D01*
X43869000Y-32151000D01*
X43841000Y-32047000D01*
X43791000Y-31959000D01*
X43716000Y-31884000D01*
X43628000Y-31834000D01*
X43629000Y-31834000D01*
X43524000Y-31806000D01*
X43426000Y-31806000D01*
X43322000Y-31834000D01*
X43234000Y-31884000D01*
X43159000Y-31959000D01*
X43107000Y-32050000D01*
X43082000Y-32147000D01*
X19952600Y-32147000D01*
X19963000Y-32108000D01*
X19963000Y-32007000D01*
X19935000Y-31904000D01*
X19885000Y-31816000D01*
X19883000Y-31814000D01*
X19817000Y-31747000D01*
X19809000Y-31741000D01*
X19722000Y-31691000D01*
X19618000Y-31663000D01*
X19520000Y-31663000D01*
X19416000Y-31691000D01*
X19411000Y-31693000D01*
X19330000Y-31740000D01*
X19253000Y-31817000D01*
X19203000Y-31904000D01*
X19175000Y-32007000D01*
X11626364Y-32007000D01*
X12282245Y-30078000D01*
X18515000Y-30078000D01*
X18515000Y-30176000D01*
X18543000Y-30281000D01*
X18544000Y-30282000D01*
X18593000Y-30368000D01*
X18668000Y-30443000D01*
X18755000Y-30493000D01*
X18859000Y-30521000D01*
X18959000Y-30521000D01*
X19064000Y-30493000D01*
X19063000Y-30493000D01*
X19150000Y-30443000D01*
X19225000Y-30368000D01*
X19275000Y-30282000D01*
X19303000Y-30177000D01*
X19303000Y-30076000D01*
X19276000Y-29976000D01*
X19225000Y-29887000D01*
X19223000Y-29885000D01*
X19151000Y-29811000D01*
X19149000Y-29810000D01*
X19065000Y-29762000D01*
X19063000Y-29761000D01*
X18958000Y-29733000D01*
X18860000Y-29733000D01*
X18755000Y-29761000D01*
X18753000Y-29762000D01*
X18669000Y-29810000D01*
X18667000Y-29811000D01*
X18595000Y-29885000D01*
X18589000Y-29893000D01*
X18545000Y-29969000D01*
X18543000Y-29974000D01*
X18515000Y-30078000D01*
X12282245Y-30078000D01*
X12400909Y-29729000D01*
X39360000Y-29729000D01*
X39360000Y-29830000D01*
X39388000Y-29933000D01*
X39438000Y-30020000D01*
X39514000Y-30096000D01*
X39606000Y-30148000D01*
X39700000Y-30173000D01*
X39809000Y-30173000D01*
X39903000Y-30148000D01*
X39995000Y-30096000D01*
X40071000Y-30020000D01*
X40121000Y-29933000D01*
X40149000Y-29830000D01*
X40149000Y-29729000D01*
X40121000Y-29626000D01*
X40071000Y-29539000D01*
X39995000Y-29463000D01*
X39908000Y-29413000D01*
X39909000Y-29413000D01*
X39805000Y-29385000D01*
X39704000Y-29385000D01*
X39601000Y-29413000D01*
X39514000Y-29463000D01*
X39438000Y-29539000D01*
X39388000Y-29626000D01*
X39360000Y-29729000D01*
X12400909Y-29729000D01*
X12745000Y-28717000D01*
X12748000Y-28708000D01*
X14049026Y-26070000D01*
X29201000Y-26070000D01*
X29201000Y-26171000D01*
X29229000Y-26274000D01*
X29279000Y-26361000D01*
X29355000Y-26437000D01*
X29447000Y-26489000D01*
X29541000Y-26514000D01*
X29650000Y-26514000D01*
X29744000Y-26489000D01*
X29836000Y-26437000D01*
X29912000Y-26361000D01*
X29964000Y-26269000D01*
X29989000Y-26175000D01*
X29989000Y-26066000D01*
X29965000Y-25974000D01*
X29965000Y-25972000D01*
X29912000Y-25880000D01*
X29836000Y-25804000D01*
X29749000Y-25754000D01*
X29750000Y-25754000D01*
X29646000Y-25726000D01*
X29545000Y-25726000D01*
X29442000Y-25754000D01*
X29355000Y-25804000D01*
X29279000Y-25880000D01*
X29229000Y-25967000D01*
X29201000Y-26070000D01*
X14049026Y-26070000D01*
X14449000Y-25259000D01*
X14454000Y-25251000D01*
X16102159Y-22783000D01*
X57077000Y-22783000D01*
X57077000Y-22892000D01*
X57102000Y-22987000D01*
X57105000Y-22994000D01*
X57153000Y-23077000D01*
X57154000Y-23079000D01*
X57226000Y-23150000D01*
X57319000Y-23205000D01*
X57323000Y-23207000D01*
X57415000Y-23231000D01*
X57526000Y-23231000D01*
X57618000Y-23207000D01*
X57622000Y-23205000D01*
X57715000Y-23150000D01*
X57787000Y-23079000D01*
X57788000Y-23077000D01*
X57836000Y-22994000D01*
X57865000Y-22888000D01*
X57865000Y-22787000D01*
X57837000Y-22684000D01*
X57787000Y-22597000D01*
X57711000Y-22521000D01*
X57624000Y-22471000D01*
X57625000Y-22471000D01*
X57521000Y-22443000D01*
X57420000Y-22443000D01*
X57317000Y-22471000D01*
X57230000Y-22521000D01*
X57154000Y-22597000D01*
X57101000Y-22689000D01*
X57101000Y-22691000D01*
X57077000Y-22783000D01*
X16102159Y-22783000D01*
X16593000Y-22048000D01*
X16599000Y-22040000D01*
X19138000Y-19145000D01*
X19145000Y-19138000D01*
X22040000Y-16599000D01*
X22048000Y-16593000D01*
X25251000Y-14454000D01*
X25259000Y-14449000D01*
X28708000Y-12748000D01*
X28717000Y-12745000D01*
X32361000Y-11506000D01*
X32371000Y-11504000D01*
X36137000Y-10756000D01*
X36146000Y-10755000D01*
X39995000Y-10502000D01*
X40005000Y-10502000D01*
X43854000Y-10755000D01*
X43863000Y-10756000D01*
X47629000Y-11504000D01*
X47639000Y-11506000D01*
X51283000Y-12745000D01*
X51292000Y-12748000D01*
X54741000Y-14449000D01*
X54749000Y-14454000D01*
X57952000Y-16593000D01*
X57960000Y-16599000D01*
X60855000Y-19138000D01*
X60862000Y-19145000D01*
X63401000Y-22040000D01*
X63407000Y-22048000D01*
X65546000Y-25251000D01*
X65551000Y-25259000D01*
X67252000Y-28708000D01*
X67255000Y-28717000D01*
X68494000Y-32361000D01*
X68496000Y-32371000D01*
X69244000Y-36137000D01*
X69245000Y-36146000D01*
X69498000Y-39995000D01*
X69498000Y-40005000D01*
X69245000Y-43854000D01*
X69244000Y-43863000D01*
X68496000Y-47629000D01*
X68494000Y-47639000D01*
X67255000Y-51283000D01*
X67252000Y-51292000D01*
X65551000Y-54741000D01*
X65546000Y-54749000D01*
X63407000Y-57952000D01*
X63401000Y-57960000D01*
X60862000Y-60855000D01*
X60855000Y-60862000D01*
X57960000Y-63401000D01*
X57952000Y-63407000D01*
X54749000Y-65546000D01*
X54741000Y-65551000D01*
X51292000Y-67252000D01*
X51283000Y-67255000D01*
X47639000Y-68494000D01*
X47629000Y-68496000D01*
X43863000Y-69244000D01*
X43854000Y-69245000D01*
X40005000Y-69498000D01*
G37*
%TD.AperFunction*%
%TD*%
M02*
