%TF.GenerationSoftware,Flux,Flux PCB Export,1*%
%TF.CreationDate,2026-09-04T00:22:18+00:00*%
%TF.ProjectId,input,696e7075-742e-46b6-9963-61645f706362,rev?*%
%TF.SameCoordinates,Original*%
%TF.FileFunction,Copper,L1,Top*%
%TF.FilePolarity,Positive*%
%FSLAX46Y46*%
G04 Gerber Fmt 4.6, Leading zero omitted, Abs format (unit mm)*
G04 Filename: claude-handset*
G04 Build it with Flux! Visit our site at: https://www.flux.ai (Flux) date 2026-09-04 00:22:18*
%MOMM*%
%LPD*%
G01*
G04 APERTURE LIST*
G04 Aperture macros list*
%AMRoundRect*
0 Rectangle with rounded corners*
0 $1 Rounding radius*
0 $2 $3 $4 $5 $6 $7 $8 $9 X,Y pos of 4 corners*
0 Add a 4 corners polygon primitive as box body*
4,1,4,$2,$3,$4,$5,$6,$7,$8,$9,$2,$3,0*
0 Add four circle primitives for the rounded corners*
1,1,$1+$1,$2,$3*
1,1,$1+$1,$4,$5*
1,1,$1+$1,$6,$7*
1,1,$1+$1,$8,$9*
0 Add four rect primitives between the rounded corners*
20,1,$1+$1,$2,$3,$4,$5,0*
20,1,$1+$1,$4,$5,$6,$7,0*
20,1,$1+$1,$6,$7,$8,$9,0*
20,1,$1+$1,$8,$9,$2,$3,0*%
%AMRotRect*
0 Rectangle, with rotation*
0 The origin of the aperture is its center*
0 $1 length*
0 $2 width*
0 $3 Rotation angle, in degrees counterclockwise*
0 Add horizontal line*
21,1,$1,$2,0,0,$3*%
%AMFreePoly0*
4,1,9,0.000462,0.000191,0.000462,-0.000191,0.000191,-0.000462,-0.000191,-0.000462,-0.000462,-0.000191,-0.000462,0.000191,-0.000191,0.000462,0.000191,0.000462,0.000462,0.000191,0.000462,0.000191,$1*%
G04 Aperture macros list end*
%TA.AperFunction,EtchedComponent*%
%ADD10C,0.000000*%
%TD*%
%TA.AperFunction,ComponentPad*%
%ADD11C,0.600000*%
%TD*%
%TA.AperFunction,SMDPad,CuDef*%
%ADD12RoundRect,0.071200X0.403800X-0.378800X0.403800X0.378800X-0.403800X0.378800X-0.403800X-0.378800X0*%
%TD*%
%TA.AperFunction,SMDPad,CuDef*%
%ADD13R,1.230000X1.360000*%
%TD*%
%TA.AperFunction,SMDPad,CuDef*%
%ADD14RoundRect,0.071200X-0.378800X-0.403800X0.378800X-0.403800X0.378800X0.403800X-0.378800X0.403800X0*%
%TD*%
%TA.AperFunction,SMDPad,CuDef*%
%ADD15R,3.100000X2.300000*%
%TD*%
%TA.AperFunction,ComponentPad*%
%ADD16C,1.400000*%
%TD*%
%TA.AperFunction,ComponentPad*%
%ADD17R,1.400000X1.500000*%
%TD*%
%TA.AperFunction,SMDPad,CuDef*%
%ADD18R,0.875000X0.950000*%
%TD*%
%TA.AperFunction,SMDPad,CuDef*%
%ADD19RoundRect,0.108700X-0.391300X-0.616300X0.391300X-0.616300X0.391300X0.616300X-0.391300X0.616300X0*%
%TD*%
%TA.AperFunction,SMDPad,CuDef*%
%ADD20R,0.600000X1.150000*%
%TD*%
%TA.AperFunction,SMDPad,CuDef*%
%ADD21R,0.300000X1.150000*%
%TD*%
%TA.AperFunction,ComponentPad*%
%ADD22O,1.000000X2.100000*%
%TD*%
%TA.AperFunction,ComponentPad*%
%ADD23RoundRect,0.135000X-0.365000X-0.765000X0.365000X-0.765000X0.365000X0.765000X-0.365000X0.765000X0*%
%TD*%
%TA.AperFunction,SMDPad,CuDef*%
%ADD24R,0.725000X0.522000*%
%TD*%
%TA.AperFunction,SMDPad,CuDef*%
%ADD25FreePoly0,0.000000*%
%TD*%
%TA.AperFunction,SMDPad,CuDef*%
%ADD26RoundRect,0.071200X-0.328800X-0.403800X0.328800X-0.403800X0.328800X0.403800X-0.328800X0.403800X0*%
%TD*%
%TA.AperFunction,SMDPad,CuDef*%
%ADD27R,1.400000X1.200000*%
%TD*%
%TA.AperFunction,SMDPad,CuDef*%
%ADD28R,1.300000X1.050000*%
%TD*%
%TA.AperFunction,SMDPad,CuDef*%
%ADD29RotRect,0.800000X1.700000X318.000000*%
%TD*%
%TA.AperFunction,SMDPad,CuDef*%
%ADD30R,0.600000X0.280000*%
%TD*%
%TA.AperFunction,SMDPad,CuDef*%
%ADD31R,0.300000X1.700000*%
%TD*%
%TA.AperFunction,SMDPad,CuDef*%
%ADD32RoundRect,0.065600X0.034400X0.371900X-0.034400X0.371900X-0.034400X-0.371900X0.034400X-0.371900X0*%
%TD*%
%TA.AperFunction,SMDPad,CuDef*%
%ADD33RoundRect,0.065600X0.371900X0.034400X-0.371900X0.034400X-0.371900X-0.034400X0.371900X-0.034400X0*%
%TD*%
%TA.AperFunction,SMDPad,CuDef*%
%ADD34R,3.200000X3.200000*%
%TD*%
%TA.AperFunction,SMDPad,CuDef*%
%ADD35R,1.060000X0.650000*%
%TD*%
%TA.AperFunction,SMDPad,CuDef*%
%ADD36RotRect,0.800000X1.700000X291.000000*%
%TD*%
%TA.AperFunction,SMDPad,CuDef*%
%ADD37R,0.650000X2.000000*%
%TD*%
%TA.AperFunction,SMDPad,CuDef*%
%ADD38R,3.200000X2.000000*%
%TD*%
%TA.AperFunction,SMDPad,CuDef*%
%ADD39R,0.300000X0.850000*%
%TD*%
%TA.AperFunction,SMDPad,CuDef*%
%ADD40R,0.850000X0.300000*%
%TD*%
%TA.AperFunction,SMDPad,CuDef*%
%ADD41R,1.250000X1.250000*%
%TD*%
%TA.AperFunction,SMDPad,CuDef*%
%ADD42R,2.790000X0.740000*%
%TD*%
%TA.AperFunction,ViaPad*%
%ADD43C,0.600000*%
%TD*%
%TA.AperFunction,Conductor*%
%ADD44C,0.254000*%
%TD*%
%TA.AperFunction,Conductor*%
%ADD45C,0.200000*%
%TD*%
%TA.AperFunction,Conductor*%
%ADD46C,0.500000*%
%TD*%
%TA.AperFunction,Conductor*%
%ADD47C,0.150000*%
%TD*%
%TA.AperFunction,Conductor*%
%ADD48C,0.120000*%
%TD*%
%TA.AperFunction,Conductor*%
%ADD49C,0.600000*%
%TD*%
%TA.AperFunction,Conductor*%
%ADD50C,0.300000*%
%TD*%
%TA.AperFunction,Conductor*%
%ADD51C,1.063100*%
%TD*%
%TA.AperFunction,Conductor*%
%ADD52C,0.740000*%
%TD*%
%TA.AperFunction,Conductor*%
%ADD53C,0.280000*%
%TD*%
%TA.AperFunction,Conductor*%
%ADD54C,0.250000*%
%TD*%
%TA.AperFunction,Conductor*%
%ADD55C,0.100000*%
%TD*%
G04 APERTURE END LIST*
D10*
%TA.AperFunction,EtchedComponent*%
%TO.C,MK1*%
G36*
X21049300Y-50191500D02*
G01*
X21091300Y-50194500D01*
X21133300Y-50200500D01*
X21174300Y-50208500D01*
X21215300Y-50217500D01*
X21255300Y-50229500D01*
X21295300Y-50243500D01*
X21334300Y-50258500D01*
X21372300Y-50277500D01*
X21409300Y-50298500D01*
X21445300Y-50319500D01*
X21479300Y-50343500D01*
X21513300Y-50369500D01*
X21544300Y-50396500D01*
X21575300Y-50425500D01*
X21604300Y-50456500D01*
X21631300Y-50487500D01*
X21657300Y-50521500D01*
X21681300Y-50555500D01*
X21702300Y-50590500D01*
X21723300Y-50628500D01*
X21741300Y-50666500D01*
X21757300Y-50705500D01*
X21771300Y-50745500D01*
X21783300Y-50784500D01*
X21792300Y-50826500D01*
X21800300Y-50867500D01*
X21806300Y-50909500D01*
X21809300Y-50951500D01*
X21810300Y-50990500D01*
X21810300Y-51000500D01*
X21809300Y-51042500D01*
X21806300Y-51085500D01*
X21800300Y-51127500D01*
X21792300Y-51168500D01*
X21782300Y-51210500D01*
X21770300Y-51250500D01*
X21756300Y-51290500D01*
X21740300Y-51329500D01*
X21722300Y-51368500D01*
X21701300Y-51404500D01*
X21679300Y-51441500D01*
X21655300Y-51476500D01*
X21629300Y-51510500D01*
X21602300Y-51542500D01*
X21573300Y-51573500D01*
X21542300Y-51602500D01*
X21510300Y-51628500D01*
X21476300Y-51655500D01*
X21441300Y-51679500D01*
X21405300Y-51701500D01*
X21368300Y-51722500D01*
X21290300Y-51756500D01*
X21250300Y-51770500D01*
X21210300Y-51782500D01*
X21168300Y-51792500D01*
X21127300Y-51800500D01*
X21085300Y-51806500D01*
X21042300Y-51809500D01*
X21000300Y-51810500D01*
X20940300Y-51810500D01*
X20895300Y-51806500D01*
X20856300Y-51800500D01*
X20818300Y-51793500D01*
X20781300Y-51784500D01*
X20744300Y-51773500D01*
X20707300Y-51760500D01*
X20671300Y-51746500D01*
X20636300Y-51730500D01*
X20602300Y-51712500D01*
X20569300Y-51692500D01*
X20536300Y-51671500D01*
X20505300Y-51649500D01*
X20475300Y-51624500D01*
X20446300Y-51599500D01*
X20418300Y-51572500D01*
X20392300Y-51544500D01*
X20367300Y-51514500D01*
X20343300Y-51484500D01*
X20321300Y-51452500D01*
X20300300Y-51419500D01*
X20282300Y-51386500D01*
X20264300Y-51351500D01*
X20249300Y-51316500D01*
X20235300Y-51280500D01*
X20223300Y-51243500D01*
X20213300Y-51206500D01*
X20204300Y-51168500D01*
X20197300Y-51130500D01*
X20193300Y-51091500D01*
X20190300Y-51060500D01*
X20190300Y-50990500D01*
X20191300Y-50951500D01*
X20194300Y-50909500D01*
X20200300Y-50867500D01*
X20208300Y-50826500D01*
X20217300Y-50784500D01*
X20229300Y-50745500D01*
X20243300Y-50705500D01*
X20259300Y-50666500D01*
X20277300Y-50628500D01*
X20298300Y-50590500D01*
X20319300Y-50555500D01*
X20343300Y-50521500D01*
X20369300Y-50487500D01*
X20396300Y-50456500D01*
X20425300Y-50425500D01*
X20456300Y-50396500D01*
X20487300Y-50369500D01*
X20521300Y-50343500D01*
X20555300Y-50319500D01*
X20591300Y-50298500D01*
X20628300Y-50277500D01*
X20666300Y-50258500D01*
X20705300Y-50243500D01*
X20745300Y-50229500D01*
X20785300Y-50217500D01*
X20826300Y-50208500D01*
X20867300Y-50200500D01*
X20909300Y-50194500D01*
X20951300Y-50191500D01*
X20995300Y-50190500D01*
X20995300Y-50490500D01*
X20971300Y-50491500D01*
X20944300Y-50492500D01*
X20918300Y-50496500D01*
X20892300Y-50501500D01*
X20866300Y-50507500D01*
X20816300Y-50523500D01*
X20791300Y-50534500D01*
X20767300Y-50545500D01*
X20744300Y-50558500D01*
X20721300Y-50572500D01*
X20699300Y-50586500D01*
X20678300Y-50603500D01*
X20658300Y-50620500D01*
X20639300Y-50639500D01*
X20620300Y-50657500D01*
X20603300Y-50678500D01*
X20587300Y-50699500D01*
X20572300Y-50721500D01*
X20558300Y-50744500D01*
X20545300Y-50767500D01*
X20534300Y-50791500D01*
X20524300Y-50815500D01*
X20515300Y-50841500D01*
X20507300Y-50866500D01*
X20501300Y-50892500D01*
X20496300Y-50917500D01*
X20493300Y-50944500D01*
X20491300Y-50971500D01*
X20490300Y-51000500D01*
X20490300Y-51022500D01*
X20492300Y-51049500D01*
X20495300Y-51075500D01*
X20499300Y-51101500D01*
X20505300Y-51127500D01*
X20512300Y-51153500D01*
X20520300Y-51178500D01*
X20530300Y-51202500D01*
X20541300Y-51226500D01*
X20553300Y-51250500D01*
X20567300Y-51273500D01*
X20581300Y-51295500D01*
X20597300Y-51316500D01*
X20614300Y-51335500D01*
X20632300Y-51356500D01*
X20670300Y-51392500D01*
X20691300Y-51408500D01*
X20713300Y-51424500D01*
X20735300Y-51438500D01*
X20758300Y-51451500D01*
X20806300Y-51473500D01*
X20831300Y-51482500D01*
X20881300Y-51496500D01*
X20907300Y-51502500D01*
X20933300Y-51506500D01*
X20960300Y-51508500D01*
X20990300Y-51510500D01*
X21000300Y-51510500D01*
X21031300Y-51508500D01*
X21058300Y-51506500D01*
X21084300Y-51502500D01*
X21111300Y-51496500D01*
X21163300Y-51482500D01*
X21188300Y-51473500D01*
X21213300Y-51462500D01*
X21237300Y-51450500D01*
X21283300Y-51422500D01*
X21305300Y-51406500D01*
X21326300Y-51390500D01*
X21346300Y-51372500D01*
X21365300Y-51353500D01*
X21384300Y-51333500D01*
X21401300Y-51312500D01*
X21417300Y-51290500D01*
X21432300Y-51268500D01*
X21445300Y-51245500D01*
X21458300Y-51221500D01*
X21469300Y-51196500D01*
X21479300Y-51171500D01*
X21488300Y-51146500D01*
X21495300Y-51120500D01*
X21501300Y-51093500D01*
X21505300Y-51067500D01*
X21508300Y-51039500D01*
X21510300Y-51013500D01*
X21510300Y-50990500D01*
X21509300Y-50968500D01*
X21506300Y-50943500D01*
X21502300Y-50917500D01*
X21497300Y-50893500D01*
X21490300Y-50868500D01*
X21483300Y-50844500D01*
X21474300Y-50820500D01*
X21464300Y-50796500D01*
X21453300Y-50773500D01*
X21427300Y-50729500D01*
X21413300Y-50708500D01*
X21397300Y-50687500D01*
X21381300Y-50668500D01*
X21364300Y-50648500D01*
X21307300Y-50597500D01*
X21286300Y-50583500D01*
X21265300Y-50568500D01*
X21243300Y-50555500D01*
X21197300Y-50533500D01*
X21173300Y-50523500D01*
X21125300Y-50507500D01*
X21100300Y-50501500D01*
X21075300Y-50496500D01*
X21049300Y-50492500D01*
X21020300Y-50490500D01*
X21005300Y-50490500D01*
X21005300Y-50190500D01*
X21049300Y-50191500D01*
G37*
%TD.AperFunction*%
%TD*%
D11*
%TO.P,,bf75bd65271f4eb6bc530e8204cbcec3e3551b6962804962a30c8c0b0e85004200*%
%TO.N,USB_DP_CONN*%
X43200000Y-59950000D03*
%TD*%
D12*
%TO.P,C17,P1*%
%TO.N,3V3*%
X22000006Y-42275000D03*
%TO.P,C17,P2*%
%TO.N,GND*%
X21999994Y-40725000D03*
%TD*%
D13*
%TO.P,SW4,2*%
%TO.N,GND*%
X27180000Y-35500000D03*
%TO.P,SW4,1*%
%TO.N,QSPI_CS_FLASH*%
X22820000Y-35500000D03*
%TD*%
D14*
%TO.P,C1,P1*%
%TO.N,VBUS_5V*%
X55725000Y-56000000D03*
%TO.P,C1,P2*%
%TO.N,GND*%
X57275000Y-56000000D03*
%TD*%
D13*
%TO.P,SW3,2*%
%TO.N,GND*%
X27680000Y-27000000D03*
%TO.P,SW3,1*%
%TO.N,MCU_RUN*%
X23320000Y-27000000D03*
%TD*%
D15*
%TO.P,F1,~*%
%TO.N,VBUS_5V*%
X48999973Y-50797500D03*
%TO.N,USB_VBUS_RAW*%
X49000027Y-58197500D03*
%TD*%
D12*
%TO.P,C8,P1*%
%TO.N,3V3*%
X28500006Y-40775000D03*
%TO.P,C8,P2*%
%TO.N,GND*%
X28499994Y-39225000D03*
%TD*%
D16*
%TO.P,J3,2*%
%TO.N,SPKR_N*%
X60000007Y-43000000D03*
D17*
%TO.P,J3,1*%
%TO.N,SPKR_P*%
X59999993Y-41000000D03*
%TD*%
D18*
%TO.P,FB1,2*%
%TO.N,MIC_3V3_FILT*%
X28787500Y-47400000D03*
%TO.P,FB1,1*%
%TO.N,3V3*%
X27212500Y-47400000D03*
%TD*%
D19*
%TO.P,C2,P1*%
%TO.N,VBUS_5V*%
X31750000Y-56800000D03*
%TO.P,C2,P2*%
%TO.N,GND*%
X33650000Y-56800000D03*
%TD*%
D20*
%TO.P,J1,GND__1*%
%TO.N,GND*%
X43200000Y-61345000D03*
%TO.P,J1,GND*%
X36800000Y-61345000D03*
D21*
%TO.P,J1,DN1*%
%TO.N,USB_DM_CONN*%
X40250000Y-61345000D03*
D22*
%TO.P,J1,SHELL_GND*%
%TO.N,GND*%
X35680000Y-61920000D03*
D21*
%TO.P,J1,DN2*%
%TO.N,USB_DM_CONN*%
X39250000Y-61345000D03*
%TO.P,J1,CC1*%
%TO.N,USB_CC1*%
X38750000Y-61345000D03*
%TO.P,J1,DP1*%
%TO.N,USB_DP_CONN*%
X39750000Y-61345000D03*
D22*
%TO.P,J1,SHELL_GND__1*%
%TO.N,GND*%
X44320000Y-61920000D03*
D23*
%TO.P,J1,SHELL_GND__2*%
X35680000Y-66100000D03*
D21*
%TO.P,J1,DP2*%
%TO.N,USB_DP_CONN*%
X40750000Y-61345000D03*
%TO.P,J1,CC2*%
%TO.N,USB_CC2*%
X41750000Y-61345000D03*
D20*
%TO.P,J1,VBUS*%
%TO.N,USB_VBUS_RAW*%
X37600000Y-61345000D03*
D21*
%TO.P,J1,SBU1*%
%TO.N,N/C*%
X41250000Y-61345000D03*
D20*
%TO.P,J1,VBUS__1*%
%TO.N,USB_VBUS_RAW*%
X42400000Y-61345000D03*
D21*
%TO.P,J1,SBU2*%
%TO.N,N/C*%
X38250000Y-61345000D03*
D23*
%TO.P,J1,SHELL_GND__3*%
%TO.N,GND*%
X44320000Y-66100000D03*
%TD*%
D14*
%TO.P,C12,P1*%
%TO.N,XOSC_XI*%
X37525000Y-31000000D03*
%TO.P,C12,P2*%
%TO.N,GND*%
X39075000Y-31000000D03*
%TD*%
D24*
%TO.P,MK1,CLOCK*%
%TO.N,PDM_CLK*%
X21837500Y-49748000D03*
%TO.P,MK1,DATA*%
%TO.N,PDM_DATA*%
X20162500Y-48926000D03*
%TO.P,MK1,VDD*%
%TO.N,MIC_3V3_FILT*%
X21837500Y-48926000D03*
D25*
%TO.P,MK1,GND*%
%TO.N,GND*%
X21656300Y-50987500D03*
D24*
%TO.P,MK1,SELECT*%
X20162500Y-49748000D03*
%TD*%
D26*
%TO.P,R6,P2*%
%TO.N,QSPI_CS_FLASH*%
X28825000Y-44000000D03*
%TO.P,R6,P1*%
%TO.N,QSPI_SS_MCU*%
X27175000Y-44000000D03*
%TD*%
D12*
%TO.P,C5,P1*%
%TO.N,3V3*%
X39500006Y-40775000D03*
%TO.P,C5,P2*%
%TO.N,GND*%
X39499994Y-39225000D03*
%TD*%
%TO.P,C11,P1*%
%TO.N,1V1_CORE*%
X39500006Y-43775000D03*
%TO.P,C11,P2*%
%TO.N,GND*%
X39499994Y-42225000D03*
%TD*%
D14*
%TO.P,C15,P1*%
%TO.N,3V3*%
X35825000Y-43200000D03*
%TO.P,C15,P2*%
%TO.N,GND*%
X37375000Y-43200000D03*
%TD*%
D19*
%TO.P,C3,P1*%
%TO.N,3V3*%
X34850000Y-56800000D03*
%TO.P,C3,P2*%
%TO.N,GND*%
X36750000Y-56800000D03*
%TD*%
D27*
%TO.P,D2,2*%
%TO.N,GND*%
X56499989Y-57450000D03*
%TO.P,D2,1*%
%TO.N,VBUS_5V*%
X56500011Y-60550000D03*
%TD*%
D26*
%TO.P,R5,P2*%
%TO.N,XOSC_XO*%
X31025000Y-32800000D03*
%TO.P,R5,P1*%
%TO.N,XOSC_OUT*%
X29375000Y-32800000D03*
%TD*%
%TO.P,R3,P2*%
%TO.N,USB_DP*%
X39825000Y-55500000D03*
%TO.P,R3,P1*%
%TO.N,USB_DP_PROTECTED*%
X38175000Y-55500000D03*
%TD*%
D14*
%TO.P,C9,P1*%
%TO.N,3V3*%
X35825000Y-45000000D03*
%TO.P,C9,P2*%
%TO.N,GND*%
X37375000Y-45000000D03*
%TD*%
D12*
%TO.P,C4,P1*%
%TO.N,3V3*%
X39500006Y-37775000D03*
%TO.P,C4,P2*%
%TO.N,GND*%
X39499994Y-36225000D03*
%TD*%
D28*
%TO.P,Y1,CRYSTAL_2*%
%TO.N,XOSC_XI*%
X35150000Y-29925000D03*
%TO.P,Y1,GND_2*%
%TO.N,GND*%
X32850000Y-29925000D03*
%TO.P,Y1,CRYSTAL_1*%
%TO.N,XOSC_XO*%
X32850000Y-31675000D03*
%TO.P,Y1,GND_1*%
%TO.N,GND*%
X35150000Y-31675000D03*
%TD*%
D26*
%TO.P,R15,P2*%
%TO.N,F14_BTN_N*%
X42325000Y-30700000D03*
%TO.P,R15,P1*%
%TO.N,3V3*%
X40675000Y-30700000D03*
%TD*%
D14*
%TO.P,C25,P1*%
%TO.N,VBUS_5V*%
X46225000Y-44500000D03*
%TO.P,C25,P2*%
%TO.N,GND*%
X47775000Y-44500000D03*
%TD*%
D26*
%TO.P,R9,P2*%
%TO.N,3V3_PWRGD*%
X39825000Y-51800000D03*
%TO.P,R9,P1*%
%TO.N,3V3*%
X38175000Y-51800000D03*
%TD*%
D14*
%TO.P,C20,P1*%
%TO.N,MCU_RUN*%
X31525000Y-25200000D03*
%TO.P,C20,P2*%
%TO.N,GND*%
X33075000Y-25200000D03*
%TD*%
D29*
%TO.P,SW1,1*%
%TO.N,F13_BTN_N*%
X58615837Y-21692033D03*
%TO.P,SW1,2*%
%TO.N,GND*%
X56089163Y-19416967D03*
%TD*%
D14*
%TO.P,C13,P1*%
%TO.N,3V3*%
X30225000Y-43200000D03*
%TO.P,C13,P2*%
%TO.N,GND*%
X31775000Y-43200000D03*
%TD*%
D30*
%TO.P,U2,CLK*%
%TO.N,QSPI_SCLK*%
X23489998Y-41250011D03*
%TO.P,U2,VCC*%
%TO.N,3V3*%
X23490006Y-42250011D03*
%TO.P,U2,DI(IO0)*%
%TO.N,QSPI_SD0*%
X23489994Y-40750011D03*
%TO.P,U2,HOLD#orRESET#(IO3)*%
%TO.N,QSPI_SD3*%
X23490002Y-41750011D03*
%TO.P,U2,DO(IO1)*%
%TO.N,QSPI_SD1*%
X26510002Y-41749989D03*
%TO.P,U2,WP#(IO2)*%
%TO.N,QSPI_SD2*%
X26509998Y-41249989D03*
D31*
%TO.P,U2,EP*%
%TO.N,GND*%
X25000000Y-41500000D03*
D30*
%TO.P,U2,GND*%
X26509994Y-40749989D03*
%TO.P,U2,~{CS}*%
%TO.N,QSPI_CS_FLASH*%
X26510006Y-42249989D03*
%TD*%
D32*
%TO.P,U1,USB_VDD*%
%TO.N,3V3*%
X33399982Y-41437497D03*
D33*
%TO.P,U1,GPIO19*%
%TO.N,N/C*%
X30562512Y-35799982D03*
D32*
%TO.P,U1,USB_DP*%
%TO.N,USB_DP*%
X32999982Y-41437495D03*
%TO.P,U1,XOUT*%
%TO.N,XOSC_OUT*%
X34200018Y-34562501D03*
%TO.P,U1,QSPI_SD0*%
%TO.N,QSPI_SD0*%
X35399982Y-41437507D03*
%TO.P,U1,TESTEN*%
%TO.N,GND*%
X35000018Y-34562505D03*
D33*
%TO.P,U1,GPIO22*%
%TO.N,N/C*%
X30562503Y-37399982D03*
%TO.P,U1,IOVDD*%
%TO.N,3V3*%
X37437505Y-37000018D03*
D32*
%TO.P,U1,SWD*%
%TO.N,SWDIO*%
X32600018Y-34562493D03*
%TO.P,U1,QSPI_SD1*%
%TO.N,QSPI_SD1*%
X36199982Y-41437512D03*
D33*
%TO.P,U1,GPIO2*%
%TO.N,I2S_BCLK*%
X37437493Y-39400018D03*
%TO.P,U1,GPIO24*%
%TO.N,N/C*%
X30562499Y-38199982D03*
D32*
%TO.P,U1,SWCLK*%
%TO.N,SWCLK*%
X33000018Y-34562495D03*
%TO.P,U1,DVDD*%
%TO.N,1V1_CORE*%
X33400018Y-34562497D03*
%TO.P,U1,GPIO16*%
%TO.N,N/C*%
X31800018Y-34562488D03*
D33*
%TO.P,U1,GPIO9*%
%TO.N,3V3_PWRGD*%
X37437510Y-36200018D03*
%TO.P,U1,GPIO11*%
%TO.N,N/C*%
X37437514Y-35400018D03*
D32*
%TO.P,U1,ADC_AVDD*%
%TO.N,3V3*%
X31399982Y-41437486D03*
%TO.P,U1,QSPI_SS*%
%TO.N,QSPI_SS_MCU*%
X36599982Y-41437514D03*
%TO.P,U1,GPIO17*%
%TO.N,N/C*%
X31400018Y-34562486D03*
D33*
%TO.P,U1,GPIO29_ADC3*%
X30562488Y-40199982D03*
%TO.P,U1,IOVDD*%
%TO.N,3V3*%
X30562486Y-40599982D03*
D32*
%TO.P,U1,XIN*%
%TO.N,XOSC_XI*%
X34600018Y-34562503D03*
D33*
%TO.P,U1,GPIO4*%
%TO.N,I2S_DAC_DATA*%
X37437497Y-38600018D03*
D32*
%TO.P,U1,QSPI_SCLK*%
%TO.N,QSPI_SCLK*%
X34999982Y-41437505D03*
%TO.P,U1,USB_DM*%
%TO.N,USB_DM*%
X32599982Y-41437493D03*
D33*
%TO.P,U1,GPIO6*%
%TO.N,PDM_CLK*%
X37437501Y-37800018D03*
%TO.P,U1,GPIO28_ADC2*%
%TO.N,N/C*%
X30562490Y-39799982D03*
D32*
%TO.P,U1,IOVDD*%
%TO.N,3V3*%
X33799982Y-41437499D03*
D33*
%TO.P,U1,GPIO21*%
%TO.N,AMP_SD_MODE*%
X30562507Y-36599982D03*
%TO.P,U1,GPIO27_ADC1*%
%TO.N,N/C*%
X30562493Y-39399982D03*
%TO.P,U1,GPIO1*%
X37437490Y-39800018D03*
D32*
%TO.P,U1,QSPI_SD3*%
%TO.N,QSPI_SD3*%
X34599982Y-41437503D03*
D33*
%TO.P,U1,GPIO18*%
%TO.N,N/C*%
X30562514Y-35399982D03*
%TO.P,U1,GPIO25*%
X30562497Y-38599982D03*
%TO.P,U1,GPIO0*%
X37437488Y-40200018D03*
%TO.P,U1,GPIO8*%
%TO.N,F14_BTN_N*%
X37437507Y-36600018D03*
D32*
%TO.P,U1,VREG_VOUT*%
%TO.N,1V1_CORE*%
X32199982Y-41437490D03*
D34*
%TO.P,U1,GND*%
%TO.N,GND*%
X34000000Y-38000000D03*
D33*
%TO.P,U1,GPIO20*%
%TO.N,N/C*%
X30562510Y-36199982D03*
%TO.P,U1,GPIO3*%
%TO.N,I2S_LRCLK*%
X37437495Y-39000018D03*
D32*
%TO.P,U1,RUN*%
%TO.N,MCU_RUN*%
X32200018Y-34562490D03*
%TO.P,U1,GPIO15*%
%TO.N,N/C*%
X35400018Y-34562507D03*
%TO.P,U1,GPIO12*%
X36600018Y-34562514D03*
D33*
%TO.P,U1,GPIO7*%
%TO.N,F13_BTN_N*%
X37437503Y-37400018D03*
D32*
%TO.P,U1,QSPI_SD2*%
%TO.N,QSPI_SD2*%
X35799982Y-41437510D03*
D33*
%TO.P,U1,GPIO23*%
%TO.N,N/C*%
X30562501Y-37799982D03*
D32*
%TO.P,U1,DVDD*%
%TO.N,1V1_CORE*%
X34199982Y-41437501D03*
D33*
%TO.P,U1,GPIO5*%
%TO.N,PDM_DATA*%
X37437499Y-38200018D03*
%TO.P,U1,IOVDD*%
%TO.N,3V3*%
X30562505Y-36999982D03*
X37437486Y-40600018D03*
D32*
X33800018Y-34562499D03*
%TO.P,U1,VREG_IN*%
X31799982Y-41437488D03*
%TO.P,U1,GPIO14*%
%TO.N,N/C*%
X35800018Y-34562510D03*
D33*
%TO.P,U1,GPIO26_ADC0*%
X30562495Y-38999982D03*
D32*
%TO.P,U1,GPIO13*%
X36200018Y-34562512D03*
D33*
%TO.P,U1,GPIO10*%
X37437512Y-35800018D03*
%TD*%
D14*
%TO.P,C16,P1*%
%TO.N,3V3*%
X30225000Y-45000000D03*
%TO.P,C16,P2*%
%TO.N,GND*%
X31775000Y-45000000D03*
%TD*%
D26*
%TO.P,R4,P2*%
%TO.N,USB_DM*%
X39825000Y-53800000D03*
%TO.P,R4,P1*%
%TO.N,USB_DM_PROTECTED*%
X38175000Y-53800000D03*
%TD*%
D14*
%TO.P,C6,P1*%
%TO.N,3V3*%
X37725000Y-33200000D03*
%TO.P,C6,P2*%
%TO.N,GND*%
X39275000Y-33200000D03*
%TD*%
%TO.P,C10,P1*%
%TO.N,1V1_CORE*%
X33025000Y-45000000D03*
%TO.P,C10,P2*%
%TO.N,GND*%
X34575000Y-45000000D03*
%TD*%
D26*
%TO.P,R1,P2*%
%TO.N,GND*%
X35825000Y-58500000D03*
%TO.P,R1,P1*%
%TO.N,USB_CC1*%
X34175000Y-58500000D03*
%TD*%
%TO.P,R2,P2*%
%TO.N,GND*%
X30325000Y-59000000D03*
%TO.P,R2,P1*%
%TO.N,USB_CC2*%
X28675000Y-59000000D03*
%TD*%
D14*
%TO.P,C14,P1*%
%TO.N,1V1_CORE*%
X33025000Y-43200000D03*
%TO.P,C14,P2*%
%TO.N,GND*%
X34575000Y-43200000D03*
%TD*%
D35*
%TO.P,D1,I/O2*%
%TO.N,USB_DM_CONN*%
X38400000Y-59450000D03*
%TO.P,D1,VBUS*%
%TO.N,VBUS_5V*%
X40600000Y-58500000D03*
%TO.P,D1,GND*%
%TO.N,GND*%
X38400000Y-58500000D03*
%TO.P,D1,I/O1*%
%TO.N,USB_DP_PROTECTED*%
X40600000Y-57550000D03*
%TO.N,USB_DP_CONN*%
X38400000Y-57550000D03*
%TO.P,D1,I/O2*%
%TO.N,USB_DM_PROTECTED*%
X40600000Y-59450000D03*
%TD*%
D36*
%TO.P,SW2,1*%
%TO.N,F14_BTN_N*%
X65449339Y-31863181D03*
%TO.P,SW2,2*%
%TO.N,GND*%
X64230861Y-28689019D03*
%TD*%
D26*
%TO.P,R14,P2*%
%TO.N,F13_BTN_N*%
X42325000Y-32200000D03*
%TO.P,R14,P1*%
%TO.N,3V3*%
X40675000Y-32200000D03*
%TD*%
D14*
%TO.P,C18,P1*%
%TO.N,XOSC_XO*%
X29025000Y-30600000D03*
%TO.P,C18,P2*%
%TO.N,GND*%
X30575000Y-30600000D03*
%TD*%
D37*
%TO.P,U5,VOUT*%
%TO.N,3V3*%
X35270022Y-54499991D03*
%TO.P,U5,GND*%
%TO.N,GND*%
X34000022Y-54500000D03*
%TO.P,U5,~SHDN*%
%TO.N,VBUS_5V*%
X31460022Y-54500019D03*
%TO.P,U5,PWRGD*%
%TO.N,3V3_PWRGD*%
X36540022Y-54499981D03*
%TO.P,U5,VIN*%
%TO.N,VBUS_5V*%
X32730022Y-54500009D03*
D38*
%TO.P,U5,GND_(TAB)*%
%TO.N,GND*%
X33999978Y-48500000D03*
%TD*%
D39*
%TO.P,U3,N.C._1*%
%TO.N,N/C*%
X50250000Y-43450000D03*
%TO.P,U3,N.C._2*%
X50750000Y-43450000D03*
D40*
%TO.P,U3,OUTN*%
%TO.N,SPKR_N*%
X52450000Y-42250000D03*
%TO.P,U3,N.C._3*%
%TO.N,N/C*%
X52450000Y-41250000D03*
D41*
%TO.P,U3,THERMAL_PAD*%
%TO.N,GND*%
X51000000Y-42000000D03*
D40*
%TO.P,U3,DIN*%
%TO.N,I2S_DAC_DATA*%
X49550000Y-41250000D03*
D39*
%TO.P,U3,GND_3*%
%TO.N,GND*%
X50750000Y-40550000D03*
D40*
%TO.P,U3,GAIN_SLOT*%
%TO.N,N/C*%
X49550000Y-41750000D03*
D39*
%TO.P,U3,VDD_1*%
%TO.N,VBUS_5V*%
X51250000Y-43450000D03*
D40*
%TO.P,U3,OUTP*%
%TO.N,SPKR_P*%
X52450000Y-42750000D03*
%TO.P,U3,GND_2*%
%TO.N,GND*%
X52450000Y-41750000D03*
D39*
%TO.P,U3,LRCLK*%
%TO.N,I2S_LRCLK*%
X51250000Y-40550000D03*
%TO.P,U3,VDD_2*%
%TO.N,VBUS_5V*%
X51750000Y-43450000D03*
D40*
%TO.P,U3,GND_1*%
%TO.N,GND*%
X49550000Y-42250000D03*
D39*
%TO.P,U3,BCLK*%
%TO.N,I2S_BCLK*%
X50250000Y-40550000D03*
D40*
%TO.P,U3,~SD_MODE*%
%TO.N,AMP_SD_MODE*%
X49550000Y-42750000D03*
D39*
%TO.P,U3,N.C._4*%
%TO.N,N/C*%
X51750000Y-40550000D03*
%TD*%
D14*
%TO.P,C28,P1*%
%TO.N,MIC_3V3_FILT*%
X21225000Y-47400000D03*
%TO.P,C28,P2*%
%TO.N,GND*%
X22775000Y-47400000D03*
%TD*%
D26*
%TO.P,R8,P2*%
%TO.N,MCU_RUN*%
X30325000Y-25200000D03*
%TO.P,R8,P1*%
%TO.N,3V3*%
X28675000Y-25200000D03*
%TD*%
D12*
%TO.P,C7,P1*%
%TO.N,3V3*%
X28500006Y-37775000D03*
%TO.P,C7,P2*%
%TO.N,GND*%
X28499994Y-36225000D03*
%TD*%
D14*
%TO.P,C29,P1*%
%TO.N,MIC_3V3_FILT*%
X24225000Y-47400000D03*
%TO.P,C29,P2*%
%TO.N,GND*%
X25775000Y-47400000D03*
%TD*%
D42*
%TO.P,J4,01*%
%TO.N,3V3*%
X21035009Y-31269985D03*
%TO.P,J4,06*%
%TO.N,N/C*%
X16964991Y-28730015D03*
%TO.P,J4,04*%
%TO.N,SWCLK*%
X16965000Y-30000015D03*
%TO.P,J4,03*%
%TO.N,GND*%
X21035000Y-29999985D03*
%TO.P,J4,02*%
%TO.N,SWDIO*%
X16965009Y-31270015D03*
%TO.P,J4,05*%
%TO.N,MCU_RUN*%
X21034991Y-28729985D03*
%TD*%
D26*
%TO.P,R7,P2*%
%TO.N,QSPI_CS_FLASH*%
X25825000Y-43500000D03*
%TO.P,R7,P1*%
%TO.N,3V3*%
X24175000Y-43500000D03*
%TD*%
D14*
%TO.P,C24,P1*%
%TO.N,VBUS_5V*%
X46225000Y-40500000D03*
%TO.P,C24,P2*%
%TO.N,GND*%
X47775000Y-40500000D03*
%TD*%
D43*
%TO.N,F13_BTN_N*%
X40731600Y-36785200D03*
X57470500Y-22837400D03*
X42325000Y-33425000D03*
X43475000Y-32200000D03*
%TO.N,I2S_DAC_DATA*%
X38294400Y-38332400D03*
X47175200Y-41494000D03*
%TO.N,I2S_LRCLK*%
X38410900Y-39117100D03*
X50224700Y-39723200D03*
%TO.N,QSPI_SCLK*%
X31583400Y-39021300D03*
X24083600Y-40325600D03*
%TO.N,1V1_CORE*%
X33970500Y-45945500D03*
X33400000Y-35712500D03*
X32200000Y-42286500D03*
X38748200Y-44526800D03*
X34200000Y-40588500D03*
%TO.N,USB_DM*%
X31875500Y-40463600D03*
X40432700Y-41036000D03*
X40621500Y-53361900D03*
%TO.N,F14_BTN_N*%
X41399900Y-32863000D03*
X36461200Y-36053000D03*
%TO.N,QSPI_SD2*%
X27413700Y-41250000D03*
X35588500Y-42254300D03*
%TO.N,AMP_SD_MODE*%
X48334500Y-42750000D03*
X31496000Y-36124800D03*
%TO.N,USB_VBUS_RAW*%
X37470000Y-59690000D03*
X41755400Y-63970500D03*
%TO.N,XOSC_OUT*%
X29948400Y-33842700D03*
X35154500Y-35537300D03*
%TO.N,SWCLK*%
X18909100Y-30127200D03*
X32536100Y-32729300D03*
%TO.N,QSPI_SD3*%
X24402700Y-41981800D03*
X34600000Y-42296900D03*
%TO.N,QSPI_CS_FLASH*%
X28799600Y-43128500D03*
X26510000Y-44895800D03*
X24026500Y-36706500D03*
%TO.N,3V3*%
X29595500Y-26120500D03*
X39754500Y-29779500D03*
X30835500Y-45862800D03*
X33800000Y-42286500D03*
X42410400Y-40971000D03*
X37725000Y-34086500D03*
X33034000Y-45910800D03*
%TO.N,SWDIO*%
X19569300Y-32057400D03*
X32137600Y-35406200D03*
%TO.N,QSPI_SD0*%
X23844800Y-38381000D03*
X35670700Y-40098200D03*
%TO.N,USB_DP_CONN*%
X38400000Y-56800000D03*
%TO.N,GND*%
X22932800Y-30000000D03*
X36735300Y-47867500D03*
%TO.N,3V3_PWRGD*%
X40692700Y-51754200D03*
X31583400Y-38281000D03*
X37286900Y-53753100D03*
X36540000Y-53078100D03*
%TO.N,VBUS_5V*%
X32759000Y-57818900D03*
X47313200Y-52484300D03*
X39623500Y-58500000D03*
%TO.N,USB_DP*%
X33119800Y-40568400D03*
X39003100Y-54678100D03*
%TO.N,SPKR_N*%
X54313900Y-42250000D03*
%TO.N,PDM_CLK*%
X36603500Y-37800000D03*
X22990500Y-49748000D03*
%TO.N,PDM_DATA*%
X36600000Y-38548800D03*
X20162500Y-47874500D03*
%TO.N,3V3*%
X38500000Y-36000000D03*
X38575700Y-36340900D03*
%TO.N,3V3_PWRGD*%
X38332100Y-35208900D03*
%TO.N,3V3*%
X33810000Y-32730400D03*
%TO.N,3V3_PWRGD*%
X41424500Y-50200500D03*
%TO.N,GND*%
X40000000Y-25000000D03*
X55000000Y-40000000D03*
X55000000Y-55000000D03*
X25000000Y-55000000D03*
X44470000Y-50855200D03*
X46297200Y-64285400D03*
X48147200Y-46957200D03*
X18590700Y-48665200D03*
X25999200Y-31278800D03*
X30392700Y-28888600D03*
X22114900Y-45705200D03*
X35337000Y-59900000D03*
X39823000Y-46652500D03*
X24943800Y-34037800D03*
X42343100Y-47137800D03*
X22309000Y-37322800D03*
X45365500Y-31437000D03*
X41781800Y-55636600D03*
X35954500Y-51063500D03*
X38474700Y-49691500D03*
X25628800Y-40050300D03*
X24639700Y-36096500D03*
X48893100Y-40436400D03*
X40467800Y-34224700D03*
X39395400Y-63225100D03*
X27400100Y-39911100D03*
X27267000Y-38208000D03*
X22815300Y-39624400D03*
X20923600Y-43184900D03*
X40667000Y-42919000D03*
X24626500Y-38817500D03*
X37364900Y-52797200D03*
X41375000Y-41002000D03*
X28842600Y-31695600D03*
%TD*%
%TO.N,XOSC_XO*%
D44*
X31725000Y-32800000D02*
X32850000Y-31675000D01*
X31025000Y-32800000D02*
X31725000Y-32800000D01*
X29025000Y-30800000D02*
X31025000Y-32800000D01*
X29025000Y-30600000D02*
X29025000Y-30800000D01*
%TO.N,F13_BTN_N*%
D45*
X57470500Y-22837400D02*
X57894800Y-22413100D01*
X37875000Y-37400000D02*
X38248100Y-37026900D01*
X57175900Y-21692000D02*
X57795800Y-21072100D01*
X38248100Y-37026900D02*
X40489900Y-37026900D01*
X40489900Y-37026900D02*
X40731600Y-36785200D01*
X57995900Y-21072100D02*
X58615800Y-21692000D01*
X42875000Y-32200000D02*
X45776800Y-32200000D01*
X57795800Y-21072100D02*
X57995900Y-21072100D01*
X42325000Y-32200000D02*
X42875000Y-32200000D01*
X42875000Y-32200000D02*
X42325000Y-32200000D01*
X42325000Y-32825000D02*
X42325000Y-32200000D01*
X37060500Y-37400000D02*
X36603500Y-36943000D01*
X42325000Y-33425000D02*
X42325000Y-32825000D01*
X43475000Y-32200000D02*
X42875000Y-32200000D01*
X37437500Y-37400000D02*
X37060500Y-37400000D01*
X57894800Y-22413100D02*
X58615800Y-21692000D01*
%TO.N,I2S_DAC_DATA*%
D44*
X48708900Y-41250000D02*
X48446300Y-41512600D01*
X49550000Y-41250000D02*
X48708900Y-41250000D01*
X48934500Y-41250000D02*
X47419200Y-41250000D01*
X38003000Y-38600000D02*
X38268200Y-38334800D01*
X38292100Y-38334800D02*
X38294400Y-38332400D01*
X48446300Y-41512600D02*
X47193800Y-41512600D01*
X47419200Y-41250000D02*
X47175200Y-41494000D01*
X49550000Y-41250000D02*
X48934500Y-41250000D01*
X37437500Y-38600000D02*
X38003000Y-38600000D01*
X38268200Y-38334800D02*
X38292100Y-38334800D01*
%TO.N,MIC_3V3_FILT*%
D46*
X21225000Y-48313500D02*
X21837500Y-48926000D01*
X21225000Y-47400000D02*
X21225000Y-48313500D01*
X24225000Y-47400000D02*
X25461900Y-46163100D01*
X27550600Y-46163100D02*
X28787500Y-47400000D01*
X25461900Y-46163100D02*
X27550600Y-46163100D01*
X21837500Y-48926000D02*
X22699000Y-48926000D01*
X22699000Y-48926000D02*
X24225000Y-47400000D01*
%TO.N,I2S_LRCLK*%
D44*
X51070400Y-39723200D02*
X51250000Y-39902800D01*
X51250000Y-39904600D02*
X51070400Y-39725000D01*
X51070400Y-39725000D02*
X50226500Y-39725000D01*
X51250000Y-39902800D02*
X51250000Y-40550000D01*
X51250000Y-40550000D02*
X51250000Y-39904600D01*
X37437500Y-39000000D02*
X38065500Y-39000000D01*
X38065500Y-39000000D02*
X38500000Y-39000000D01*
X50224700Y-39723200D02*
X51070400Y-39723200D01*
%TO.N,QSPI_SCLK*%
X22966500Y-40282500D02*
X22966500Y-41217000D01*
X35000000Y-40809500D02*
X35000000Y-40252000D01*
X35000000Y-40252000D02*
X34701600Y-39953600D01*
X24083600Y-41146900D02*
X24083600Y-40325600D01*
X23490000Y-41250000D02*
X23980500Y-41250000D01*
X22966500Y-41217000D02*
X22999500Y-41250000D01*
X31663700Y-39101600D02*
X31583400Y-39021300D01*
X35000000Y-41437500D02*
X35000000Y-40809500D01*
X23980500Y-41250000D02*
X24083600Y-41146900D01*
X22999500Y-41250000D02*
X23490000Y-41250000D01*
X32110800Y-39953600D02*
X31663700Y-39506500D01*
X31663700Y-39506500D02*
X31663700Y-39101600D01*
X34701600Y-39953600D02*
X32110800Y-39953600D01*
%TO.N,1V1_CORE*%
D47*
X32200000Y-41437500D02*
X32200000Y-41987500D01*
X33400000Y-34562500D02*
X33400000Y-35112500D01*
X33025000Y-43200000D02*
X33025000Y-45000000D01*
X34200000Y-40887500D02*
X34200000Y-40588500D01*
X34200000Y-41437500D02*
X34200000Y-40887500D01*
X40350000Y-43775000D02*
X40421500Y-43775000D01*
X33025000Y-43200000D02*
X33025000Y-43111500D01*
X39500000Y-43775000D02*
X38650000Y-43775000D01*
X33025000Y-43200000D02*
X33025000Y-45000000D01*
X33025000Y-45000000D02*
X33970500Y-45945500D01*
X33025000Y-45000000D02*
X33747000Y-45722000D01*
X39500000Y-43775000D02*
X38748200Y-44526800D01*
X39500000Y-43775000D02*
X40350000Y-43775000D01*
X32200000Y-41987500D02*
X32200000Y-42286500D01*
X33025000Y-43111500D02*
X32200000Y-42286500D01*
X38650000Y-43775000D02*
X38578500Y-43775000D01*
X33400000Y-35112500D02*
X33400000Y-35712500D01*
%TO.N,QSPI_SS_MCU*%
D44*
X36600000Y-41437500D02*
X37378700Y-41437500D01*
X31543900Y-49573000D02*
X31543900Y-48799700D01*
X27200400Y-44871500D02*
X27175000Y-44846100D01*
X27175000Y-44846100D02*
X27175000Y-44665500D01*
X32109700Y-50138900D02*
X31543900Y-49573000D01*
X36600000Y-40916700D02*
X36258100Y-40574900D01*
X36144800Y-50138900D02*
X32109700Y-50138900D01*
X27354600Y-44864400D02*
X27175000Y-44684800D01*
X27175000Y-44684800D02*
X27175000Y-44000000D01*
X31543900Y-48799700D02*
X27608700Y-44864400D01*
X38164000Y-42222800D02*
X38164000Y-48119700D01*
X27175000Y-44665500D02*
X27175000Y-44000000D01*
X36600000Y-41437500D02*
X36600000Y-40916700D01*
X27608700Y-44864400D02*
X27354600Y-44864400D01*
X38164000Y-48119700D02*
X36144800Y-50138900D01*
X37378700Y-41437500D02*
X38164000Y-42222800D01*
%TO.N,USB_DM*%
X32551100Y-40836900D02*
X32551100Y-40999900D01*
X32600000Y-41048900D02*
X32600000Y-41437500D01*
X39825000Y-53800000D02*
X40263100Y-53361900D01*
X40621500Y-53800000D02*
X40693600Y-53727900D01*
X40263100Y-53361900D02*
X40621500Y-53361900D01*
X39825000Y-53800000D02*
X40415500Y-53800000D01*
X32551100Y-40999900D02*
X32600000Y-41048900D01*
X31985700Y-40573800D02*
X32288000Y-40573800D01*
X31875500Y-40463600D02*
X31985700Y-40573800D01*
X32288000Y-40573800D02*
X32551100Y-40836900D01*
X40415500Y-53800000D02*
X40621500Y-53800000D01*
%TO.N,F14_BTN_N*%
D47*
X64021600Y-31863200D02*
X65449300Y-31863200D01*
X41775000Y-30700000D02*
X41528500Y-30700000D01*
X36985000Y-36600000D02*
X37437500Y-36600000D01*
X41399900Y-30959400D02*
X41399900Y-32863000D01*
X42325000Y-30700000D02*
X42875000Y-30700000D01*
X36603500Y-36218600D02*
X36985000Y-36600000D01*
X36603500Y-36195300D02*
X36603500Y-36218600D01*
X36461200Y-36053000D02*
X36603500Y-36195300D01*
X42875000Y-30700000D02*
X62858500Y-30700000D01*
X41659200Y-30700000D02*
X41399900Y-30959400D01*
X42325000Y-30700000D02*
X41775000Y-30700000D01*
X42325000Y-30700000D02*
X41659200Y-30700000D01*
X62858500Y-30700000D02*
X64021600Y-31863200D01*
%TO.N,QSPI_SD2*%
D44*
X26510000Y-41250000D02*
X27000500Y-41250000D01*
X27000500Y-41250000D02*
X27413700Y-41250000D01*
D45*
X35588500Y-42254300D02*
X35800000Y-42042800D01*
X35800000Y-42025000D02*
X35800000Y-41437500D01*
X35800000Y-42042800D02*
X35800000Y-42025000D01*
%TO.N,AMP_SD_MODE*%
D44*
X31316300Y-36600000D02*
X31496000Y-36420400D01*
X48934500Y-42750000D02*
X48334500Y-42750000D01*
X29937500Y-36520900D02*
X30038000Y-36520900D01*
X30562500Y-36600000D02*
X31316300Y-36600000D01*
X29561100Y-35686200D02*
X29561100Y-36144500D01*
X49550000Y-42750000D02*
X48934500Y-42750000D01*
X29561100Y-36144500D02*
X29937500Y-36520900D01*
X49550000Y-42750000D02*
X48934500Y-42750000D01*
X48934500Y-42750000D02*
X48896600Y-42750000D01*
X48896600Y-42750000D02*
X48703100Y-42556500D01*
X27462600Y-29473000D02*
X27462600Y-33587700D01*
X27462600Y-33587700D02*
X29561100Y-35686200D01*
X31496000Y-36420400D02*
X31496000Y-36124800D01*
%TO.N,QSPI_SD1*%
X36200000Y-42266900D02*
X36571800Y-42638700D01*
X30314900Y-47046700D02*
X27999700Y-44731500D01*
X27999700Y-43330300D02*
X27411600Y-42742200D01*
X27411600Y-41929700D02*
X27231900Y-41750000D01*
X36200000Y-41437500D02*
X36200000Y-42266900D01*
X36571800Y-45862000D02*
X35387100Y-47046700D01*
X35387100Y-47046700D02*
X30314900Y-47046700D01*
X27411600Y-42742200D02*
X27411600Y-41929700D01*
X27231900Y-41750000D02*
X26510000Y-41750000D01*
X36571800Y-42638700D02*
X36571800Y-45862000D01*
X27999700Y-44731500D02*
X27999700Y-43330300D01*
%TO.N,USB_VBUS_RAW*%
D45*
X49000000Y-58197500D02*
X49000000Y-58197500D01*
X43638500Y-67587500D02*
X41755400Y-65704400D01*
X50906900Y-58197500D02*
X51049200Y-58339800D01*
X42546300Y-63589000D02*
X42169400Y-63212200D01*
X37600000Y-61345000D02*
X37600000Y-60620000D01*
X49000000Y-58197500D02*
X49000000Y-59415000D01*
X51049200Y-58339800D02*
X51049200Y-61531500D01*
X49000000Y-58197500D02*
X49000000Y-58197500D01*
X42400000Y-60939200D02*
X42400000Y-61345000D01*
X49000000Y-59415000D02*
X44826000Y-63589000D01*
X42169400Y-63212200D02*
X42169400Y-61575600D01*
X49000000Y-58197500D02*
X50906900Y-58197500D01*
X37600000Y-59820000D02*
X37470000Y-59690000D01*
X41755400Y-65704400D02*
X41755400Y-63970500D01*
X41830800Y-60370000D02*
X42400000Y-60939200D01*
X49000000Y-58197500D02*
X49000000Y-58197500D01*
X37600000Y-60620000D02*
X37600000Y-59820000D01*
X42169400Y-61575600D02*
X42400000Y-61345000D01*
X44993200Y-67587500D02*
X43638500Y-67587500D01*
X51049200Y-61531500D02*
X44993200Y-67587500D01*
X37600000Y-61345000D02*
X37600000Y-60695000D01*
X44826000Y-63589000D02*
X42546300Y-63589000D01*
X37600000Y-60695000D02*
X37925000Y-60370000D01*
%TO.N,XOSC_OUT*%
D44*
X29375000Y-33663100D02*
X29375000Y-32800000D01*
X29948400Y-33842700D02*
X29554600Y-33842700D01*
X34560000Y-35423500D02*
X34182400Y-35045900D01*
X29554600Y-33842700D02*
X29896300Y-33842700D01*
X35154500Y-35537300D02*
X35154500Y-35423500D01*
X29554600Y-33842700D02*
X29375000Y-33663100D01*
X29375000Y-33663100D02*
X29554600Y-33842700D01*
X29375000Y-32800000D02*
X29375000Y-33663100D01*
X35516000Y-35423500D02*
X34560000Y-35423500D01*
%TO.N,USB_DM_PROTECTED*%
D46*
X41132600Y-52711900D02*
X38528600Y-52711900D01*
X43046700Y-54626000D02*
X41132600Y-52711900D01*
X38175000Y-53065500D02*
X38175000Y-53800000D01*
X40600000Y-59450000D02*
X41583400Y-59450000D01*
X43046700Y-57986700D02*
X43046700Y-54626000D01*
X38528600Y-52711900D02*
X38175000Y-53065500D01*
X41583400Y-59450000D02*
X43046700Y-57986700D01*
%TO.N,SWCLK*%
D44*
X18909100Y-30127200D02*
X18781900Y-30000000D01*
D45*
X32536100Y-32729300D02*
X33000000Y-33193200D01*
X33000000Y-33975000D02*
X33000000Y-34562500D01*
D44*
X18550500Y-30000000D02*
X16965000Y-30000000D01*
D45*
X33000000Y-33193200D02*
X33000000Y-33975000D01*
D44*
X18781900Y-30000000D02*
X18550500Y-30000000D01*
%TO.N,USB_CC1*%
X38750000Y-62405300D02*
X37636900Y-63518400D01*
X34175000Y-62474200D02*
X34175000Y-59165500D01*
X37636900Y-63518400D02*
X35219300Y-63518400D01*
X34175000Y-59165500D02*
X34175000Y-58500000D01*
X35219300Y-63518400D02*
X34175000Y-62474200D01*
X38750000Y-61345000D02*
X38750000Y-62405300D01*
%TO.N,XOSC_XI*%
X36590300Y-31826900D02*
X34600000Y-33817200D01*
X34600000Y-33817200D02*
X34600000Y-33934500D01*
X36450000Y-29925000D02*
X35150000Y-29925000D01*
X37525000Y-31000000D02*
X36450000Y-29925000D01*
X37525000Y-31000000D02*
X37525000Y-31665500D01*
X34600000Y-33934500D02*
X34600000Y-34562500D01*
X37363600Y-31826900D02*
X36590300Y-31826900D01*
X37525000Y-31665500D02*
X37363600Y-31826900D01*
%TO.N,QSPI_SD3*%
D48*
X34590000Y-42110000D02*
X34590000Y-41450000D01*
D44*
X34688400Y-42208400D02*
X34688400Y-42208400D01*
X23490000Y-41750000D02*
X23980500Y-41750000D01*
D48*
X23550000Y-41810000D02*
X24030000Y-41810000D01*
D47*
X34590000Y-41975000D02*
X34590000Y-41450000D01*
D44*
X24170900Y-41750000D02*
X24402700Y-41981800D01*
D48*
X23490000Y-41750000D02*
X23550000Y-41810000D01*
X34770000Y-42470000D02*
X34770000Y-42290000D01*
X34770000Y-42290000D02*
X34590000Y-42110000D01*
D47*
X23490000Y-41750000D02*
X24015000Y-41750000D01*
D44*
X34600000Y-42296900D02*
X34688400Y-42208400D01*
X23980500Y-41750000D02*
X24170900Y-41750000D01*
%TO.N,QSPI_CS_FLASH*%
X26510000Y-42580500D02*
X26510000Y-44895800D01*
X28825000Y-43068600D02*
X28305800Y-42549400D01*
X28825000Y-43334500D02*
X28825000Y-43068600D01*
X25825000Y-44217300D02*
X25825000Y-43500000D01*
X26004600Y-42250000D02*
X25825000Y-42429600D01*
X24026500Y-36706500D02*
X22820000Y-35500000D01*
X28825000Y-44000000D02*
X28825000Y-43334500D01*
X21700800Y-44396900D02*
X25645400Y-44396900D01*
X28825000Y-43334500D02*
X28825000Y-43153900D01*
X25825000Y-42834500D02*
X25825000Y-43500000D01*
X26510000Y-42250000D02*
X26510000Y-42580500D01*
X25825000Y-42429600D02*
X25825000Y-42834500D01*
X26510000Y-42250000D02*
X26004600Y-42250000D01*
X28825000Y-44000000D02*
X28825000Y-43334500D01*
X25645400Y-44396900D02*
X25825000Y-44217300D01*
X22820000Y-35500000D02*
X24026500Y-36706500D01*
X28825000Y-43153900D02*
X28799600Y-43128500D01*
%TO.N,3V3*%
D47*
X27212500Y-47400000D02*
X27212500Y-48250000D01*
X39900000Y-32200000D02*
X37875000Y-32200000D01*
X31800000Y-41437500D02*
X31650000Y-41437500D01*
X38925000Y-40762500D02*
X39487500Y-40762500D01*
X19423800Y-52572400D02*
X22961600Y-52572400D01*
X29373900Y-40775000D02*
X29087500Y-40775000D01*
X30225000Y-45756700D02*
X30331100Y-45862800D01*
X41054800Y-42329800D02*
X42410400Y-40974200D01*
X30225000Y-45000000D02*
X30225000Y-45809000D01*
X22000000Y-42275000D02*
X21150000Y-42275000D01*
X41429900Y-42704900D02*
X41429900Y-48545100D01*
X39500000Y-40775000D02*
X41429900Y-42704900D01*
X37437500Y-40600000D02*
X37987500Y-40600000D01*
X35825000Y-44121500D02*
X35825000Y-44121500D01*
X33705700Y-46582500D02*
X35076400Y-46582500D01*
X38175000Y-51800000D02*
X37400000Y-51800000D01*
X29548900Y-38823900D02*
X29548900Y-40600000D01*
X39500000Y-37775000D02*
X40800900Y-37775000D01*
X37725000Y-33200000D02*
X37725000Y-33787500D01*
X29595500Y-26120500D02*
X28675000Y-25200000D01*
X27828500Y-25200000D02*
X27107500Y-25200000D01*
X30562500Y-40600000D02*
X30012500Y-40600000D01*
X30835500Y-42642000D02*
X30835500Y-45862800D01*
X36900000Y-33200000D02*
X37725000Y-33200000D01*
X35825000Y-44121500D02*
X35825000Y-44150000D01*
X22000000Y-43062100D02*
X17320500Y-47741700D01*
X39500000Y-40775000D02*
X39500000Y-40775000D01*
X21150000Y-42275000D02*
X21035000Y-42160000D01*
X37437500Y-40600000D02*
X36889500Y-40600000D01*
X31400000Y-41437500D02*
X31400000Y-42077500D01*
X24175000Y-42650000D02*
X23915500Y-42390500D01*
X35270000Y-54500000D02*
X35270000Y-56380000D01*
X40675000Y-30700000D02*
X39754500Y-29779500D01*
X21035000Y-32015000D02*
X21035000Y-31270000D01*
X22000000Y-42275000D02*
X22000000Y-43062100D01*
X33400000Y-41437500D02*
X33400000Y-41437500D01*
X30225000Y-45809000D02*
X30427300Y-46011300D01*
X35270000Y-53125000D02*
X35270000Y-54500000D01*
X35825000Y-43200000D02*
X35825000Y-44050000D01*
X42410400Y-40974200D02*
X42410400Y-40971000D01*
X35270000Y-56380000D02*
X34850000Y-56800000D01*
X38652300Y-40775000D02*
X38145400Y-41282000D01*
X36523500Y-51800000D02*
X35270000Y-53053500D01*
X40675000Y-32200000D02*
X39900000Y-32200000D01*
X29862500Y-37000000D02*
X29087500Y-37775000D01*
X37725000Y-32350000D02*
X37725000Y-33200000D01*
X17320500Y-50469100D02*
X19423800Y-52572400D01*
X22000000Y-42275000D02*
X23465000Y-42275000D01*
X31416700Y-27310500D02*
X38412400Y-27310500D01*
X36300000Y-33200000D02*
X36900000Y-33200000D01*
X31575000Y-41362500D02*
X31575000Y-41287500D01*
X22805000Y-31270000D02*
X21035000Y-31270000D01*
X38412400Y-27310500D02*
X40675000Y-29573200D01*
X21035000Y-42160000D02*
X21035000Y-32015000D01*
X31520100Y-41437500D02*
X31585000Y-41372500D01*
X30225000Y-43200000D02*
X30225000Y-45000000D01*
X30012500Y-40600000D02*
X29548900Y-40600000D01*
X30225000Y-45000000D02*
X30225000Y-45756700D01*
X35863400Y-39573900D02*
X35863400Y-36218100D01*
X28675000Y-25200000D02*
X27900000Y-25200000D01*
X35270000Y-53053500D02*
X35270000Y-53053500D01*
X31650000Y-41437500D02*
X31575000Y-41362500D01*
X35825000Y-44050000D02*
X35825000Y-44121500D01*
X40675000Y-33161600D02*
X40675000Y-32200000D01*
X30225000Y-41826900D02*
X30225000Y-42350000D01*
X22961600Y-52572400D02*
X27212500Y-48321500D01*
X33528600Y-42286500D02*
X33800000Y-42286500D01*
X25435000Y-29700900D02*
X23865900Y-31270000D01*
X33034000Y-45910800D02*
X33705700Y-46582500D01*
X30562500Y-37000000D02*
X30012500Y-37000000D01*
X23465000Y-42275000D02*
X23490000Y-42250000D01*
X27828500Y-25200000D02*
X27828500Y-25200000D01*
X40675000Y-29573200D02*
X40675000Y-30700000D01*
X37725000Y-33787500D02*
X37725000Y-34086500D01*
X31400000Y-41437500D02*
X30925000Y-41437500D01*
X27107500Y-25200000D02*
X25435000Y-26872600D01*
X37987500Y-40600000D02*
X39025000Y-40600000D01*
X38700000Y-40537500D02*
X38925000Y-40762500D01*
X23865900Y-31270000D02*
X22805000Y-31270000D01*
X35863400Y-36218100D02*
X35757300Y-36112000D01*
X25435000Y-26872600D02*
X25435000Y-29700900D01*
X29548900Y-40600000D02*
X29373900Y-40775000D01*
X40675000Y-30700000D02*
X40675000Y-32200000D01*
X29087500Y-37775000D02*
X28500000Y-37775000D01*
X37725000Y-33200000D02*
X36875400Y-32350400D01*
X29087500Y-40775000D02*
X28500000Y-40775000D01*
X33800000Y-35279900D02*
X33800000Y-34562500D01*
X36889500Y-40600000D02*
X35863400Y-39573900D01*
X35757300Y-36112000D02*
X34632100Y-36112000D01*
X31400000Y-41437500D02*
X31520100Y-41437500D01*
X37400000Y-51800000D02*
X36523500Y-51800000D01*
X27212500Y-48250000D02*
X27212500Y-48321500D01*
X41330400Y-37245400D02*
X41330400Y-33817100D01*
X39025000Y-40600000D02*
X39200000Y-40775000D01*
X40800900Y-37775000D02*
X41330400Y-37245400D01*
X37875000Y-32200000D02*
X37725000Y-32350000D01*
X33400000Y-42157900D02*
X33528600Y-42286500D01*
X30862200Y-41437500D02*
X30319200Y-40894500D01*
X17320500Y-47741700D02*
X17320500Y-50469100D01*
X41330400Y-33817100D02*
X40675000Y-33161600D01*
X33400000Y-41437500D02*
X33800000Y-41437500D01*
X35270000Y-53053500D02*
X35270000Y-53125000D01*
X41429900Y-48545100D02*
X38175000Y-51800000D01*
X23915500Y-42390500D02*
X23789500Y-42390500D01*
X35825000Y-44150000D02*
X35825000Y-45000000D01*
X30331100Y-45862800D02*
X30835500Y-45862800D01*
X28500000Y-37775000D02*
X29548900Y-38823900D01*
X24175000Y-43500000D02*
X24175000Y-42650000D01*
X35825000Y-45833900D02*
X35825000Y-45000000D01*
X30225000Y-42350000D02*
X30225000Y-43200000D01*
X34632100Y-36112000D02*
X33800000Y-35279900D01*
X31400000Y-42077500D02*
X30835500Y-42642000D01*
X35076400Y-46582500D02*
X35825000Y-45833900D01*
X39487500Y-40762500D02*
X39500000Y-40775000D01*
X30012500Y-37000000D02*
X29862500Y-37000000D01*
X27900000Y-25200000D02*
X27828500Y-25200000D01*
X33400000Y-41437500D02*
X33400000Y-42157900D01*
X30925000Y-41437500D02*
X30862200Y-41437500D01*
X39500000Y-40775000D02*
X38652300Y-40775000D01*
%TO.N,SWDIO*%
D44*
X16965000Y-32075100D02*
X17144600Y-32254800D01*
X18550500Y-31270000D02*
X18781900Y-31270000D01*
X16965000Y-31270000D02*
X16965000Y-32075100D01*
X18781900Y-31270000D02*
X19569300Y-32057400D01*
X17144600Y-32254800D02*
X17949800Y-32254800D01*
X32181200Y-35396500D02*
X32147300Y-35396500D01*
X32600000Y-34977600D02*
X32181200Y-35396500D01*
X32147300Y-35396500D02*
X32137600Y-35406200D01*
X32600000Y-34562500D02*
X32600000Y-34977600D01*
X16965000Y-31270000D02*
X18550500Y-31270000D01*
%TO.N,QSPI_SD0*%
X23490000Y-40419500D02*
X23490000Y-40750000D01*
X35400000Y-40809500D02*
X35400000Y-40450100D01*
X23490000Y-40419500D02*
X23490000Y-39467700D01*
X23490000Y-40750000D02*
X23490000Y-40419500D01*
X35701900Y-40129500D02*
X35701900Y-40148200D01*
X23844800Y-38381000D02*
X23490000Y-38735800D01*
X35400000Y-41437500D02*
X35400000Y-40809500D01*
X23490000Y-38735800D02*
X23490000Y-40419500D01*
X35400000Y-40450100D02*
X35798700Y-40051400D01*
X35670700Y-40098200D02*
X35701900Y-40129500D01*
%TO.N,SPKR_P*%
D49*
X60000000Y-41000000D02*
X58609800Y-41000000D01*
X58609800Y-41000000D02*
X56441000Y-43168800D01*
X56441000Y-43168800D02*
X52868800Y-43168800D01*
%TO.N,USB_CC2*%
D44*
X41750000Y-62338500D02*
X41750000Y-61345000D01*
X39915000Y-64173500D02*
X41750000Y-62338500D01*
X28675000Y-59000000D02*
X28675000Y-60007600D01*
X28675000Y-60007600D02*
X32840900Y-64173500D01*
X32840900Y-64173500D02*
X39915000Y-64173500D01*
%TO.N,USB_DP_CONN*%
D50*
X39750000Y-62240000D02*
X40750000Y-62240000D01*
X40750000Y-61345000D02*
X40750000Y-60470000D01*
X40750000Y-60470000D02*
X40725000Y-60445000D01*
X40750000Y-62240000D02*
X40750000Y-61345000D01*
D47*
X38400000Y-56800000D02*
X38400000Y-57550000D01*
X41000000Y-59950000D02*
X43200000Y-59950000D01*
D50*
X40725000Y-60445000D02*
X40725000Y-60170000D01*
D47*
X40725000Y-60170000D02*
X41000000Y-59950000D01*
D50*
X39750000Y-61345000D02*
X39750000Y-62240000D01*
%TO.N,I2S_BCLK*%
D44*
X49060500Y-39360500D02*
X50250000Y-40550000D01*
X38587700Y-40065800D02*
X44583000Y-40065800D01*
X44583000Y-40065800D02*
X45288300Y-39360500D01*
X45288300Y-39360500D02*
X49060500Y-39360500D01*
X37921900Y-39400000D02*
X38587700Y-40065800D01*
X37437500Y-39400000D02*
X37921900Y-39400000D01*
%TO.N,GND*%
D51*
X41344800Y-38443300D02*
X52381400Y-38443300D01*
D47*
X36875000Y-33812500D02*
X37025000Y-33962500D01*
D51*
X31250000Y-29925000D02*
X30575000Y-30600000D01*
X36102800Y-48500000D02*
X36735300Y-47867500D01*
D52*
X21035000Y-30000000D02*
X22932800Y-30000000D01*
D47*
X35075000Y-33962500D02*
X35225000Y-33812500D01*
D51*
X32850000Y-29925000D02*
X31250000Y-29925000D01*
X31775000Y-45000000D02*
X31775000Y-46063100D01*
X52381400Y-38443300D02*
X54281600Y-40343400D01*
D47*
X35075000Y-34487500D02*
X35075000Y-33962500D01*
D51*
X39500000Y-39225000D02*
X39500000Y-39225000D01*
D47*
X35225000Y-33812500D02*
X36875000Y-33812500D01*
D51*
X35680000Y-61920000D02*
X35680000Y-60373200D01*
D47*
X35000000Y-34562500D02*
X35075000Y-34487500D01*
D53*
X26510000Y-40750000D02*
X26000000Y-40750000D01*
D54*
X31780000Y-43200000D02*
X31780000Y-45000000D01*
D53*
X25226400Y-40750000D02*
X25000000Y-40976400D01*
D51*
X40563100Y-39225000D02*
X41344800Y-38443300D01*
X34000000Y-48500000D02*
X36102800Y-48500000D01*
D53*
X26000000Y-40750000D02*
X25226400Y-40750000D01*
D51*
X39500000Y-39225000D02*
X40563100Y-39225000D01*
X44320000Y-61920000D02*
X43812100Y-61920000D01*
X33650000Y-56800000D02*
X33650000Y-57335800D01*
D47*
X37025000Y-33962500D02*
X37025000Y-34037500D01*
%TO.N,MCU_RUN*%
D44*
X22820500Y-28730000D02*
X23320000Y-28230500D01*
X26180400Y-24139600D02*
X29264600Y-24139600D01*
X30325000Y-25200000D02*
X30325000Y-25865500D01*
X30325000Y-25865500D02*
X30325000Y-27056400D01*
X27989600Y-29391800D02*
X27989600Y-33289200D01*
X27989600Y-33289200D02*
X29410400Y-34710000D01*
X29410400Y-34710000D02*
X30110900Y-34710000D01*
X21035000Y-28730000D02*
X22820500Y-28730000D01*
X29264600Y-24139600D02*
X30325000Y-25200000D01*
X23320000Y-27870500D02*
X23320000Y-27000000D01*
X32200000Y-33931600D02*
X32200000Y-34562500D01*
X30884500Y-25200000D02*
X30325000Y-25200000D01*
X30110900Y-34710000D02*
X31223700Y-33597200D01*
X31525000Y-25200000D02*
X30884500Y-25200000D01*
X31865600Y-33597200D02*
X32200000Y-33931600D01*
X30325000Y-27056400D02*
X27989600Y-29391800D01*
X31223700Y-33597200D02*
X31865600Y-33597200D01*
X23320000Y-27000000D02*
X26180400Y-24139600D01*
X23320000Y-28230500D02*
X23320000Y-27870500D01*
%TO.N,USB_DM_CONN*%
D47*
X40275000Y-60170000D02*
X39800000Y-60645000D01*
D50*
X39250000Y-61345000D02*
X39250000Y-60450000D01*
X40250000Y-60470000D02*
X40275000Y-60445000D01*
X40250000Y-60450000D02*
X40250000Y-61345000D01*
X40275000Y-60445000D02*
X40275000Y-60170000D01*
D47*
X38400000Y-60645000D02*
X38400000Y-59450000D01*
X39800000Y-60645000D02*
X38400000Y-60645000D01*
D50*
X39250000Y-60450000D02*
X40250000Y-60450000D01*
X40250000Y-61345000D02*
X40250000Y-60470000D01*
%TO.N,3V3_PWRGD*%
D44*
X40415500Y-51800000D02*
X39825000Y-51800000D01*
X37286900Y-53753100D02*
X36540000Y-54500000D01*
X37286900Y-53753100D02*
X37286900Y-53753100D01*
X36540000Y-53078100D02*
X36540000Y-53309500D01*
X39825000Y-51800000D02*
X40415500Y-51800000D01*
X40646900Y-51800000D02*
X40415500Y-51800000D01*
X36540000Y-53309500D02*
X36540000Y-54500000D01*
X40415500Y-51800000D02*
X40646900Y-51800000D01*
X40692700Y-51754200D02*
X40646900Y-51800000D01*
X37286900Y-53753100D02*
X37286900Y-53753100D01*
%TO.N,VBUS_5V*%
D47*
X49000000Y-48995600D02*
X49000000Y-50797500D01*
X46050000Y-47990300D02*
X48857200Y-50797500D01*
X48857200Y-50797500D02*
X49000000Y-50797500D01*
X46050000Y-43400000D02*
X46050000Y-44500000D01*
X40600000Y-58500000D02*
X41242500Y-58500000D01*
X41446000Y-58500000D02*
X42021700Y-57924300D01*
X51750000Y-46245600D02*
X49000000Y-48995600D01*
X31750000Y-56337400D02*
X31750000Y-56800000D01*
X46225000Y-41626800D02*
X46050000Y-41801900D01*
X54819800Y-58869800D02*
X54819800Y-56905200D01*
X50925000Y-50797500D02*
X49000000Y-50797500D01*
X31856100Y-57818900D02*
X32759000Y-57818900D01*
X46050000Y-45600000D02*
X46050000Y-47990300D01*
X49000000Y-52378200D02*
X48893900Y-52484300D01*
X31750000Y-56809900D02*
X32864400Y-57924300D01*
X31897500Y-54500000D02*
X31460000Y-54500000D01*
X32095000Y-54500000D02*
X31897500Y-54500000D01*
X31750000Y-56800000D02*
X31750000Y-57712800D01*
X51649400Y-50797500D02*
X50925000Y-50797500D01*
X31460000Y-54500000D02*
X31460000Y-56047400D01*
X32095000Y-54500000D02*
X32095000Y-54500000D01*
X46225000Y-40500000D02*
X46225000Y-41626800D01*
X31750000Y-57712800D02*
X31856100Y-57818900D01*
X32730000Y-54500000D02*
X32095000Y-54500000D01*
X39695000Y-58500000D02*
X40600000Y-58500000D01*
X56500000Y-60550000D02*
X54819800Y-58869800D01*
X54819800Y-56905200D02*
X55725000Y-56000000D01*
X47031100Y-50819900D02*
X47053500Y-50797500D01*
X51750000Y-44250000D02*
X51750000Y-46245600D01*
X47053500Y-50797500D02*
X48857200Y-50797500D01*
X51750000Y-43450000D02*
X51750000Y-44250000D01*
X31750000Y-56800000D02*
X31750000Y-56809900D01*
X55725000Y-56000000D02*
X55725000Y-54873100D01*
X55725000Y-54873100D02*
X51649400Y-50797500D01*
X46050000Y-41801900D02*
X46050000Y-43400000D01*
X41242500Y-58500000D02*
X41446000Y-58500000D01*
X31460000Y-56047400D02*
X31750000Y-56337400D01*
D45*
X51750000Y-43450000D02*
X51250000Y-43450000D01*
D47*
X48893900Y-52484300D02*
X47313200Y-52484300D01*
X46050000Y-44500000D02*
X46050000Y-45600000D01*
D46*
X40600000Y-58500000D02*
X42021700Y-57924300D01*
D47*
X49000000Y-50797500D02*
X49000000Y-52378200D01*
X39623500Y-58500000D02*
X39695000Y-58500000D01*
X40600000Y-58500000D02*
X41446000Y-58500000D01*
%TO.N,USB_DP*%
D44*
X33000000Y-40809500D02*
X33000000Y-40628900D01*
X39003100Y-54678100D02*
X39825000Y-55500000D01*
X33000000Y-41437500D02*
X33000000Y-40809500D01*
X33000000Y-40628900D02*
X33025400Y-40603500D01*
X39003100Y-54678100D02*
X39825000Y-55500000D01*
X33000000Y-40688200D02*
X33119800Y-40568400D01*
%TO.N,SPKR_N*%
D47*
X55751500Y-42250000D02*
X52987500Y-42250000D01*
X52987500Y-42250000D02*
X52450000Y-42250000D01*
X55786000Y-42284500D02*
X55751500Y-42250000D01*
%TO.N,USB_DP_PROTECTED*%
D46*
X40225000Y-57550000D02*
X38175000Y-55500000D01*
X40600000Y-57550000D02*
X40225000Y-57550000D01*
%TO.N,GND*%
D47*
X37025000Y-33962500D02*
X37025000Y-34037500D01*
X36875000Y-33812500D02*
X37025000Y-33962500D01*
X35225000Y-33812500D02*
X36875000Y-33812500D01*
X35075000Y-33962500D02*
X35225000Y-33812500D01*
X35075000Y-34487500D02*
X35075000Y-33962500D01*
X35000000Y-34562500D02*
X35075000Y-34487500D01*
%TO.N,PDM_CLK*%
D45*
X37437500Y-37800000D02*
X36850000Y-37800000D01*
X36850000Y-37800000D02*
X36603500Y-37800000D01*
D44*
X22990500Y-49748000D02*
X22390500Y-49748000D01*
X22390500Y-49748000D02*
X21837500Y-49748000D01*
%TO.N,PDM_DATA*%
D45*
X37437500Y-38200000D02*
X36948800Y-38200000D01*
X36948800Y-38200000D02*
X36600000Y-38548800D01*
D44*
X20162500Y-47874500D02*
X20162500Y-48474500D01*
X20162500Y-48474500D02*
X20162500Y-48926000D01*
%TO.N,3V3*%
D47*
X37437500Y-37000000D02*
X37437500Y-37000000D01*
X33763400Y-43848900D02*
X33763400Y-41474100D01*
X33913400Y-43998900D02*
X33763400Y-43848900D01*
X35713400Y-43998900D02*
X33913400Y-43998900D01*
X36313400Y-39423900D02*
X36688400Y-39798900D01*
X35938400Y-39423900D02*
X36313400Y-39423900D01*
X35863400Y-39498900D02*
X35938400Y-39423900D01*
X30560000Y-40600000D02*
X30319200Y-40894500D01*
D55*
X38500000Y-36500000D02*
X38500000Y-36000000D01*
X38000000Y-37000000D02*
X38500000Y-36500000D01*
%TO.N,GND*%
D47*
X34025000Y-37975000D02*
X34000000Y-38000000D01*
X34025000Y-36212500D02*
X34025000Y-37975000D01*
X37025000Y-33962500D02*
X37025000Y-34037500D01*
X36875000Y-33812500D02*
X37025000Y-33962500D01*
X35225000Y-33812500D02*
X36875000Y-33812500D01*
X35075000Y-33962500D02*
X35225000Y-33812500D01*
X35075000Y-34487500D02*
X35075000Y-33962500D01*
X35000000Y-34562500D02*
X35075000Y-34487500D01*
%TO.N,3V3*%
X37725000Y-36995000D02*
X37720000Y-37000000D01*
X37725000Y-36960600D02*
X37725000Y-36995000D01*
X37800000Y-36885600D02*
X37725000Y-36960600D01*
X38025000Y-36885600D02*
X37800000Y-36885600D01*
X38025000Y-36810600D02*
X38025000Y-36885600D01*
X38175000Y-36660600D02*
X38025000Y-36810600D01*
X38175000Y-36585600D02*
X38175000Y-36660600D01*
D55*
X37720000Y-37000000D02*
X38000000Y-37000000D01*
X37440000Y-37000000D02*
X37720000Y-37000000D01*
D47*
X33810000Y-32730400D02*
X33800000Y-32740400D01*
X33800000Y-32740400D02*
X33800000Y-34012500D01*
X33800000Y-34012500D02*
X33800000Y-34562500D01*
%TO.N,3V3_PWRGD*%
D45*
X38332100Y-35208900D02*
X38332100Y-35725600D01*
X38332100Y-35725600D02*
X38143400Y-35914200D01*
X38143400Y-35914200D02*
X38143400Y-36081600D01*
X38143400Y-36081600D02*
X38025000Y-36200000D01*
X38025000Y-36200000D02*
X37437500Y-36200000D01*
D44*
X41424500Y-50200500D02*
X39825000Y-51800000D01*
%TD*%
%TA.AperFunction,Conductor*%
%TO.N,GND*%
G36*
X29005000Y-33988000D02*
G01*
X28236000Y-33218000D01*
X28213000Y-33163000D01*
X28213000Y-31138000D01*
X28409000Y-31066000D01*
X28486000Y-31157000D01*
X28493000Y-31164000D01*
X28513000Y-31181000D01*
X28514000Y-31181000D01*
X28518000Y-31184000D01*
X28528000Y-31190000D01*
X28529000Y-31190000D01*
X28555000Y-31207000D01*
X28592000Y-31219000D01*
X28597000Y-31220000D01*
X28621000Y-31223000D01*
X28636000Y-31225000D01*
X29102000Y-31225000D01*
X29157000Y-31248000D01*
X29898000Y-31990000D01*
X29821000Y-32175000D01*
X29036000Y-32175000D01*
X29021000Y-32177000D01*
X28997000Y-32180000D01*
X28992000Y-32181000D01*
X28955000Y-32193000D01*
X28929000Y-32210000D01*
X28928000Y-32210000D01*
X28916000Y-32218000D01*
X28912000Y-32220000D01*
X28891000Y-32238000D01*
X28886000Y-32243000D01*
X28867000Y-32266000D01*
X28860000Y-32278000D01*
X28860000Y-32279000D01*
X28843000Y-32305000D01*
X28830000Y-32346000D01*
X28827000Y-32371000D01*
X28825000Y-32387000D01*
X28825000Y-33218000D01*
X28827000Y-33229000D01*
X28829000Y-33248000D01*
X28830000Y-33250000D01*
X28830000Y-33253000D01*
X28832000Y-33262000D01*
X28843000Y-33294000D01*
X28844000Y-33297000D01*
X28860000Y-33321000D01*
X28860000Y-33322000D01*
X28871000Y-33339000D01*
X28886000Y-33357000D01*
X28893000Y-33364000D01*
X28914000Y-33381000D01*
X28918000Y-33384000D01*
X28928000Y-33390000D01*
X28929000Y-33390000D01*
X28955000Y-33407000D01*
X28992000Y-33419000D01*
X28996000Y-33420000D01*
X29077000Y-33431000D01*
X29151000Y-33516000D01*
X29151000Y-33669000D01*
X29152000Y-33673000D01*
X29152000Y-33685000D01*
X29158000Y-33708000D01*
X29159000Y-33716000D01*
X29161000Y-33729000D01*
X29163000Y-33733000D01*
X29167000Y-33743000D01*
X29207000Y-33863000D01*
X29005000Y-33988000D01*
G37*
%TD.AperFunction*%
%TA.AperFunction,Conductor*%
G36*
X39789000Y-63950000D02*
G01*
X37774000Y-63950000D01*
X37704000Y-63747000D01*
X37789000Y-63682000D01*
X38917000Y-62555000D01*
X38924000Y-62546000D01*
X38931000Y-62535000D01*
X38934000Y-62530000D01*
X38950000Y-62507000D01*
X38954000Y-62497000D01*
X38956000Y-62494000D01*
X38961000Y-62483000D01*
X38962000Y-62476000D01*
X38964000Y-62466000D01*
X38970000Y-62446000D01*
X38971000Y-62440000D01*
X38971000Y-62435000D01*
X38972000Y-62424000D01*
X38972000Y-62421000D01*
X38973000Y-62408000D01*
X38973000Y-62179000D01*
X38996000Y-62124000D01*
X39080000Y-62040000D01*
X39135000Y-62017000D01*
X39415000Y-62017000D01*
X39503000Y-62105000D01*
X39503000Y-62252000D01*
X39504000Y-62257000D01*
X39504000Y-62272000D01*
X39508000Y-62285000D01*
X39511000Y-62296000D01*
X39513000Y-62310000D01*
X39515000Y-62315000D01*
X39521000Y-62332000D01*
X39522000Y-62337000D01*
X39523000Y-62339000D01*
X39528000Y-62346000D01*
X39532000Y-62354000D01*
X39538000Y-62367000D01*
X39542000Y-62374000D01*
X39555000Y-62390000D01*
X39561000Y-62398000D01*
X39562000Y-62399000D01*
X39569000Y-62405000D01*
X39576000Y-62413000D01*
X39587000Y-62426000D01*
X39601000Y-62436000D01*
X39610000Y-62444000D01*
X39611000Y-62445000D01*
X39616000Y-62447000D01*
X39623000Y-62451000D01*
X39644000Y-62464000D01*
X39655000Y-62467000D01*
X39672000Y-62474000D01*
X39676000Y-62477000D01*
X39695000Y-62480000D01*
X39701000Y-62481000D01*
X39712000Y-62484000D01*
X39721000Y-62484000D01*
X39738000Y-62486000D01*
X39740000Y-62487000D01*
X40759000Y-62487000D01*
X40770000Y-62486000D01*
X40780000Y-62486000D01*
X40795000Y-62482000D01*
X40806000Y-62479000D01*
X40820000Y-62477000D01*
X40821000Y-62477000D01*
X40828000Y-62474000D01*
X40837000Y-62471000D01*
X40843000Y-62470000D01*
X40847000Y-62468000D01*
X40852000Y-62464000D01*
X40861000Y-62459000D01*
X40880000Y-62450000D01*
X40883000Y-62448000D01*
X40893000Y-62440000D01*
X40905000Y-62432000D01*
X40908000Y-62428000D01*
X40918000Y-62418000D01*
X40935000Y-62405000D01*
X40942000Y-62395000D01*
X40952000Y-62382000D01*
X40953000Y-62381000D01*
X40961000Y-62367000D01*
X40974000Y-62347000D01*
X40977000Y-62335000D01*
X40984000Y-62318000D01*
X40986000Y-62315000D01*
X40990000Y-62295000D01*
X40991000Y-62289000D01*
X40994000Y-62278000D01*
X40994000Y-62269000D01*
X40996000Y-62256000D01*
X40997000Y-62243000D01*
X40997000Y-62105000D01*
X41085000Y-62017000D01*
X41365000Y-62017000D01*
X41420000Y-62040000D01*
X41514000Y-62134000D01*
X41514000Y-62258000D01*
X39844000Y-63927000D01*
X39789000Y-63950000D01*
G37*
%TD.AperFunction*%
%TA.AperFunction,Conductor*%
G36*
X42548000Y-57988000D02*
G01*
X42381000Y-57940000D01*
X42349000Y-57808000D01*
X42318000Y-57744000D01*
X42316000Y-57740000D01*
X42268000Y-57678000D01*
X42209000Y-57632000D01*
X42204000Y-57629000D01*
X42139000Y-57598000D01*
X42138000Y-57597000D01*
X42066000Y-57580000D01*
X41989000Y-57578000D01*
X41893000Y-57602000D01*
X41362000Y-57817000D01*
X41230000Y-57728000D01*
X41230000Y-57125000D01*
X40327000Y-57125000D01*
X40272000Y-57102000D01*
X39430000Y-56260000D01*
X39507000Y-56075000D01*
X40158000Y-56075000D01*
X40168000Y-56073000D01*
X40171000Y-56073000D01*
X40191000Y-56071000D01*
X40196000Y-56070000D01*
X40223000Y-56061000D01*
X40246000Y-56048000D01*
X40257000Y-56041000D01*
X40275000Y-56026000D01*
X40293000Y-56004000D01*
X40311000Y-55974000D01*
X40320000Y-55946000D01*
X40321000Y-55941000D01*
X40322000Y-55929000D01*
X40322000Y-55924000D01*
X40325000Y-55908000D01*
X40325000Y-55092000D01*
X40322000Y-55076000D01*
X40322000Y-55071000D01*
X40321000Y-55059000D01*
X40320000Y-55054000D01*
X40312000Y-55028000D01*
X40299000Y-55006000D01*
X40293000Y-54996000D01*
X40275000Y-54975000D01*
X40259000Y-54961000D01*
X40246000Y-54952000D01*
X40223000Y-54939000D01*
X40196000Y-54930000D01*
X40191000Y-54929000D01*
X40171000Y-54927000D01*
X40168000Y-54927000D01*
X40158000Y-54925000D01*
X39603000Y-54925000D01*
X39548000Y-54902000D01*
X39424000Y-54778000D01*
X39401000Y-54723000D01*
X39401000Y-54627000D01*
X39365000Y-54493000D01*
X39455000Y-54375000D01*
X40158000Y-54375000D01*
X40168000Y-54373000D01*
X40171000Y-54373000D01*
X40191000Y-54371000D01*
X40196000Y-54370000D01*
X40223000Y-54361000D01*
X40246000Y-54348000D01*
X40257000Y-54341000D01*
X40275000Y-54326000D01*
X40293000Y-54304000D01*
X40311000Y-54274000D01*
X40320000Y-54246000D01*
X40321000Y-54241000D01*
X40322000Y-54229000D01*
X40322000Y-54224000D01*
X40325000Y-54208000D01*
X40325000Y-54115000D01*
X40413000Y-54027000D01*
X40646000Y-54027000D01*
X40671000Y-54021000D01*
X40676000Y-54020000D01*
X40690000Y-54017000D01*
X40702000Y-54012000D01*
X40709000Y-54010000D01*
X40713000Y-54009000D01*
X40717000Y-54007000D01*
X40726000Y-54001000D01*
X40736000Y-53995000D01*
X40750000Y-53989000D01*
X40754000Y-53986000D01*
X40756000Y-53984000D01*
X40774000Y-53969000D01*
X40861000Y-53881000D01*
X40897000Y-53831000D01*
X40899000Y-53827000D01*
X40918000Y-53771000D01*
X40919000Y-53763000D01*
X40920000Y-53700000D01*
X40917000Y-53682000D01*
X40926000Y-53631000D01*
X40990000Y-53519000D01*
X40992000Y-53515000D01*
X41041000Y-53328000D01*
X41209000Y-53283000D01*
X42674000Y-54749000D01*
X42697000Y-54804000D01*
X42697000Y-57810000D01*
X42673000Y-57866000D01*
X42548000Y-57988000D01*
G37*
%TD.AperFunction*%
%TA.AperFunction,Conductor*%
G36*
X40249000Y-36830000D02*
G01*
X38911000Y-36830000D01*
X38830000Y-36657000D01*
X38893000Y-36581000D01*
X38943000Y-36494000D01*
X38943000Y-36493000D01*
X38969000Y-36395000D01*
X38969000Y-36289000D01*
X38944000Y-36191000D01*
X38903000Y-36120000D01*
X38893000Y-36082000D01*
X38893000Y-35949000D01*
X38869000Y-35853000D01*
X38869000Y-35851000D01*
X38816000Y-35759000D01*
X38741000Y-35684000D01*
X38646000Y-35628000D01*
X38614000Y-35508000D01*
X38698000Y-35364000D01*
X38726000Y-35259000D01*
X38726000Y-35159000D01*
X38698000Y-35055000D01*
X38648000Y-34968000D01*
X38573000Y-34893000D01*
X38486000Y-34843000D01*
X38382000Y-34814000D01*
X38282000Y-34814000D01*
X38178000Y-34843000D01*
X38091000Y-34893000D01*
X38016000Y-34968000D01*
X37966000Y-35056000D01*
X37964000Y-35061000D01*
X37942000Y-35141000D01*
X37862000Y-35203000D01*
X37061000Y-35203000D01*
X37058000Y-35204000D01*
X37031000Y-35207000D01*
X37021000Y-35210000D01*
X37000000Y-35217000D01*
X36980000Y-35227000D01*
X36971000Y-35233000D01*
X36949000Y-35244000D01*
X36928000Y-35279000D01*
X36928000Y-35280000D01*
X36924000Y-35285000D01*
X36915000Y-35304000D01*
X36910000Y-35321000D01*
X36907000Y-35333000D01*
X36904000Y-35358000D01*
X36903000Y-35361000D01*
X36903000Y-35441000D01*
X36905000Y-35454000D01*
X36908000Y-35476000D01*
X36916000Y-35500000D01*
X36918000Y-35503000D01*
X36949000Y-35552000D01*
X36953000Y-35631000D01*
X36933000Y-35671000D01*
X36929000Y-35677000D01*
X36922000Y-35688000D01*
X36888000Y-35749000D01*
X36755000Y-35777000D01*
X36705000Y-35739000D01*
X36614000Y-35687000D01*
X36615000Y-35687000D01*
X36510000Y-35659000D01*
X36412000Y-35659000D01*
X36308000Y-35687000D01*
X36303000Y-35689000D01*
X36224000Y-35735000D01*
X36219000Y-35739000D01*
X36144000Y-35812000D01*
X36144000Y-35813000D01*
X36102000Y-35886000D01*
X36102000Y-35941000D01*
X35952000Y-36027000D01*
X35849000Y-35968000D01*
X35845000Y-35965000D01*
X35822000Y-35950000D01*
X35820000Y-35949000D01*
X35816000Y-35948000D01*
X35816000Y-35949000D01*
X35762000Y-35940000D01*
X35758000Y-35939000D01*
X35755000Y-35939000D01*
X35740000Y-35940000D01*
X35552000Y-35940000D01*
X35465000Y-35795000D01*
X35525000Y-35682000D01*
X35559000Y-35648000D01*
X35642000Y-35609000D01*
X35645000Y-35606000D01*
X35694000Y-35560000D01*
X35727000Y-35500000D01*
X35728000Y-35496000D01*
X35741000Y-35433000D01*
X35732000Y-35361000D01*
X35675000Y-35233000D01*
X35764000Y-35096000D01*
X35839000Y-35096000D01*
X35849000Y-35095000D01*
X35873000Y-35093000D01*
X35897000Y-35085000D01*
X35901000Y-35083000D01*
X35952000Y-35051000D01*
X36031000Y-35047000D01*
X36071000Y-35067000D01*
X36077000Y-35071000D01*
X36081000Y-35074000D01*
X36098000Y-35082000D01*
X36100000Y-35083000D01*
X36121000Y-35090000D01*
X36131000Y-35092000D01*
X36140000Y-35094000D01*
X36144000Y-35094000D01*
X36160000Y-35096000D01*
X36239000Y-35096000D01*
X36249000Y-35095000D01*
X36273000Y-35093000D01*
X36297000Y-35085000D01*
X36301000Y-35083000D01*
X36352000Y-35051000D01*
X36431000Y-35047000D01*
X36471000Y-35067000D01*
X36477000Y-35071000D01*
X36481000Y-35074000D01*
X36498000Y-35082000D01*
X36500000Y-35083000D01*
X36521000Y-35090000D01*
X36531000Y-35092000D01*
X36540000Y-35094000D01*
X36544000Y-35094000D01*
X36560000Y-35096000D01*
X36639000Y-35096000D01*
X36649000Y-35095000D01*
X36673000Y-35093000D01*
X36697000Y-35085000D01*
X36701000Y-35083000D01*
X36708000Y-35079000D01*
X36779000Y-35008000D01*
X36781000Y-35005000D01*
X36784000Y-35000000D01*
X36793000Y-34973000D01*
X36795000Y-34954000D01*
X36796000Y-34946000D01*
X36796000Y-34185000D01*
X36794000Y-34169000D01*
X36794000Y-34166000D01*
X36793000Y-34158000D01*
X36790000Y-34146000D01*
X36785000Y-34129000D01*
X36775000Y-34109000D01*
X36769000Y-34100000D01*
X36768000Y-34099000D01*
X36750000Y-34074000D01*
X36748000Y-34072000D01*
X36734000Y-34062000D01*
X36730000Y-34060000D01*
X36722000Y-34054000D01*
X36706000Y-34044000D01*
X36697000Y-34040000D01*
X36675000Y-34033000D01*
X36654000Y-34030000D01*
X36639000Y-34028000D01*
X36561000Y-34028000D01*
X36558000Y-34029000D01*
X36531000Y-34032000D01*
X36521000Y-34035000D01*
X36500000Y-34042000D01*
X36492000Y-34046000D01*
X36469000Y-34069000D01*
X36366000Y-34081000D01*
X36304000Y-34043000D01*
X36297000Y-34040000D01*
X36275000Y-34033000D01*
X36254000Y-34030000D01*
X36239000Y-34028000D01*
X36161000Y-34028000D01*
X36158000Y-34029000D01*
X36131000Y-34032000D01*
X36121000Y-34035000D01*
X36100000Y-34042000D01*
X36092000Y-34046000D01*
X36069000Y-34069000D01*
X35966000Y-34081000D01*
X35904000Y-34043000D01*
X35897000Y-34040000D01*
X35875000Y-34033000D01*
X35854000Y-34030000D01*
X35839000Y-34028000D01*
X35761000Y-34028000D01*
X35758000Y-34029000D01*
X35731000Y-34032000D01*
X35721000Y-34035000D01*
X35700000Y-34042000D01*
X35692000Y-34046000D01*
X35669000Y-34069000D01*
X35566000Y-34081000D01*
X35504000Y-34043000D01*
X35497000Y-34040000D01*
X35475000Y-34033000D01*
X35454000Y-34030000D01*
X35439000Y-34028000D01*
X35361000Y-34028000D01*
X35358000Y-34029000D01*
X35331000Y-34032000D01*
X35321000Y-34035000D01*
X35300000Y-34042000D01*
X35298000Y-34043000D01*
X35285000Y-34050000D01*
X35275000Y-34056000D01*
X35274000Y-34057000D01*
X35248000Y-34076000D01*
X35247000Y-34077000D01*
X35237000Y-34091000D01*
X35235000Y-34095000D01*
X35228000Y-34105000D01*
X35218000Y-34121000D01*
X35215000Y-34128000D01*
X35207000Y-34154000D01*
X35205000Y-34172000D01*
X35203000Y-34193000D01*
X35203000Y-34942000D01*
X35205000Y-34954000D01*
X35207000Y-34967000D01*
X35223000Y-35013000D01*
X35162000Y-35127000D01*
X34948000Y-35185000D01*
X34825000Y-35065000D01*
X34845000Y-34982000D01*
X34848000Y-34960000D01*
X34850000Y-34949000D01*
X34850000Y-34181000D01*
X34848000Y-34165000D01*
X34846000Y-34146000D01*
X34827000Y-34084000D01*
X34823000Y-34061000D01*
X34823000Y-33942000D01*
X34846000Y-33887000D01*
X36512000Y-32222000D01*
X36682000Y-32270000D01*
X36718000Y-32426000D01*
X36720000Y-32429000D01*
X36745000Y-32462000D01*
X37126000Y-32843000D01*
X37049000Y-33028000D01*
X36294000Y-33028000D01*
X36287000Y-33029000D01*
X36233000Y-33040000D01*
X36230000Y-33041000D01*
X36179000Y-33076000D01*
X36171000Y-33084000D01*
X36138000Y-33137000D01*
X36127000Y-33205000D01*
X36128000Y-33207000D01*
X36143000Y-33273000D01*
X36182000Y-33328000D01*
X36241000Y-33363000D01*
X36292000Y-33371000D01*
X37090000Y-33371000D01*
X37178000Y-33459000D01*
X37178000Y-33611000D01*
X37180000Y-33625000D01*
X37182000Y-33641000D01*
X37184000Y-33652000D01*
X37190000Y-33668000D01*
X37205000Y-33694000D01*
X37215000Y-33708000D01*
X37225000Y-33719000D01*
X37231000Y-33725000D01*
X37242000Y-33735000D01*
X37267000Y-33752000D01*
X37281000Y-33760000D01*
X37333000Y-33789000D01*
X37372000Y-33884000D01*
X37331000Y-34037000D01*
X37331000Y-34136000D01*
X37360000Y-34242000D01*
X37407000Y-34326000D01*
X37409000Y-34328000D01*
X37477000Y-34397000D01*
X37486000Y-34404000D01*
X37575000Y-34455000D01*
X37672000Y-34480000D01*
X37778000Y-34480000D01*
X37875000Y-34455000D01*
X37964000Y-34404000D01*
X37973000Y-34397000D01*
X38041000Y-34328000D01*
X38042000Y-34327000D01*
X38093000Y-34236000D01*
X38093000Y-34235000D01*
X38118000Y-34143000D01*
X38118000Y-34034000D01*
X38077000Y-33878000D01*
X38126000Y-33777000D01*
X38176000Y-33756000D01*
X38194000Y-33745000D01*
X38208000Y-33735000D01*
X38219000Y-33725000D01*
X38225000Y-33719000D01*
X38235000Y-33708000D01*
X38245000Y-33694000D01*
X38260000Y-33668000D01*
X38266000Y-33652000D01*
X38268000Y-33641000D01*
X38270000Y-33627000D01*
X38271000Y-33616000D01*
X38271000Y-32786000D01*
X38268000Y-32759000D01*
X38267000Y-32751000D01*
X38260000Y-32732000D01*
X38247000Y-32710000D01*
X38236000Y-32693000D01*
X38225000Y-32681000D01*
X38220000Y-32676000D01*
X38208000Y-32665000D01*
X38187000Y-32651000D01*
X38087000Y-32594000D01*
X38147000Y-32371000D01*
X40091000Y-32371000D01*
X40179000Y-32459000D01*
X40179000Y-32608000D01*
X40180000Y-32627000D01*
X40182000Y-32641000D01*
X40184000Y-32652000D01*
X40190000Y-32668000D01*
X40204000Y-32692000D01*
X40215000Y-32708000D01*
X40225000Y-32719000D01*
X40231000Y-32725000D01*
X40242000Y-32735000D01*
X40256000Y-32745000D01*
X40282000Y-32760000D01*
X40301000Y-32767000D01*
X40309000Y-32768000D01*
X40330000Y-32770000D01*
X40342000Y-32771000D01*
X40416000Y-32771000D01*
X40504000Y-32859000D01*
X40504000Y-33156000D01*
X40503000Y-33169000D01*
X40503000Y-33174000D01*
X40512000Y-33212000D01*
X40512000Y-33216000D01*
X40515000Y-33230000D01*
X40520000Y-33240000D01*
X40547000Y-33275000D01*
X40550000Y-33280000D01*
X40555000Y-33288000D01*
X40561000Y-33292000D01*
X40573000Y-33302000D01*
X41136000Y-33866000D01*
X41159000Y-33921000D01*
X41159000Y-36404000D01*
X41009000Y-36490000D01*
X40885000Y-36419000D01*
X40886000Y-36419000D01*
X40782000Y-36391000D01*
X40681000Y-36391000D01*
X40580000Y-36418000D01*
X40575000Y-36420000D01*
X40492000Y-36468000D01*
X40490000Y-36469000D01*
X40418000Y-36543000D01*
X40364000Y-36633000D01*
X40364000Y-36634000D01*
X40330000Y-36766000D01*
X40249000Y-36830000D01*
G37*
%TD.AperFunction*%
%TA.AperFunction,Conductor*%
G36*
X36019000Y-49916000D02*
G01*
X32235000Y-49916000D01*
X32180000Y-49893000D01*
X31790000Y-49502000D01*
X31767000Y-49447000D01*
X31767000Y-48778000D01*
X31762000Y-48754000D01*
X31758000Y-48734000D01*
X31756000Y-48730000D01*
X31751000Y-48716000D01*
X31749000Y-48707000D01*
X31743000Y-48699000D01*
X31735000Y-48687000D01*
X31727000Y-48670000D01*
X31726000Y-48668000D01*
X31713000Y-48655000D01*
X31708000Y-48648000D01*
X30517000Y-47456000D01*
X30594000Y-47271000D01*
X35390000Y-47271000D01*
X35397000Y-47270000D01*
X35412000Y-47270000D01*
X35427000Y-47266000D01*
X35430000Y-47266000D01*
X35447000Y-47263000D01*
X35461000Y-47258000D01*
X35470000Y-47254000D01*
X35477000Y-47252000D01*
X35484000Y-47247000D01*
X35495000Y-47241000D01*
X35517000Y-47230000D01*
X35533000Y-47214000D01*
X35542000Y-47208000D01*
X36740000Y-46011000D01*
X36747000Y-46003000D01*
X36757000Y-45986000D01*
X36759000Y-45982000D01*
X36771000Y-45966000D01*
X36779000Y-45946000D01*
X36782000Y-45942000D01*
X36786000Y-45923000D01*
X36788000Y-45917000D01*
X36792000Y-45902000D01*
X36794000Y-45876000D01*
X36794000Y-45873000D01*
X36795000Y-45869000D01*
X36795000Y-42619000D01*
X36793000Y-42612000D01*
X36791000Y-42602000D01*
X36786000Y-42573000D01*
X36784000Y-42569000D01*
X36779000Y-42555000D01*
X36777000Y-42548000D01*
X36763000Y-42527000D01*
X36756000Y-42511000D01*
X36753000Y-42506000D01*
X36744000Y-42497000D01*
X36736000Y-42487000D01*
X36735000Y-42485000D01*
X36460000Y-42210000D01*
X36537000Y-42025000D01*
X36644000Y-42025000D01*
X36661000Y-42023000D01*
X36687000Y-42020000D01*
X36721000Y-42007000D01*
X36722000Y-42007000D01*
X36742000Y-41996000D01*
X36754000Y-41989000D01*
X36764000Y-41981000D01*
X36766000Y-41980000D01*
X36788000Y-41965000D01*
X36807000Y-41937000D01*
X36808000Y-41935000D01*
X36819000Y-41919000D01*
X36820000Y-41918000D01*
X36831000Y-41901000D01*
X36834000Y-41895000D01*
X36834000Y-41894000D01*
X36845000Y-41859000D01*
X36848000Y-41835000D01*
X36850000Y-41824000D01*
X36850000Y-41749000D01*
X36938000Y-41661000D01*
X37255000Y-41661000D01*
X37310000Y-41684000D01*
X37917000Y-42293000D01*
X37940000Y-42348000D01*
X37940000Y-47996000D01*
X37917000Y-48051000D01*
X36074000Y-49893000D01*
X36019000Y-49916000D01*
G37*
%TD.AperFunction*%
%TA.AperFunction,Conductor*%
G36*
X44878000Y-67387000D02*
G01*
X43755000Y-67387000D01*
X43700000Y-67364000D01*
X41993017Y-65659000D01*
X44023000Y-65659000D01*
X44023000Y-66541000D01*
X44042000Y-66612000D01*
X44083000Y-66684000D01*
X44136000Y-66737000D01*
X44208000Y-66778000D01*
X44279000Y-66797000D01*
X44361000Y-66797000D01*
X44432000Y-66778000D01*
X44504000Y-66737000D01*
X44557000Y-66684000D01*
X44598000Y-66612000D01*
X44617000Y-66541000D01*
X44617000Y-65659000D01*
X44599000Y-65589000D01*
X44559000Y-65519000D01*
X44557000Y-65516000D01*
X44504000Y-65463000D01*
X44432000Y-65422000D01*
X44361000Y-65403000D01*
X44279000Y-65403000D01*
X44208000Y-65422000D01*
X44136000Y-65463000D01*
X44083000Y-65516000D01*
X44081000Y-65519000D01*
X44041000Y-65589000D01*
X44023000Y-65659000D01*
X41993017Y-65659000D01*
X41978000Y-65644000D01*
X41955000Y-65589000D01*
X41955000Y-64367000D01*
X41977000Y-64312000D01*
X42072000Y-64215000D01*
X42074000Y-64213000D01*
X42126000Y-64122000D01*
X42153000Y-64022000D01*
X42153000Y-63919000D01*
X42108000Y-63747000D01*
X42307000Y-63633000D01*
X42408000Y-63734000D01*
X42415000Y-63742000D01*
X42426000Y-63748000D01*
X42434000Y-63753000D01*
X42461000Y-63772000D01*
X42469000Y-63774000D01*
X42476000Y-63778000D01*
X42497000Y-63781000D01*
X42532000Y-63790000D01*
X42541000Y-63789000D01*
X44818000Y-63789000D01*
X44828000Y-63790000D01*
X44839000Y-63791000D01*
X44875000Y-63782000D01*
X44882000Y-63780000D01*
X44897000Y-63777000D01*
X44898000Y-63777000D01*
X44898000Y-63776000D01*
X44911000Y-63770000D01*
X44925000Y-63761000D01*
X44930000Y-63758000D01*
X44955000Y-63744000D01*
X44961000Y-63739000D01*
X49144000Y-59554000D01*
X49149000Y-59549000D01*
X49152000Y-59547000D01*
X49152000Y-59546000D01*
X49157000Y-59537000D01*
X49161000Y-59531000D01*
X49195000Y-59481000D01*
X49261000Y-59447000D01*
X50761000Y-59447000D01*
X50849000Y-59535000D01*
X50849000Y-61415000D01*
X50826000Y-61470000D01*
X44933000Y-67364000D01*
X44878000Y-67387000D01*
G37*
%TD.AperFunction*%
%TA.AperFunction,Conductor*%
G36*
X37511000Y-63295000D02*
G01*
X35344000Y-63295000D01*
X35289000Y-63272000D01*
X34421000Y-62403000D01*
X34398000Y-62348000D01*
X34398000Y-61329000D01*
X35383000Y-61329000D01*
X35383000Y-62512000D01*
X35402000Y-62583000D01*
X35443000Y-62654000D01*
X35496000Y-62707000D01*
X35568000Y-62748000D01*
X35639000Y-62767000D01*
X35721000Y-62767000D01*
X35792000Y-62748000D01*
X35864000Y-62707000D01*
X35917000Y-62654000D01*
X35958000Y-62583000D01*
X35977000Y-62512000D01*
X35977000Y-61329000D01*
X35958000Y-61258000D01*
X35919000Y-61189000D01*
X35917000Y-61186000D01*
X35864000Y-61133000D01*
X35792000Y-61092000D01*
X35721000Y-61073000D01*
X35639000Y-61073000D01*
X35568000Y-61092000D01*
X35496000Y-61133000D01*
X35443000Y-61186000D01*
X35441000Y-61189000D01*
X35402000Y-61258000D01*
X35383000Y-61329000D01*
X34398000Y-61329000D01*
X34398000Y-59215000D01*
X34473000Y-59130000D01*
X34553000Y-59120000D01*
X34558000Y-59119000D01*
X34594000Y-59107000D01*
X34595000Y-59107000D01*
X34621000Y-59090000D01*
X34622000Y-59090000D01*
X34632000Y-59084000D01*
X34636000Y-59081000D01*
X34657000Y-59064000D01*
X34664000Y-59057000D01*
X34681000Y-59037000D01*
X34690000Y-59022000D01*
X34690000Y-59021000D01*
X34704000Y-59000000D01*
X34707000Y-58994000D01*
X34718000Y-58962000D01*
X34721000Y-58948000D01*
X34723000Y-58932000D01*
X34725000Y-58914000D01*
X34725000Y-58086000D01*
X34723000Y-58071000D01*
X34720000Y-58047000D01*
X34707000Y-58005000D01*
X34690000Y-57979000D01*
X34690000Y-57978000D01*
X34682000Y-57965000D01*
X34664000Y-57943000D01*
X34661000Y-57940000D01*
X34637000Y-57919000D01*
X34636000Y-57919000D01*
X34634000Y-57918000D01*
X34622000Y-57910000D01*
X34621000Y-57910000D01*
X34509000Y-57839000D01*
X34571000Y-57622000D01*
X35250000Y-57622000D01*
X35270000Y-57620000D01*
X35293000Y-57615000D01*
X35295000Y-57614000D01*
X35299000Y-57613000D01*
X35318000Y-57608000D01*
X35342000Y-57595000D01*
X35343000Y-57594000D01*
X35365000Y-57581000D01*
X35385000Y-57562000D01*
X35404000Y-57542000D01*
X35408000Y-57537000D01*
X35417000Y-57522000D01*
X35432000Y-57496000D01*
X35438000Y-57477000D01*
X35439000Y-57471000D01*
X35439000Y-57470000D01*
X35445000Y-57444000D01*
X35446000Y-57423000D01*
X35446000Y-56181000D01*
X35445000Y-56159000D01*
X35443000Y-56149000D01*
X35441000Y-56131000D01*
X35441000Y-55685000D01*
X35529000Y-55597000D01*
X35691000Y-55597000D01*
X35691000Y-53404000D01*
X35529000Y-53404000D01*
X35441000Y-53316000D01*
X35441000Y-53157000D01*
X35464000Y-53102000D01*
X36572000Y-51995000D01*
X36627000Y-51972000D01*
X37590000Y-51972000D01*
X37678000Y-52060000D01*
X37678000Y-52213000D01*
X37680000Y-52225000D01*
X37682000Y-52241000D01*
X37684000Y-52250000D01*
X37690000Y-52268000D01*
X37705000Y-52294000D01*
X37715000Y-52308000D01*
X37725000Y-52319000D01*
X37731000Y-52325000D01*
X37742000Y-52335000D01*
X37756000Y-52345000D01*
X37782000Y-52360000D01*
X37801000Y-52367000D01*
X37807000Y-52368000D01*
X37825000Y-52370000D01*
X37841000Y-52372000D01*
X38111000Y-52372000D01*
X38188000Y-52557000D01*
X37922000Y-52822000D01*
X37921000Y-52824000D01*
X37914000Y-52831000D01*
X37899000Y-52851000D01*
X37897000Y-52853000D01*
X37881000Y-52874000D01*
X37876000Y-52882000D01*
X37873000Y-52889000D01*
X37869000Y-52895000D01*
X37857000Y-52921000D01*
X37856000Y-52922000D01*
X37847000Y-52941000D01*
X37843000Y-52956000D01*
X37840000Y-52964000D01*
X37838000Y-52973000D01*
X37827000Y-53021000D01*
X37827000Y-53037000D01*
X37826000Y-53050000D01*
X37826000Y-53052000D01*
X37825000Y-53062000D01*
X37825000Y-53164000D01*
X37787000Y-53232000D01*
X37746000Y-53257000D01*
X37741000Y-53261000D01*
X37725000Y-53275000D01*
X37707000Y-53296000D01*
X37701000Y-53307000D01*
X37687000Y-53330000D01*
X37684000Y-53335000D01*
X37661000Y-53394000D01*
X37532000Y-53439000D01*
X37439000Y-53386000D01*
X37340000Y-53360000D01*
X37233000Y-53360000D01*
X37111000Y-53391000D01*
X37035000Y-53370000D01*
X37015000Y-53350000D01*
X36997000Y-53350000D01*
X36906000Y-53234000D01*
X36933000Y-53131000D01*
X36933000Y-53026000D01*
X36908000Y-52928000D01*
X36855000Y-52836000D01*
X36781000Y-52762000D01*
X36690000Y-52710000D01*
X36593000Y-52685000D01*
X36487000Y-52685000D01*
X36390000Y-52710000D01*
X36299000Y-52762000D01*
X36225000Y-52836000D01*
X36174000Y-52925000D01*
X36146000Y-53030000D01*
X36146000Y-53128000D01*
X36174000Y-53233000D01*
X36084000Y-53350000D01*
X36065000Y-53350000D01*
X36065000Y-55650000D01*
X37015000Y-55650000D01*
X37015000Y-54373000D01*
X37038000Y-54318000D01*
X37185000Y-54171000D01*
X37240000Y-54148000D01*
X37337000Y-54148000D01*
X37440000Y-54119000D01*
X37530000Y-54069000D01*
X37679000Y-54156000D01*
X37679000Y-54241000D01*
X37680000Y-54246000D01*
X37689000Y-54274000D01*
X37701000Y-54294000D01*
X37705000Y-54301000D01*
X37707000Y-54304000D01*
X37725000Y-54326000D01*
X37743000Y-54341000D01*
X37754000Y-54348000D01*
X37777000Y-54361000D01*
X37804000Y-54370000D01*
X37809000Y-54371000D01*
X37829000Y-54373000D01*
X37832000Y-54373000D01*
X37842000Y-54375000D01*
X38552000Y-54375000D01*
X38642000Y-54492000D01*
X38606000Y-54627000D01*
X38606000Y-54727000D01*
X38626000Y-54810000D01*
X38536000Y-54925000D01*
X37842000Y-54925000D01*
X37832000Y-54927000D01*
X37829000Y-54927000D01*
X37809000Y-54929000D01*
X37804000Y-54930000D01*
X37777000Y-54939000D01*
X37754000Y-54952000D01*
X37741000Y-54961000D01*
X37725000Y-54975000D01*
X37707000Y-54996000D01*
X37701000Y-55006000D01*
X37688000Y-55028000D01*
X37680000Y-55054000D01*
X37679000Y-55059000D01*
X37677000Y-55079000D01*
X37677000Y-55082000D01*
X37675000Y-55092000D01*
X37675000Y-55908000D01*
X37678000Y-55924000D01*
X37678000Y-55929000D01*
X37679000Y-55941000D01*
X37680000Y-55946000D01*
X37689000Y-55974000D01*
X37701000Y-55994000D01*
X37705000Y-56001000D01*
X37707000Y-56004000D01*
X37725000Y-56026000D01*
X37743000Y-56041000D01*
X37754000Y-56048000D01*
X37777000Y-56061000D01*
X37804000Y-56070000D01*
X37809000Y-56071000D01*
X37829000Y-56073000D01*
X37832000Y-56073000D01*
X37842000Y-56075000D01*
X38223000Y-56075000D01*
X38278000Y-56098000D01*
X38413000Y-56233000D01*
X38368000Y-56401000D01*
X38249000Y-56433000D01*
X38159000Y-56484000D01*
X38085000Y-56558000D01*
X38034000Y-56647000D01*
X38006000Y-56752000D01*
X38006000Y-56850000D01*
X38049000Y-57012000D01*
X37959000Y-57129000D01*
X37773000Y-57129000D01*
X37773000Y-57972000D01*
X39026000Y-57972000D01*
X39026000Y-57129000D01*
X38841000Y-57129000D01*
X38750000Y-57010000D01*
X38801000Y-56831000D01*
X38967000Y-56787000D01*
X39124000Y-56944000D01*
X39061000Y-57094000D01*
X39211000Y-57032000D01*
X39947000Y-57768000D01*
X39970000Y-57823000D01*
X39970000Y-58063000D01*
X39853000Y-58153000D01*
X39678000Y-58107000D01*
X39569000Y-58107000D01*
X39475000Y-58132000D01*
X39383000Y-58183000D01*
X39382000Y-58184000D01*
X39313000Y-58252000D01*
X39306000Y-58261000D01*
X39257000Y-58347000D01*
X39229000Y-58452000D01*
X39229000Y-58549000D01*
X39257000Y-58653000D01*
X39306000Y-58739000D01*
X39313000Y-58748000D01*
X39382000Y-58816000D01*
X39384000Y-58818000D01*
X39469000Y-58865000D01*
X39574000Y-58894000D01*
X39674000Y-58894000D01*
X39852000Y-58846000D01*
X39970000Y-58936000D01*
X39970000Y-59875000D01*
X40048000Y-59953000D01*
X40063000Y-60051000D01*
X40037000Y-60099000D01*
X40020000Y-60149000D01*
X39942000Y-60204000D01*
X39219000Y-60204000D01*
X39207000Y-60208000D01*
X39193000Y-60211000D01*
X39183000Y-60212000D01*
X39180000Y-60214000D01*
X39159000Y-60221000D01*
X39153000Y-60222000D01*
X39150000Y-60224000D01*
X39145000Y-60227000D01*
X39138000Y-60231000D01*
X39118000Y-60241000D01*
X39114000Y-60244000D01*
X39105000Y-60251000D01*
X39103000Y-60253000D01*
X39096000Y-60257000D01*
X39092000Y-60261000D01*
X39089000Y-60265000D01*
X39079000Y-60274000D01*
X39063000Y-60287000D01*
X39062000Y-60288000D01*
X39056000Y-60298000D01*
X39046000Y-60310000D01*
X39043000Y-60316000D01*
X39039000Y-60323000D01*
X39024000Y-60346000D01*
X39020000Y-60360000D01*
X39014000Y-60376000D01*
X39010000Y-60382000D01*
X38996000Y-60421000D01*
X38919000Y-60474000D01*
X38659000Y-60474000D01*
X38571000Y-60386000D01*
X38571000Y-59960000D01*
X38659000Y-59872000D01*
X39026000Y-59872000D01*
X39026000Y-59029000D01*
X37773000Y-59029000D01*
X37773000Y-59239000D01*
X37656000Y-59329000D01*
X37521000Y-59293000D01*
X37420000Y-59293000D01*
X37316000Y-59321000D01*
X37225000Y-59373000D01*
X37153000Y-59445000D01*
X37101000Y-59536000D01*
X37073000Y-59641000D01*
X37073000Y-59740000D01*
X37101000Y-59844000D01*
X37153000Y-59935000D01*
X37225000Y-60007000D01*
X37228000Y-60009000D01*
X37359000Y-60084000D01*
X37400000Y-60154000D01*
X37400000Y-60582000D01*
X37312000Y-60670000D01*
X37200000Y-60670000D01*
X37200000Y-61914000D01*
X37112000Y-62002000D01*
X37053000Y-62002000D01*
X36952000Y-62029000D01*
X36852000Y-62086000D01*
X36776000Y-62162000D01*
X36721000Y-62258000D01*
X36720000Y-62259000D01*
X36691000Y-62367000D01*
X36691000Y-62475000D01*
X36721000Y-62583000D01*
X36776000Y-62678000D01*
X36852000Y-62754000D01*
X36948000Y-62809000D01*
X36949000Y-62810000D01*
X37057000Y-62839000D01*
X37163000Y-62839000D01*
X37271000Y-62810000D01*
X37272000Y-62809000D01*
X37368000Y-62754000D01*
X37444000Y-62678000D01*
X37499000Y-62583000D01*
X37501000Y-62579000D01*
X37528000Y-62479000D01*
X37528000Y-62363000D01*
X37502000Y-62263000D01*
X37449000Y-62169000D01*
X37536000Y-62020000D01*
X38028000Y-62020000D01*
X38035000Y-62017000D01*
X38365000Y-62017000D01*
X38420000Y-62040000D01*
X38503000Y-62123000D01*
X38526000Y-62178000D01*
X38526000Y-62281000D01*
X38503000Y-62336000D01*
X37566000Y-63272000D01*
X37511000Y-63295000D01*
G37*
%TD.AperFunction*%
%TA.AperFunction,Conductor*%
G36*
X22858000Y-52401000D02*
G01*
X19527000Y-52401000D01*
X19472000Y-52378000D01*
X18050726Y-50956000D01*
X20655000Y-50956000D01*
X20655000Y-51044000D01*
X20679000Y-51134000D01*
X20727000Y-51213000D01*
X20727000Y-51214000D01*
X20786000Y-51273000D01*
X20789000Y-51275000D01*
X20866000Y-51321000D01*
X20956000Y-51345000D01*
X21044000Y-51345000D01*
X21134000Y-51321000D01*
X21211000Y-51275000D01*
X21214000Y-51273000D01*
X21272000Y-51215000D01*
X21278000Y-51207000D01*
X21320000Y-51135000D01*
X21344000Y-51048000D01*
X21344000Y-50953000D01*
X21320000Y-50865000D01*
X21278000Y-50793000D01*
X21273000Y-50786000D01*
X21214000Y-50727000D01*
X21209000Y-50724000D01*
X21135000Y-50680000D01*
X21047000Y-50656000D01*
X20953000Y-50656000D01*
X20865000Y-50680000D01*
X20791000Y-50724000D01*
X20785000Y-50728000D01*
X20727000Y-50786000D01*
X20727000Y-50787000D01*
X20679000Y-50866000D01*
X20655000Y-50956000D01*
X18050726Y-50956000D01*
X17515000Y-50420000D01*
X17492000Y-50365000D01*
X17492000Y-47845000D01*
X17515000Y-47790000D01*
X22114000Y-43191000D01*
X22124000Y-43183000D01*
X22128000Y-43180000D01*
X22129000Y-43179000D01*
X22139000Y-43162000D01*
X22141000Y-43158000D01*
X22163000Y-43127000D01*
X22173000Y-43059000D01*
X22171000Y-43043000D01*
X22171000Y-42910000D01*
X22259000Y-42822000D01*
X22409000Y-42822000D01*
X22425000Y-42820000D01*
X22443000Y-42818000D01*
X22449000Y-42817000D01*
X22469000Y-42810000D01*
X22468000Y-42810000D01*
X22494000Y-42795000D01*
X22508000Y-42785000D01*
X22519000Y-42775000D01*
X22525000Y-42769000D01*
X22535000Y-42758000D01*
X22545000Y-42744000D01*
X22560000Y-42718000D01*
X22566000Y-42702000D01*
X22568000Y-42691000D01*
X22570000Y-42677000D01*
X22571000Y-42666000D01*
X22571000Y-42535000D01*
X22659000Y-42447000D01*
X23021000Y-42447000D01*
X23076000Y-42470000D01*
X23093000Y-42487000D01*
X23610000Y-42487000D01*
X23665000Y-42510000D01*
X23674000Y-42519000D01*
X23734000Y-42554000D01*
X23774000Y-42561000D01*
X23787000Y-42562000D01*
X23813000Y-42562000D01*
X23869000Y-42585000D01*
X24026000Y-42745000D01*
X23949000Y-42929000D01*
X23842000Y-42929000D01*
X23830000Y-42930000D01*
X23809000Y-42932000D01*
X23801000Y-42933000D01*
X23782000Y-42940000D01*
X23756000Y-42955000D01*
X23742000Y-42965000D01*
X23729000Y-42977000D01*
X23725000Y-42981000D01*
X23714000Y-42993000D01*
X23702000Y-43011000D01*
X23690000Y-43032000D01*
X23683000Y-43052000D01*
X23682000Y-43059000D01*
X23680000Y-43077000D01*
X23678000Y-43098000D01*
X23678000Y-43913000D01*
X23680000Y-43925000D01*
X23682000Y-43941000D01*
X23683000Y-43947000D01*
X23718000Y-44048000D01*
X23628000Y-44174000D01*
X21690000Y-44174000D01*
X21636000Y-44182000D01*
X21575000Y-44211000D01*
X21572000Y-44214000D01*
X21522000Y-44262000D01*
X21488000Y-44325000D01*
X21476000Y-44387000D01*
X21486000Y-44460000D01*
X21513000Y-44519000D01*
X21515000Y-44522000D01*
X21562000Y-44573000D01*
X21620000Y-44606000D01*
X21626000Y-44608000D01*
X21686000Y-44620000D01*
X21695000Y-44621000D01*
X25648000Y-44621000D01*
X25655000Y-44620000D01*
X25670000Y-44620000D01*
X25685000Y-44616000D01*
X25688000Y-44616000D01*
X25705000Y-44613000D01*
X25719000Y-44608000D01*
X25728000Y-44604000D01*
X25735000Y-44602000D01*
X25745000Y-44595000D01*
X25758000Y-44587000D01*
X25774000Y-44580000D01*
X25778000Y-44578000D01*
X25784000Y-44572000D01*
X25789000Y-44568000D01*
X25797000Y-44561000D01*
X25994000Y-44365000D01*
X25998000Y-44359000D01*
X26005000Y-44348000D01*
X26008000Y-44344000D01*
X26073000Y-44246000D01*
X26286000Y-44311000D01*
X26286000Y-44531000D01*
X26263000Y-44586000D01*
X26194000Y-44655000D01*
X26144000Y-44743000D01*
X26116000Y-44849000D01*
X26116000Y-44945000D01*
X26145000Y-45052000D01*
X26192000Y-45133000D01*
X26196000Y-45138000D01*
X26269000Y-45213000D01*
X26354000Y-45261000D01*
X26356000Y-45262000D01*
X26462000Y-45290000D01*
X26558000Y-45290000D01*
X26664000Y-45262000D01*
X26666000Y-45261000D01*
X26750000Y-45213000D01*
X26751000Y-45213000D01*
X26824000Y-45138000D01*
X26826000Y-45136000D01*
X26882000Y-45039000D01*
X27010000Y-45010000D01*
X27096000Y-45070000D01*
X27165000Y-45092000D01*
X27227000Y-45094000D01*
X27230000Y-45093000D01*
X27264000Y-45084000D01*
X27292000Y-45082000D01*
X27316000Y-45085000D01*
X27326000Y-45085000D01*
X27344000Y-45087000D01*
X27348000Y-45088000D01*
X27485000Y-45088000D01*
X27540000Y-45111000D01*
X29018000Y-46590000D01*
X28941000Y-46775000D01*
X28686000Y-46775000D01*
X28631000Y-46752000D01*
X27789000Y-45911000D01*
X27787000Y-45909000D01*
X27779000Y-45902000D01*
X27739000Y-45872000D01*
X27730000Y-45866000D01*
X27723000Y-45862000D01*
X27722000Y-45861000D01*
X27722000Y-45862000D01*
X27717000Y-45859000D01*
X27702000Y-45853000D01*
X27699000Y-45852000D01*
X27663000Y-45835000D01*
X27654000Y-45832000D01*
X27647000Y-45830000D01*
X27640000Y-45829000D01*
X27629000Y-45827000D01*
X27599000Y-45819000D01*
X27594000Y-45819000D01*
X27570000Y-45818000D01*
X27563000Y-45817000D01*
X25466000Y-45817000D01*
X25446000Y-45816000D01*
X25443000Y-45816000D01*
X25406000Y-45823000D01*
X25397000Y-45824000D01*
X25388000Y-45824000D01*
X25379000Y-45827000D01*
X25368000Y-45829000D01*
X25340000Y-45840000D01*
X25315000Y-45850000D01*
X25307000Y-45854000D01*
X25297000Y-45858000D01*
X25296000Y-45858000D01*
X25293000Y-45860000D01*
X25285000Y-45866000D01*
X25280000Y-45870000D01*
X25249000Y-45889000D01*
X25237000Y-45900000D01*
X25232000Y-45904000D01*
X25220000Y-45914000D01*
X24383000Y-46752000D01*
X24328000Y-46775000D01*
X23836000Y-46775000D01*
X23821000Y-46777000D01*
X23797000Y-46780000D01*
X23792000Y-46781000D01*
X23755000Y-46793000D01*
X23729000Y-46810000D01*
X23728000Y-46810000D01*
X23716000Y-46818000D01*
X23714000Y-46819000D01*
X23713000Y-46819000D01*
X23691000Y-46838000D01*
X23686000Y-46843000D01*
X23669000Y-46864000D01*
X23660000Y-46878000D01*
X23660000Y-46879000D01*
X23642000Y-46907000D01*
X23631000Y-46942000D01*
X23629000Y-46952000D01*
X23627000Y-46971000D01*
X23625000Y-46986000D01*
X23625000Y-47477000D01*
X23602000Y-47532000D01*
X22578000Y-48557000D01*
X22523000Y-48580000D01*
X22447000Y-48580000D01*
X22392000Y-48557000D01*
X22350000Y-48515000D01*
X21950000Y-48515000D01*
X21895000Y-48492000D01*
X21595000Y-48194000D01*
X21623000Y-48039000D01*
X21700000Y-48004000D01*
X21721000Y-47990000D01*
X21722000Y-47990000D01*
X21732000Y-47984000D01*
X21736000Y-47981000D01*
X21757000Y-47964000D01*
X21764000Y-47957000D01*
X21781000Y-47937000D01*
X21790000Y-47922000D01*
X21790000Y-47921000D01*
X21807000Y-47895000D01*
X21807000Y-47894000D01*
X21818000Y-47862000D01*
X21821000Y-47848000D01*
X21823000Y-47832000D01*
X21825000Y-47814000D01*
X21825000Y-46986000D01*
X21823000Y-46971000D01*
X21821000Y-46952000D01*
X21819000Y-46942000D01*
X21808000Y-46907000D01*
X21790000Y-46879000D01*
X21790000Y-46878000D01*
X21781000Y-46864000D01*
X21764000Y-46843000D01*
X21759000Y-46838000D01*
X21737000Y-46819000D01*
X21736000Y-46819000D01*
X21734000Y-46818000D01*
X21722000Y-46810000D01*
X21721000Y-46810000D01*
X21695000Y-46793000D01*
X21694000Y-46793000D01*
X21658000Y-46781000D01*
X21653000Y-46780000D01*
X21629000Y-46777000D01*
X21614000Y-46775000D01*
X20836000Y-46775000D01*
X20821000Y-46777000D01*
X20797000Y-46780000D01*
X20792000Y-46781000D01*
X20755000Y-46793000D01*
X20729000Y-46810000D01*
X20728000Y-46810000D01*
X20716000Y-46818000D01*
X20714000Y-46819000D01*
X20713000Y-46819000D01*
X20691000Y-46838000D01*
X20686000Y-46843000D01*
X20669000Y-46864000D01*
X20660000Y-46878000D01*
X20660000Y-46879000D01*
X20642000Y-46907000D01*
X20631000Y-46942000D01*
X20629000Y-46952000D01*
X20627000Y-46971000D01*
X20625000Y-46986000D01*
X20625000Y-47509000D01*
X20475000Y-47596000D01*
X20316000Y-47505000D01*
X20317000Y-47505000D01*
X20213000Y-47477000D01*
X20112000Y-47477000D01*
X20009000Y-47505000D01*
X19918000Y-47557000D01*
X19845000Y-47630000D01*
X19793000Y-47721000D01*
X19791000Y-47726000D01*
X19765000Y-47824000D01*
X19765000Y-47926000D01*
X19793000Y-48029000D01*
X19794000Y-48031000D01*
X19845000Y-48119000D01*
X19913000Y-48187000D01*
X19936000Y-48242000D01*
X19936000Y-48477000D01*
X19848000Y-48565000D01*
X19700000Y-48565000D01*
X19700000Y-49287000D01*
X20625000Y-49287000D01*
X20625000Y-48565000D01*
X20478000Y-48565000D01*
X20390000Y-48477000D01*
X20390000Y-48241000D01*
X20413000Y-48186000D01*
X20480000Y-48119000D01*
X20555000Y-47990000D01*
X20678000Y-47959000D01*
X20753000Y-48006000D01*
X20755000Y-48007000D01*
X20820000Y-48028000D01*
X20878000Y-48107000D01*
X20878000Y-48335000D01*
X20884000Y-48370000D01*
X20886000Y-48379000D01*
X20887000Y-48391000D01*
X20889000Y-48396000D01*
X20890000Y-48403000D01*
X20893000Y-48413000D01*
X20915000Y-48468000D01*
X20918000Y-48473000D01*
X20920000Y-48478000D01*
X20921000Y-48482000D01*
X20924000Y-48486000D01*
X20934000Y-48500000D01*
X20937000Y-48504000D01*
X20950000Y-48525000D01*
X20964000Y-48540000D01*
X20970000Y-48548000D01*
X20971000Y-48549000D01*
X20976000Y-48555000D01*
X21302000Y-48880000D01*
X21325000Y-48935000D01*
X21325000Y-49205000D01*
X21302000Y-49260000D01*
X21275000Y-49287000D01*
X21275000Y-50209000D01*
X22400000Y-50209000D01*
X22400000Y-50060000D01*
X22488000Y-49972000D01*
X22623000Y-49972000D01*
X22678000Y-49994000D01*
X22750000Y-50065000D01*
X22751000Y-50066000D01*
X22836000Y-50113000D01*
X22941000Y-50142000D01*
X23040000Y-50142000D01*
X23145000Y-50113000D01*
X23230000Y-50066000D01*
X23232000Y-50064000D01*
X23301000Y-49996000D01*
X23308000Y-49987000D01*
X23359000Y-49898000D01*
X23384000Y-49801000D01*
X23384000Y-49696000D01*
X23359000Y-49598000D01*
X23308000Y-49509000D01*
X23301000Y-49500000D01*
X23232000Y-49432000D01*
X23231000Y-49431000D01*
X23140000Y-49380000D01*
X22988000Y-49339000D01*
X22944000Y-49172000D01*
X24067000Y-48048000D01*
X24122000Y-48025000D01*
X24614000Y-48025000D01*
X24629000Y-48023000D01*
X24653000Y-48020000D01*
X24658000Y-48019000D01*
X24694000Y-48007000D01*
X24695000Y-48007000D01*
X24721000Y-47990000D01*
X24722000Y-47990000D01*
X24732000Y-47984000D01*
X24736000Y-47981000D01*
X24757000Y-47964000D01*
X24764000Y-47957000D01*
X24781000Y-47937000D01*
X24790000Y-47922000D01*
X24790000Y-47921000D01*
X24807000Y-47895000D01*
X24807000Y-47894000D01*
X24818000Y-47862000D01*
X24821000Y-47848000D01*
X24823000Y-47832000D01*
X24825000Y-47814000D01*
X24825000Y-47323000D01*
X24848000Y-47268000D01*
X25582000Y-46533000D01*
X25637000Y-46510000D01*
X27375000Y-46510000D01*
X27430000Y-46533000D01*
X27541000Y-46644000D01*
X27464000Y-46829000D01*
X26678000Y-46829000D01*
X26678000Y-47972000D01*
X26953000Y-47972000D01*
X27041000Y-48060000D01*
X27041000Y-48219000D01*
X27018000Y-48274000D01*
X22913000Y-52378000D01*
X22858000Y-52401000D01*
G37*
%TD.AperFunction*%
%TA.AperFunction,Conductor*%
G36*
X25221000Y-44174000D02*
G01*
X24722000Y-44174000D01*
X24632000Y-44048000D01*
X24667000Y-43947000D01*
X24668000Y-43941000D01*
X24670000Y-43927000D01*
X24671000Y-43916000D01*
X24671000Y-43092000D01*
X24668000Y-43059000D01*
X24667000Y-43052000D01*
X24660000Y-43032000D01*
X24648000Y-43011000D01*
X24636000Y-42993000D01*
X24625000Y-42981000D01*
X24621000Y-42977000D01*
X24608000Y-42965000D01*
X24594000Y-42955000D01*
X24568000Y-42940000D01*
X24569000Y-42940000D01*
X24549000Y-42933000D01*
X24541000Y-42932000D01*
X24520000Y-42930000D01*
X24508000Y-42929000D01*
X24434000Y-42929000D01*
X24346000Y-42841000D01*
X24346000Y-42661000D01*
X24348000Y-42647000D01*
X24347000Y-42640000D01*
X24343000Y-42621000D01*
X24342000Y-42617000D01*
X24336000Y-42587000D01*
X24332000Y-42573000D01*
X24307000Y-42511000D01*
X24384000Y-42383000D01*
X24454000Y-42375000D01*
X24556000Y-42348000D01*
X24561000Y-42346000D01*
X24641000Y-42300000D01*
X24719000Y-42222000D01*
X24770000Y-42136000D01*
X24770000Y-42135000D01*
X24796000Y-42036000D01*
X24796000Y-41929000D01*
X24771000Y-41832000D01*
X24771000Y-41831000D01*
X24720000Y-41741000D01*
X24646000Y-41669000D01*
X24644000Y-41667000D01*
X24555000Y-41615000D01*
X24454000Y-41588000D01*
X24352000Y-41588000D01*
X24308000Y-41574000D01*
X24274000Y-41550000D01*
X24207000Y-41517000D01*
X24183000Y-41365000D01*
X24244000Y-41304000D01*
X24252000Y-41295000D01*
X24259000Y-41288000D01*
X24266000Y-41277000D01*
X24268000Y-41272000D01*
X24283000Y-41250000D01*
X24288000Y-41238000D01*
X24293000Y-41230000D01*
X24294000Y-41227000D01*
X24297000Y-41211000D01*
X24299000Y-41201000D01*
X24304000Y-41185000D01*
X24306000Y-41163000D01*
X24306000Y-41158000D01*
X24307000Y-41154000D01*
X24307000Y-40691000D01*
X24330000Y-40636000D01*
X24400000Y-40566000D01*
X24452000Y-40474000D01*
X24477000Y-40381000D01*
X24477000Y-40271000D01*
X24453000Y-40178000D01*
X24452000Y-40175000D01*
X24401000Y-40085000D01*
X24328000Y-40013000D01*
X24236000Y-39958000D01*
X24134000Y-39931000D01*
X24033000Y-39931000D01*
X23946000Y-39954000D01*
X23898000Y-40002000D01*
X23713000Y-39925000D01*
X23713000Y-38862000D01*
X23801000Y-38774000D01*
X23898000Y-38774000D01*
X23998000Y-38748000D01*
X23999000Y-38748000D01*
X24082000Y-38699000D01*
X24087000Y-38695000D01*
X24160000Y-38624000D01*
X24161000Y-38623000D01*
X24212000Y-38534000D01*
X24238000Y-38434000D01*
X24238000Y-38329000D01*
X24212000Y-38229000D01*
X24162000Y-38141000D01*
X24161000Y-38139000D01*
X24087000Y-38067000D01*
X24082000Y-38063000D01*
X24003000Y-38017000D01*
X23998000Y-38015000D01*
X23894000Y-37987000D01*
X23796000Y-37987000D01*
X23692000Y-38015000D01*
X23604000Y-38065000D01*
X23529000Y-38140000D01*
X23478000Y-38229000D01*
X23477000Y-38232000D01*
X23450000Y-38331000D01*
X23450000Y-38428000D01*
X23427000Y-38483000D01*
X23321000Y-38588000D01*
X23319000Y-38590000D01*
X23316000Y-38595000D01*
X23309000Y-38606000D01*
X23305000Y-38612000D01*
X23290000Y-38634000D01*
X23287000Y-38641000D01*
X23281000Y-38653000D01*
X23280000Y-38656000D01*
X23274000Y-38682000D01*
X23273000Y-38687000D01*
X23269000Y-38700000D01*
X23269000Y-38703000D01*
X23268000Y-38715000D01*
X23266000Y-38728000D01*
X23266000Y-40025000D01*
X23120000Y-40112000D01*
X23042000Y-40070000D01*
X23040000Y-40070000D01*
X22977000Y-40057000D01*
X22905000Y-40066000D01*
X22844000Y-40094000D01*
X22792000Y-40142000D01*
X22758000Y-40201000D01*
X22756000Y-40207000D01*
X22744000Y-40267000D01*
X22743000Y-40276000D01*
X22743000Y-41223000D01*
X22744000Y-41227000D01*
X22744000Y-41243000D01*
X22749000Y-41263000D01*
X22753000Y-41283000D01*
X22755000Y-41287000D01*
X22761000Y-41304000D01*
X22762000Y-41307000D01*
X22774000Y-41326000D01*
X22780000Y-41337000D01*
X22784000Y-41346000D01*
X22787000Y-41350000D01*
X22791000Y-41354000D01*
X22796000Y-41360000D01*
X22802000Y-41368000D01*
X22844000Y-41411000D01*
X22854000Y-41420000D01*
X22862000Y-41427000D01*
X22871000Y-41432000D01*
X22876000Y-41435000D01*
X22894000Y-41447000D01*
X22903000Y-41452000D01*
X22914000Y-41457000D01*
X22916000Y-41458000D01*
X22923000Y-41461000D01*
X22952000Y-41468000D01*
X22988000Y-41488000D01*
X23070000Y-41570000D01*
X23093000Y-41625000D01*
X23093000Y-42016000D01*
X23005000Y-42104000D01*
X22659000Y-42104000D01*
X22571000Y-42016000D01*
X22571000Y-41886000D01*
X22568000Y-41859000D01*
X22567000Y-41853000D01*
X22560000Y-41832000D01*
X22548000Y-41811000D01*
X22536000Y-41793000D01*
X22525000Y-41781000D01*
X22519000Y-41775000D01*
X22508000Y-41765000D01*
X22494000Y-41755000D01*
X22470000Y-41741000D01*
X22469000Y-41740000D01*
X22449000Y-41733000D01*
X22441000Y-41732000D01*
X22420000Y-41730000D01*
X22408000Y-41729000D01*
X21592000Y-41729000D01*
X21580000Y-41730000D01*
X21559000Y-41732000D01*
X21551000Y-41733000D01*
X21531000Y-41740000D01*
X21530000Y-41741000D01*
X21506000Y-41755000D01*
X21492000Y-41765000D01*
X21481000Y-41775000D01*
X21475000Y-41781000D01*
X21401000Y-41867000D01*
X21206000Y-41794000D01*
X21206000Y-34670000D01*
X22055000Y-34670000D01*
X22055000Y-36330000D01*
X23301000Y-36330000D01*
X23356000Y-36353000D01*
X23609000Y-36606000D01*
X23632000Y-36661000D01*
X23632000Y-36757000D01*
X23660000Y-36860000D01*
X23710000Y-36947000D01*
X23786000Y-37023000D01*
X23878000Y-37075000D01*
X23972000Y-37100000D01*
X24081000Y-37100000D01*
X24175000Y-37075000D01*
X24267000Y-37023000D01*
X24343000Y-36947000D01*
X24395000Y-36855000D01*
X24420000Y-36763000D01*
X24420000Y-36652000D01*
X24396000Y-36559000D01*
X24343000Y-36466000D01*
X24268000Y-36391000D01*
X24180000Y-36340000D01*
X24181000Y-36340000D01*
X24077000Y-36312000D01*
X23980000Y-36312000D01*
X23925000Y-36289000D01*
X23608000Y-35972000D01*
X23585000Y-35917000D01*
X23585000Y-34670000D01*
X22055000Y-34670000D01*
X21206000Y-34670000D01*
X21206000Y-31824000D01*
X21294000Y-31736000D01*
X22526000Y-31736000D01*
X22526000Y-31529000D01*
X22614000Y-31441000D01*
X23857000Y-31441000D01*
X23868000Y-31442000D01*
X23872000Y-31443000D01*
X23874000Y-31442000D01*
X23943000Y-31426000D01*
X23942000Y-31426000D01*
X23965000Y-31409000D01*
X23967000Y-31408000D01*
X23988000Y-31393000D01*
X23997000Y-31384000D01*
X23997000Y-31383000D01*
X24005000Y-31373000D01*
X25549000Y-29830000D01*
X25559000Y-29822000D01*
X25561000Y-29820000D01*
X25562000Y-29820000D01*
X25571000Y-29805000D01*
X25574000Y-29799000D01*
X25597000Y-29766000D01*
X25608000Y-29700000D01*
X25608000Y-29698000D01*
X25606000Y-29681000D01*
X25606000Y-26976000D01*
X25629000Y-26921000D01*
X27157000Y-25394000D01*
X27212000Y-25371000D01*
X27824000Y-25371000D01*
X27833000Y-25372000D01*
X27845000Y-25373000D01*
X27862000Y-25371000D01*
X28090000Y-25371000D01*
X28178000Y-25459000D01*
X28178000Y-25609000D01*
X28183000Y-25649000D01*
X28190000Y-25668000D01*
X28203000Y-25691000D01*
X28215000Y-25708000D01*
X28225000Y-25719000D01*
X28231000Y-25725000D01*
X28242000Y-25735000D01*
X28256000Y-25745000D01*
X28282000Y-25760000D01*
X28301000Y-25767000D01*
X28309000Y-25768000D01*
X28330000Y-25770000D01*
X28342000Y-25771000D01*
X28972000Y-25771000D01*
X29027000Y-25794000D01*
X29188000Y-25955000D01*
X29209000Y-26027000D01*
X29201000Y-26068000D01*
X29201000Y-26171000D01*
X29229000Y-26274000D01*
X29279000Y-26361000D01*
X29355000Y-26437000D01*
X29447000Y-26489000D01*
X29541000Y-26514000D01*
X29650000Y-26514000D01*
X29744000Y-26489000D01*
X29836000Y-26437000D01*
X29916000Y-26357000D01*
X30101000Y-26434000D01*
X30101000Y-26932000D01*
X30078000Y-26987000D01*
X27819000Y-29246000D01*
X27816000Y-29250000D01*
X27782000Y-29307000D01*
X27644000Y-29329000D01*
X27597000Y-29289000D01*
X27538000Y-29258000D01*
X27473000Y-29245000D01*
X27400000Y-29255000D01*
X27338000Y-29282000D01*
X27333000Y-29286000D01*
X27288000Y-29326000D01*
X27285000Y-29330000D01*
X27249000Y-29394000D01*
X27236000Y-29462000D01*
X27236000Y-33614000D01*
X27241000Y-33632000D01*
X27243000Y-33638000D01*
X27245000Y-33652000D01*
X27248000Y-33663000D01*
X27252000Y-33672000D01*
X27256000Y-33682000D01*
X27261000Y-33689000D01*
X27270000Y-33704000D01*
X27277000Y-33720000D01*
X27285000Y-33729000D01*
X27286000Y-33731000D01*
X27289000Y-33735000D01*
X27297000Y-33744000D01*
X29311000Y-35757000D01*
X29334000Y-35812000D01*
X29334000Y-36168000D01*
X29341000Y-36191000D01*
X29345000Y-36215000D01*
X29348000Y-36221000D01*
X29353000Y-36236000D01*
X29363000Y-36251000D01*
X29369000Y-36262000D01*
X29377000Y-36279000D01*
X29385000Y-36288000D01*
X29396000Y-36301000D01*
X29801000Y-36705000D01*
X29787000Y-36846000D01*
X29737000Y-36880000D01*
X29734000Y-36885000D01*
X29724000Y-36897000D01*
X29238000Y-37382000D01*
X29114000Y-37382000D01*
X29062000Y-37331000D01*
X29036000Y-37293000D01*
X29025000Y-37281000D01*
X29019000Y-37275000D01*
X29008000Y-37265000D01*
X28994000Y-37255000D01*
X28968000Y-37240000D01*
X28969000Y-37240000D01*
X28949000Y-37233000D01*
X28943000Y-37232000D01*
X28925000Y-37230000D01*
X28909000Y-37228000D01*
X28091000Y-37228000D01*
X28075000Y-37230000D01*
X28057000Y-37232000D01*
X28051000Y-37233000D01*
X28032000Y-37240000D01*
X28006000Y-37255000D01*
X27992000Y-37265000D01*
X27981000Y-37275000D01*
X27975000Y-37281000D01*
X27964000Y-37293000D01*
X27953000Y-37309000D01*
X27940000Y-37332000D01*
X27933000Y-37352000D01*
X27932000Y-37359000D01*
X27930000Y-37377000D01*
X27928000Y-37398000D01*
X27928000Y-38163000D01*
X27930000Y-38175000D01*
X27932000Y-38191000D01*
X27934000Y-38202000D01*
X27940000Y-38218000D01*
X27955000Y-38244000D01*
X27965000Y-38258000D01*
X27975000Y-38269000D01*
X27981000Y-38275000D01*
X27992000Y-38285000D01*
X28006000Y-38295000D01*
X28032000Y-38310000D01*
X28051000Y-38317000D01*
X28059000Y-38318000D01*
X28080000Y-38320000D01*
X28092000Y-38321000D01*
X28772000Y-38321000D01*
X28827000Y-38344000D01*
X29354000Y-38872000D01*
X29377000Y-38927000D01*
X29377000Y-40516000D01*
X29289000Y-40604000D01*
X29159000Y-40604000D01*
X29071000Y-40516000D01*
X29071000Y-40386000D01*
X29068000Y-40359000D01*
X29067000Y-40351000D01*
X29060000Y-40332000D01*
X29048000Y-40311000D01*
X29036000Y-40293000D01*
X29025000Y-40281000D01*
X29020000Y-40276000D01*
X29008000Y-40265000D01*
X28994000Y-40255000D01*
X28968000Y-40240000D01*
X28969000Y-40240000D01*
X28949000Y-40233000D01*
X28941000Y-40232000D01*
X28920000Y-40230000D01*
X28908000Y-40229000D01*
X28092000Y-40229000D01*
X28080000Y-40230000D01*
X28059000Y-40232000D01*
X28051000Y-40233000D01*
X28032000Y-40240000D01*
X28006000Y-40255000D01*
X27992000Y-40265000D01*
X27980000Y-40276000D01*
X27975000Y-40281000D01*
X27964000Y-40293000D01*
X27952000Y-40311000D01*
X27940000Y-40332000D01*
X27933000Y-40351000D01*
X27932000Y-40359000D01*
X27930000Y-40377000D01*
X27928000Y-40394000D01*
X27928000Y-40939000D01*
X27746000Y-41017000D01*
X27659000Y-40934000D01*
X27653000Y-40929000D01*
X27574000Y-40883000D01*
X27567000Y-40880000D01*
X27465000Y-40853000D01*
X27364000Y-40853000D01*
X27260000Y-40881000D01*
X27169000Y-40933000D01*
X27102000Y-41000000D01*
X27047000Y-41023000D01*
X26955000Y-41023000D01*
X26924000Y-41010000D01*
X26110000Y-41010000D01*
X26110000Y-41378000D01*
X26087000Y-41433000D01*
X26060000Y-41460000D01*
X26060000Y-41946000D01*
X25985000Y-42031000D01*
X25934000Y-42037000D01*
X25922000Y-42043000D01*
X25915000Y-42045000D01*
X25905000Y-42052000D01*
X25892000Y-42060000D01*
X25874000Y-42068000D01*
X25873000Y-42069000D01*
X25863000Y-42078000D01*
X25856000Y-42083000D01*
X25853000Y-42086000D01*
X25656000Y-42282000D01*
X25654000Y-42284000D01*
X25651000Y-42288000D01*
X25646000Y-42297000D01*
X25646000Y-42298000D01*
X25637000Y-42312000D01*
X25628000Y-42323000D01*
X25625000Y-42327000D01*
X25621000Y-42339000D01*
X25615000Y-42351000D01*
X25611000Y-42372000D01*
X25608000Y-42384000D01*
X25604000Y-42396000D01*
X25604000Y-42405000D01*
X25601000Y-42425000D01*
X25601000Y-42784000D01*
X25527000Y-42869000D01*
X25446000Y-42880000D01*
X25442000Y-42881000D01*
X25403000Y-42894000D01*
X25379000Y-42910000D01*
X25378000Y-42910000D01*
X25366000Y-42918000D01*
X25364000Y-42919000D01*
X25363000Y-42919000D01*
X25339000Y-42940000D01*
X25336000Y-42943000D01*
X25317000Y-42966000D01*
X25310000Y-42978000D01*
X25310000Y-42979000D01*
X25293000Y-43005000D01*
X25280000Y-43047000D01*
X25280000Y-43048000D01*
X25277000Y-43071000D01*
X25275000Y-43088000D01*
X25275000Y-43916000D01*
X25277000Y-43929000D01*
X25279000Y-43948000D01*
X25281000Y-43958000D01*
X25311000Y-44051000D01*
X25221000Y-44174000D01*
G37*
%TD.AperFunction*%
%TA.AperFunction,Conductor*%
G36*
X40005000Y-69498000D02*
G01*
X39995000Y-69498000D01*
X36146000Y-69245000D01*
X36137000Y-69244000D01*
X32371000Y-68496000D01*
X32361000Y-68494000D01*
X28717000Y-67255000D01*
X28708000Y-67252000D01*
X25477984Y-65659000D01*
X35383000Y-65659000D01*
X35383000Y-66541000D01*
X35402000Y-66612000D01*
X35443000Y-66684000D01*
X35496000Y-66737000D01*
X35568000Y-66778000D01*
X35639000Y-66797000D01*
X35721000Y-66797000D01*
X35792000Y-66778000D01*
X35864000Y-66737000D01*
X35917000Y-66684000D01*
X35958000Y-66612000D01*
X35977000Y-66541000D01*
X35977000Y-65659000D01*
X35959000Y-65589000D01*
X35919000Y-65519000D01*
X35917000Y-65516000D01*
X35864000Y-65463000D01*
X35792000Y-65422000D01*
X35721000Y-65403000D01*
X35639000Y-65403000D01*
X35568000Y-65422000D01*
X35496000Y-65463000D01*
X35443000Y-65516000D01*
X35441000Y-65519000D01*
X35401000Y-65589000D01*
X35383000Y-65659000D01*
X25477984Y-65659000D01*
X25259000Y-65551000D01*
X25251000Y-65546000D01*
X22048000Y-63407000D01*
X22040000Y-63401000D01*
X19145000Y-60862000D01*
X19138000Y-60855000D01*
X16599000Y-57960000D01*
X16593000Y-57952000D01*
X14454000Y-54749000D01*
X14449000Y-54741000D01*
X13789610Y-53404000D01*
X31038000Y-53404000D01*
X31038000Y-55597000D01*
X31200000Y-55597000D01*
X31288000Y-55685000D01*
X31288000Y-55948000D01*
X31243000Y-56020000D01*
X31224000Y-56030000D01*
X31213000Y-56040000D01*
X31195000Y-56059000D01*
X31181000Y-56082000D01*
X31180000Y-56083000D01*
X31167000Y-56107000D01*
X31161000Y-56129000D01*
X31161000Y-56130000D01*
X31160000Y-56132000D01*
X31154000Y-56159000D01*
X31153000Y-56172000D01*
X31153000Y-57428000D01*
X31155000Y-57447000D01*
X31159000Y-57465000D01*
X31160000Y-57468000D01*
X31161000Y-57470000D01*
X31162000Y-57477000D01*
X31168000Y-57496000D01*
X31183000Y-57522000D01*
X31192000Y-57537000D01*
X31196000Y-57542000D01*
X31213000Y-57560000D01*
X31235000Y-57581000D01*
X31257000Y-57594000D01*
X31258000Y-57595000D01*
X31282000Y-57608000D01*
X31301000Y-57613000D01*
X31305000Y-57614000D01*
X31307000Y-57615000D01*
X31330000Y-57620000D01*
X31350000Y-57622000D01*
X31490000Y-57622000D01*
X31574000Y-57693000D01*
X31583000Y-57747000D01*
X31590000Y-57782000D01*
X31594000Y-57789000D01*
X31622000Y-57826000D01*
X31625000Y-57831000D01*
X31630000Y-57838000D01*
X31637000Y-57843000D01*
X31648000Y-57853000D01*
X31727000Y-57933000D01*
X31736000Y-57943000D01*
X31739000Y-57948000D01*
X31740000Y-57949000D01*
X31768000Y-57965000D01*
X31772000Y-57967000D01*
X31792000Y-57981000D01*
X31793000Y-57981000D01*
X31854000Y-57992000D01*
X31861000Y-57992000D01*
X31870000Y-57991000D01*
X32355000Y-57991000D01*
X32421000Y-58026000D01*
X32439000Y-58054000D01*
X32446000Y-58063000D01*
X32518000Y-58135000D01*
X32606000Y-58185000D01*
X32711000Y-58213000D01*
X32807000Y-58213000D01*
X32913000Y-58185000D01*
X32912000Y-58185000D01*
X33000000Y-58135000D01*
X33074000Y-58061000D01*
X33127000Y-57969000D01*
X33152000Y-57872000D01*
X33152000Y-57768000D01*
X33127000Y-57669000D01*
X33075000Y-57578000D01*
X33001000Y-57504000D01*
X32913000Y-57453000D01*
X32809000Y-57425000D01*
X32710000Y-57425000D01*
X32672000Y-57434000D01*
X32596000Y-57413000D01*
X32369000Y-57186000D01*
X32346000Y-57131000D01*
X32346000Y-56181000D01*
X32345000Y-56160000D01*
X32339000Y-56130000D01*
X32339000Y-56129000D01*
X32333000Y-56107000D01*
X32320000Y-56083000D01*
X32319000Y-56082000D01*
X32305000Y-56059000D01*
X32287000Y-56040000D01*
X32267000Y-56021000D01*
X32266000Y-56020000D01*
X32243000Y-56006000D01*
X32218000Y-55992000D01*
X32199000Y-55986000D01*
X32195000Y-55986000D01*
X32165000Y-55980000D01*
X32144000Y-55979000D01*
X31719000Y-55979000D01*
X31631000Y-55891000D01*
X31631000Y-55685000D01*
X31719000Y-55597000D01*
X31881000Y-55597000D01*
X31881000Y-54760000D01*
X31969000Y-54672000D01*
X32100000Y-54672000D01*
X32109000Y-54673000D01*
X32111000Y-54673000D01*
X32123000Y-54672000D01*
X32220000Y-54672000D01*
X32308000Y-54760000D01*
X32308000Y-55597000D01*
X33151000Y-55597000D01*
X33151000Y-53404000D01*
X32308000Y-53404000D01*
X32308000Y-54241000D01*
X32220000Y-54329000D01*
X32108000Y-54329000D01*
X32097000Y-54328000D01*
X32093000Y-54327000D01*
X32088000Y-54328000D01*
X32086000Y-54328000D01*
X32071000Y-54329000D01*
X31969000Y-54329000D01*
X31881000Y-54241000D01*
X31881000Y-53404000D01*
X31038000Y-53404000D01*
X13789610Y-53404000D01*
X12748000Y-51292000D01*
X12745000Y-51283000D01*
X11506000Y-47639000D01*
X11504000Y-47629000D01*
X10756000Y-43863000D01*
X10755000Y-43854000D01*
X10502000Y-40005000D01*
X10502000Y-39995000D01*
X10755000Y-36146000D01*
X10756000Y-36137000D01*
X11504000Y-32371000D01*
X11506000Y-32361000D01*
X12485572Y-29480000D01*
X15420000Y-29480000D01*
X15420000Y-30520000D01*
X15473000Y-30573000D01*
X15473000Y-30697000D01*
X15420000Y-30750000D01*
X15420000Y-31790000D01*
X16653000Y-31790000D01*
X16741000Y-31878000D01*
X16741000Y-32078000D01*
X16742000Y-32085000D01*
X16742000Y-32101000D01*
X16747000Y-32121000D01*
X16751000Y-32143000D01*
X16756000Y-32154000D01*
X16759000Y-32161000D01*
X16761000Y-32168000D01*
X16768000Y-32178000D01*
X16773000Y-32188000D01*
X16779000Y-32201000D01*
X16783000Y-32206000D01*
X16789000Y-32213000D01*
X16792000Y-32217000D01*
X16800000Y-32226000D01*
X16990000Y-32417000D01*
X16998000Y-32424000D01*
X16999000Y-32425000D01*
X17007000Y-32432000D01*
X17016000Y-32437000D01*
X17022000Y-32441000D01*
X17040000Y-32454000D01*
X17045000Y-32456000D01*
X17058000Y-32461000D01*
X17064000Y-32465000D01*
X17078000Y-32467000D01*
X17090000Y-32470000D01*
X17105000Y-32475000D01*
X17131000Y-32477000D01*
X17134000Y-32477000D01*
X17141000Y-32478000D01*
X17961000Y-32478000D01*
X18015000Y-32470000D01*
X18076000Y-32441000D01*
X18077000Y-32440000D01*
X18129000Y-32391000D01*
X18161000Y-32332000D01*
X18162000Y-32328000D01*
X18175000Y-32266000D01*
X18166000Y-32195000D01*
X18138000Y-32133000D01*
X18138000Y-32132000D01*
X18089000Y-32079000D01*
X17973000Y-32013000D01*
X18033000Y-31790000D01*
X18510000Y-31790000D01*
X18510000Y-31576000D01*
X18695000Y-31499000D01*
X19152000Y-31957000D01*
X19175000Y-32012000D01*
X19175000Y-32108000D01*
X19203000Y-32211000D01*
X19205000Y-32215000D01*
X19253000Y-32299000D01*
X19256000Y-32302000D01*
X19327000Y-32371000D01*
X19417000Y-32425000D01*
X19422000Y-32427000D01*
X19515000Y-32451000D01*
X19622000Y-32451000D01*
X19719000Y-32426000D01*
X19813000Y-32371000D01*
X19883000Y-32300000D01*
X19885000Y-32298000D01*
X19934000Y-32215000D01*
X19935000Y-32213000D01*
X19963000Y-32108000D01*
X19963000Y-32007000D01*
X19922000Y-31854000D01*
X20012000Y-31736000D01*
X20775000Y-31736000D01*
X20863000Y-31824000D01*
X20863000Y-42158000D01*
X20862000Y-42171000D01*
X20862000Y-42172000D01*
X20868000Y-42197000D01*
X20869000Y-42198000D01*
X20875000Y-42228000D01*
X20878000Y-42234000D01*
X20878000Y-42235000D01*
X20880000Y-42238000D01*
X20904000Y-42271000D01*
X20907000Y-42274000D01*
X20914000Y-42285000D01*
X20919000Y-42288000D01*
X20930000Y-42298000D01*
X21023000Y-42392000D01*
X21032000Y-42403000D01*
X21061000Y-42421000D01*
X21064000Y-42423000D01*
X21082000Y-42436000D01*
X21089000Y-42438000D01*
X21097000Y-42440000D01*
X21097000Y-42439000D01*
X21145000Y-42447000D01*
X21149000Y-42448000D01*
X21155000Y-42448000D01*
X21164000Y-42447000D01*
X21340000Y-42447000D01*
X21428000Y-42535000D01*
X21428000Y-42661000D01*
X21430000Y-42675000D01*
X21432000Y-42691000D01*
X21434000Y-42702000D01*
X21440000Y-42718000D01*
X21455000Y-42744000D01*
X21465000Y-42758000D01*
X21475000Y-42769000D01*
X21481000Y-42775000D01*
X21492000Y-42785000D01*
X21506000Y-42795000D01*
X21532000Y-42810000D01*
X21551000Y-42817000D01*
X21557000Y-42818000D01*
X21575000Y-42820000D01*
X21591000Y-42822000D01*
X21736000Y-42822000D01*
X21813000Y-43007000D01*
X17207000Y-47613000D01*
X17197000Y-47621000D01*
X17194000Y-47623000D01*
X17192000Y-47625000D01*
X17172000Y-47658000D01*
X17170000Y-47661000D01*
X17159000Y-47676000D01*
X17158000Y-47684000D01*
X17148000Y-47740000D01*
X17148000Y-47746000D01*
X17149000Y-47759000D01*
X17149000Y-50465000D01*
X17148000Y-50476000D01*
X17149000Y-50479000D01*
X17158000Y-50518000D01*
X17158000Y-50520000D01*
X17161000Y-50537000D01*
X17166000Y-50547000D01*
X17186000Y-50573000D01*
X17188000Y-50575000D01*
X17198000Y-50591000D01*
X17209000Y-50601000D01*
X17218000Y-50608000D01*
X19296000Y-52687000D01*
X19306000Y-52699000D01*
X19307000Y-52701000D01*
X19335000Y-52718000D01*
X19336000Y-52719000D01*
X19356000Y-52732000D01*
X19361000Y-52734000D01*
X19422000Y-52745000D01*
X19429000Y-52745000D01*
X19438000Y-52744000D01*
X22959000Y-52744000D01*
X22966000Y-52745000D01*
X22974000Y-52744000D01*
X22993000Y-52740000D01*
X22994000Y-52739000D01*
X23032000Y-52731000D01*
X23038000Y-52728000D01*
X23061000Y-52711000D01*
X23063000Y-52710000D01*
X23084000Y-52695000D01*
X23089000Y-52689000D01*
X23090000Y-52688000D01*
X23100000Y-52676000D01*
X27327000Y-48450000D01*
X27337000Y-48442000D01*
X27341000Y-48439000D01*
X27342000Y-48438000D01*
X27349000Y-48426000D01*
X27352000Y-48421000D01*
X27376000Y-48386000D01*
X27386000Y-48321000D01*
X27386000Y-48318000D01*
X27384000Y-48300000D01*
X27384000Y-48060000D01*
X27472000Y-47972000D01*
X27746000Y-47972000D01*
X27746000Y-47110000D01*
X27931000Y-47033000D01*
X28177000Y-47279000D01*
X28200000Y-47334000D01*
X28200000Y-48025000D01*
X29375000Y-48025000D01*
X29375000Y-47209000D01*
X29560000Y-47132000D01*
X31297000Y-48870000D01*
X31320000Y-48925000D01*
X31320000Y-49576000D01*
X31321000Y-49583000D01*
X31321000Y-49597000D01*
X31325000Y-49615000D01*
X31326000Y-49619000D01*
X31330000Y-49641000D01*
X31334000Y-49650000D01*
X31336000Y-49654000D01*
X31338000Y-49662000D01*
X31346000Y-49673000D01*
X31354000Y-49686000D01*
X31362000Y-49704000D01*
X31364000Y-49707000D01*
X31374000Y-49717000D01*
X31381000Y-49725000D01*
X31385000Y-49731000D01*
X31963000Y-50309000D01*
X31971000Y-50315000D01*
X31996000Y-50330000D01*
X32009000Y-50340000D01*
X32023000Y-50345000D01*
X32030000Y-50349000D01*
X32053000Y-50355000D01*
X32056000Y-50356000D01*
X32067000Y-50359000D01*
X32075000Y-50360000D01*
X32081000Y-50360000D01*
X32099000Y-50362000D01*
X32103000Y-50363000D01*
X36148000Y-50363000D01*
X36155000Y-50362000D01*
X36170000Y-50362000D01*
X36185000Y-50358000D01*
X36188000Y-50358000D01*
X36205000Y-50355000D01*
X36219000Y-50350000D01*
X36228000Y-50346000D01*
X36235000Y-50344000D01*
X36245000Y-50337000D01*
X36258000Y-50329000D01*
X36276000Y-50321000D01*
X36302000Y-50295000D01*
X36307000Y-50293000D01*
X38325000Y-48276000D01*
X38328000Y-48272000D01*
X38336000Y-48264000D01*
X38339000Y-48260000D01*
X38346000Y-48249000D01*
X38349000Y-48244000D01*
X38362000Y-48226000D01*
X38368000Y-48213000D01*
X38369000Y-48210000D01*
X38372000Y-48204000D01*
X38373000Y-48203000D01*
X38376000Y-48185000D01*
X38379000Y-48176000D01*
X38384000Y-48158000D01*
X38385000Y-48147000D01*
X38385000Y-48145000D01*
X38387000Y-48130000D01*
X38387000Y-44954000D01*
X38515000Y-44864000D01*
X38591000Y-44892000D01*
X38700000Y-44921000D01*
X38796000Y-44921000D01*
X38902000Y-44893000D01*
X38904000Y-44892000D01*
X38988000Y-44844000D01*
X38990000Y-44843000D01*
X39061000Y-44770000D01*
X39063000Y-44768000D01*
X39114000Y-44681000D01*
X39115000Y-44679000D01*
X39142000Y-44578000D01*
X39142000Y-44410000D01*
X39230000Y-44322000D01*
X39909000Y-44322000D01*
X39925000Y-44320000D01*
X39943000Y-44318000D01*
X39949000Y-44317000D01*
X39969000Y-44310000D01*
X39968000Y-44310000D01*
X39994000Y-44295000D01*
X40008000Y-44285000D01*
X40019000Y-44275000D01*
X40025000Y-44269000D01*
X40035000Y-44258000D01*
X40045000Y-44244000D01*
X40060000Y-44218000D01*
X40067000Y-44199000D01*
X40068000Y-44193000D01*
X40070000Y-44175000D01*
X40072000Y-44163000D01*
X40072000Y-44035000D01*
X40160000Y-43947000D01*
X40427000Y-43947000D01*
X40435000Y-43946000D01*
X40489000Y-43935000D01*
X40492000Y-43934000D01*
X40543000Y-43899000D01*
X40549000Y-43893000D01*
X40584000Y-43839000D01*
X40595000Y-43772000D01*
X40594000Y-43769000D01*
X40580000Y-43703000D01*
X40541000Y-43648000D01*
X40540000Y-43647000D01*
X40481000Y-43612000D01*
X40430000Y-43604000D01*
X40160000Y-43604000D01*
X40072000Y-43516000D01*
X40072000Y-43386000D01*
X40070000Y-43375000D01*
X40068000Y-43359000D01*
X40067000Y-43353000D01*
X40060000Y-43332000D01*
X40050000Y-43314000D01*
X40036000Y-43293000D01*
X40025000Y-43281000D01*
X40020000Y-43276000D01*
X40008000Y-43265000D01*
X39994000Y-43255000D01*
X39968000Y-43240000D01*
X39969000Y-43240000D01*
X39949000Y-43233000D01*
X39941000Y-43232000D01*
X39920000Y-43230000D01*
X39908000Y-43229000D01*
X39092000Y-43229000D01*
X39080000Y-43230000D01*
X39059000Y-43232000D01*
X39051000Y-43233000D01*
X39032000Y-43240000D01*
X39006000Y-43255000D01*
X38992000Y-43265000D01*
X38980000Y-43276000D01*
X38975000Y-43281000D01*
X38964000Y-43293000D01*
X38950000Y-43314000D01*
X38940000Y-43332000D01*
X38933000Y-43353000D01*
X38932000Y-43359000D01*
X38930000Y-43377000D01*
X38928000Y-43398000D01*
X38928000Y-43516000D01*
X38840000Y-43604000D01*
X38567000Y-43604000D01*
X38495000Y-43617000D01*
X38387000Y-43527000D01*
X38387000Y-42200000D01*
X38379000Y-42168000D01*
X38379000Y-42164000D01*
X38377000Y-42155000D01*
X38373000Y-42145000D01*
X38370000Y-42134000D01*
X38364000Y-42126000D01*
X38358000Y-42115000D01*
X38349000Y-42095000D01*
X38341000Y-42087000D01*
X38334000Y-42079000D01*
X38331000Y-42075000D01*
X38329000Y-42072000D01*
X37879000Y-41621000D01*
X37956000Y-41470000D01*
X37808000Y-41550000D01*
X37528000Y-41269000D01*
X37518000Y-41261000D01*
X37505000Y-41253000D01*
X37499000Y-41250000D01*
X37480000Y-41236000D01*
X37479000Y-41236000D01*
X37468000Y-41231000D01*
X37461000Y-41227000D01*
X37448000Y-41225000D01*
X37436000Y-41222000D01*
X37424000Y-41218000D01*
X37416000Y-41216000D01*
X37395000Y-41215000D01*
X37394000Y-41215000D01*
X37387000Y-41214000D01*
X36938000Y-41214000D01*
X36850000Y-41126000D01*
X36850000Y-41060000D01*
X36848000Y-41039000D01*
X36845000Y-41013000D01*
X36801000Y-40903000D01*
X36926000Y-40764000D01*
X37023000Y-40792000D01*
X37024000Y-40792000D01*
X37046000Y-40795000D01*
X37061000Y-40797000D01*
X37814000Y-40797000D01*
X37817000Y-40796000D01*
X37844000Y-40793000D01*
X37854000Y-40790000D01*
X37870000Y-40785000D01*
X37889000Y-40777000D01*
X37917000Y-40772000D01*
X38150000Y-40772000D01*
X38227000Y-40957000D01*
X38018000Y-41166000D01*
X38014000Y-41171000D01*
X37983000Y-41217000D01*
X37983000Y-41219000D01*
X37972000Y-41288000D01*
X38001000Y-41431000D01*
X38152000Y-41455000D01*
X38222000Y-41438000D01*
X38254000Y-41415000D01*
X38257000Y-41412000D01*
X38743000Y-40927000D01*
X38928000Y-41004000D01*
X38928000Y-41163000D01*
X38930000Y-41175000D01*
X38932000Y-41191000D01*
X38934000Y-41202000D01*
X38940000Y-41218000D01*
X38954000Y-41242000D01*
X38965000Y-41258000D01*
X38975000Y-41269000D01*
X38981000Y-41275000D01*
X38992000Y-41285000D01*
X39006000Y-41295000D01*
X39032000Y-41310000D01*
X39051000Y-41317000D01*
X39057000Y-41318000D01*
X39075000Y-41320000D01*
X39091000Y-41322000D01*
X39773000Y-41322000D01*
X39828000Y-41345000D01*
X40928000Y-42446000D01*
X40939000Y-42459000D01*
X40940000Y-42460000D01*
X40952000Y-42470000D01*
X41236000Y-42754000D01*
X41259000Y-42809000D01*
X41259000Y-48442000D01*
X41236000Y-48497000D01*
X38526000Y-51206000D01*
X38471000Y-51229000D01*
X37842000Y-51229000D01*
X37830000Y-51230000D01*
X37809000Y-51232000D01*
X37801000Y-51233000D01*
X37782000Y-51240000D01*
X37756000Y-51255000D01*
X37742000Y-51265000D01*
X37731000Y-51275000D01*
X37725000Y-51281000D01*
X37712000Y-51296000D01*
X37700000Y-51314000D01*
X37690000Y-51332000D01*
X37683000Y-51352000D01*
X37682000Y-51359000D01*
X37678000Y-51395000D01*
X37678000Y-51541000D01*
X37590000Y-51629000D01*
X36535000Y-51629000D01*
X36524000Y-51628000D01*
X36520000Y-51627000D01*
X36513000Y-51628000D01*
X36488000Y-51633000D01*
X36487000Y-51634000D01*
X36455000Y-51640000D01*
X36455000Y-51641000D01*
X36407000Y-51674000D01*
X36398000Y-51680000D01*
X36389000Y-51692000D01*
X35156000Y-52924000D01*
X35146000Y-52932000D01*
X35142000Y-52935000D01*
X35127000Y-52960000D01*
X35123000Y-52966000D01*
X35108000Y-52988000D01*
X35106000Y-52994000D01*
X35103000Y-53020000D01*
X35102000Y-53026000D01*
X35097000Y-53050000D01*
X35097000Y-53064000D01*
X35098000Y-53079000D01*
X35098000Y-53316000D01*
X35010000Y-53404000D01*
X34848000Y-53404000D01*
X34848000Y-55597000D01*
X35010000Y-55597000D01*
X35098000Y-55685000D01*
X35098000Y-55891000D01*
X35010000Y-55979000D01*
X34456000Y-55979000D01*
X34435000Y-55980000D01*
X34405000Y-55986000D01*
X34401000Y-55986000D01*
X34382000Y-55992000D01*
X34357000Y-56006000D01*
X34334000Y-56020000D01*
X34333000Y-56021000D01*
X34313000Y-56040000D01*
X34295000Y-56059000D01*
X34281000Y-56082000D01*
X34280000Y-56083000D01*
X34267000Y-56107000D01*
X34261000Y-56129000D01*
X34261000Y-56130000D01*
X34260000Y-56132000D01*
X34254000Y-56159000D01*
X34253000Y-56172000D01*
X34253000Y-57428000D01*
X34255000Y-57447000D01*
X34259000Y-57465000D01*
X34260000Y-57468000D01*
X34261000Y-57470000D01*
X34262000Y-57477000D01*
X34268000Y-57496000D01*
X34283000Y-57522000D01*
X34292000Y-57537000D01*
X34296000Y-57542000D01*
X34313000Y-57560000D01*
X34335000Y-57581000D01*
X34357000Y-57594000D01*
X34457000Y-57644000D01*
X34403000Y-57875000D01*
X33836000Y-57875000D01*
X33821000Y-57877000D01*
X33797000Y-57880000D01*
X33792000Y-57881000D01*
X33755000Y-57893000D01*
X33729000Y-57910000D01*
X33728000Y-57910000D01*
X33716000Y-57918000D01*
X33714000Y-57919000D01*
X33713000Y-57919000D01*
X33689000Y-57940000D01*
X33686000Y-57943000D01*
X33668000Y-57965000D01*
X33660000Y-57978000D01*
X33660000Y-57979000D01*
X33643000Y-58005000D01*
X33630000Y-58047000D01*
X33627000Y-58071000D01*
X33625000Y-58086000D01*
X33625000Y-58914000D01*
X33627000Y-58929000D01*
X33629000Y-58948000D01*
X33632000Y-58962000D01*
X33643000Y-58994000D01*
X33646000Y-59000000D01*
X33660000Y-59021000D01*
X33660000Y-59022000D01*
X33669000Y-59037000D01*
X33686000Y-59057000D01*
X33693000Y-59064000D01*
X33713000Y-59081000D01*
X33714000Y-59081000D01*
X33718000Y-59084000D01*
X33728000Y-59090000D01*
X33729000Y-59090000D01*
X33755000Y-59107000D01*
X33792000Y-59119000D01*
X33796000Y-59120000D01*
X33877000Y-59131000D01*
X33951000Y-59216000D01*
X33951000Y-62480000D01*
X33952000Y-62484000D01*
X33952000Y-62500000D01*
X33957000Y-62520000D01*
X33961000Y-62540000D01*
X33965000Y-62549000D01*
X33970000Y-62564000D01*
X33977000Y-62574000D01*
X33985000Y-62587000D01*
X33993000Y-62605000D01*
X33994000Y-62606000D01*
X34003000Y-62616000D01*
X34007000Y-62621000D01*
X34015000Y-62630000D01*
X35071000Y-63687000D01*
X35149000Y-63765000D01*
X35072000Y-63950000D01*
X32966000Y-63950000D01*
X32911000Y-63927000D01*
X28921000Y-59937000D01*
X28898000Y-59882000D01*
X28898000Y-59715000D01*
X28973000Y-59630000D01*
X29053000Y-59620000D01*
X29058000Y-59619000D01*
X29094000Y-59607000D01*
X29095000Y-59607000D01*
X29121000Y-59590000D01*
X29122000Y-59590000D01*
X29132000Y-59584000D01*
X29136000Y-59581000D01*
X29157000Y-59564000D01*
X29164000Y-59557000D01*
X29180000Y-59538000D01*
X29190000Y-59522000D01*
X29190000Y-59521000D01*
X29207000Y-59495000D01*
X29207000Y-59494000D01*
X29218000Y-59462000D01*
X29221000Y-59448000D01*
X29223000Y-59432000D01*
X29225000Y-59414000D01*
X29225000Y-58586000D01*
X29223000Y-58571000D01*
X29221000Y-58552000D01*
X29219000Y-58542000D01*
X29208000Y-58507000D01*
X29190000Y-58479000D01*
X29190000Y-58478000D01*
X29181000Y-58464000D01*
X29164000Y-58443000D01*
X29160000Y-58439000D01*
X29138000Y-58420000D01*
X29134000Y-58418000D01*
X29122000Y-58410000D01*
X29121000Y-58410000D01*
X29095000Y-58393000D01*
X29094000Y-58393000D01*
X29058000Y-58381000D01*
X29053000Y-58380000D01*
X29029000Y-58377000D01*
X29014000Y-58375000D01*
X28336000Y-58375000D01*
X28321000Y-58377000D01*
X28297000Y-58380000D01*
X28292000Y-58381000D01*
X28255000Y-58393000D01*
X28229000Y-58410000D01*
X28228000Y-58410000D01*
X28216000Y-58418000D01*
X28212000Y-58420000D01*
X28190000Y-58439000D01*
X28186000Y-58443000D01*
X28169000Y-58464000D01*
X28160000Y-58478000D01*
X28160000Y-58479000D01*
X28142000Y-58507000D01*
X28131000Y-58542000D01*
X28129000Y-58552000D01*
X28127000Y-58571000D01*
X28125000Y-58586000D01*
X28125000Y-59414000D01*
X28127000Y-59429000D01*
X28129000Y-59448000D01*
X28132000Y-59462000D01*
X28143000Y-59494000D01*
X28143000Y-59495000D01*
X28160000Y-59521000D01*
X28160000Y-59522000D01*
X28170000Y-59538000D01*
X28186000Y-59557000D01*
X28193000Y-59564000D01*
X28213000Y-59581000D01*
X28214000Y-59581000D01*
X28218000Y-59584000D01*
X28228000Y-59590000D01*
X28229000Y-59590000D01*
X28255000Y-59607000D01*
X28292000Y-59619000D01*
X28296000Y-59620000D01*
X28377000Y-59631000D01*
X28451000Y-59716000D01*
X28451000Y-60013000D01*
X28452000Y-60018000D01*
X28452000Y-60033000D01*
X28456000Y-60050000D01*
X28457000Y-60054000D01*
X28461000Y-60076000D01*
X28465000Y-60085000D01*
X28467000Y-60089000D01*
X28470000Y-60099000D01*
X28478000Y-60111000D01*
X28483000Y-60121000D01*
X28488000Y-60133000D01*
X28493000Y-60139000D01*
X28500000Y-60147000D01*
X28503000Y-60150000D01*
X28510000Y-60159000D01*
X32694000Y-64343000D01*
X32702000Y-64349000D01*
X32727000Y-64364000D01*
X32740000Y-64374000D01*
X32754000Y-64379000D01*
X32761000Y-64383000D01*
X32784000Y-64389000D01*
X32787000Y-64390000D01*
X32798000Y-64393000D01*
X32806000Y-64394000D01*
X32812000Y-64394000D01*
X32830000Y-64396000D01*
X32834000Y-64397000D01*
X39918000Y-64397000D01*
X39925000Y-64396000D01*
X39940000Y-64396000D01*
X39955000Y-64392000D01*
X39958000Y-64392000D01*
X39975000Y-64389000D01*
X39989000Y-64384000D01*
X39998000Y-64380000D01*
X40005000Y-64378000D01*
X40015000Y-64371000D01*
X40028000Y-64363000D01*
X40046000Y-64355000D01*
X40072000Y-64329000D01*
X40077000Y-64327000D01*
X41784000Y-62621000D01*
X41969000Y-62698000D01*
X41969000Y-63204000D01*
X41967000Y-63224000D01*
X41967000Y-63227000D01*
X41976000Y-63261000D01*
X41978000Y-63268000D01*
X41981000Y-63284000D01*
X41982000Y-63284000D01*
X41988000Y-63297000D01*
X41998000Y-63313000D01*
X42001000Y-63319000D01*
X42012000Y-63339000D01*
X42022000Y-63350000D01*
X42033000Y-63366000D01*
X42082000Y-63464000D01*
X41958000Y-63614000D01*
X41806000Y-63573000D01*
X41705000Y-63573000D01*
X41602000Y-63601000D01*
X41511000Y-63653000D01*
X41438000Y-63726000D01*
X41386000Y-63817000D01*
X41358000Y-63920000D01*
X41358000Y-64021000D01*
X41386000Y-64124000D01*
X41438000Y-64215000D01*
X41532000Y-64309000D01*
X41555000Y-64364000D01*
X41555000Y-65696000D01*
X41553000Y-65716000D01*
X41553000Y-65719000D01*
X41562000Y-65753000D01*
X41564000Y-65760000D01*
X41567000Y-65776000D01*
X41568000Y-65776000D01*
X41574000Y-65789000D01*
X41584000Y-65805000D01*
X41587000Y-65811000D01*
X41599000Y-65832000D01*
X41605000Y-65839000D01*
X43501000Y-67732000D01*
X43508000Y-67740000D01*
X43519000Y-67746000D01*
X43527000Y-67751000D01*
X43554000Y-67770000D01*
X43562000Y-67772000D01*
X43569000Y-67776000D01*
X43590000Y-67779000D01*
X43625000Y-67788000D01*
X43634000Y-67787000D01*
X44985000Y-67787000D01*
X44995000Y-67788000D01*
X45006000Y-67789000D01*
X45042000Y-67780000D01*
X45049000Y-67778000D01*
X45064000Y-67775000D01*
X45065000Y-67775000D01*
X45065000Y-67774000D01*
X45078000Y-67768000D01*
X45092000Y-67759000D01*
X45097000Y-67756000D01*
X45122000Y-67742000D01*
X45128000Y-67737000D01*
X51193000Y-61670000D01*
X51198000Y-61665000D01*
X51201000Y-61663000D01*
X51203000Y-61660000D01*
X51211000Y-61646000D01*
X51231000Y-61617000D01*
X51234000Y-61608000D01*
X51238000Y-61600000D01*
X51239000Y-61593000D01*
X51240000Y-61585000D01*
X51250000Y-61549000D01*
X51249000Y-61539000D01*
X51249000Y-58325000D01*
X51242000Y-58295000D01*
X51241000Y-58290000D01*
X51241000Y-58289000D01*
X51239000Y-58277000D01*
X51239000Y-58276000D01*
X51237000Y-58269000D01*
X51235000Y-58261000D01*
X51219000Y-58237000D01*
X51207000Y-58215000D01*
X51205000Y-58212000D01*
X51196000Y-58205000D01*
X51190000Y-58200000D01*
X51052000Y-58060000D01*
X51048000Y-58056000D01*
X51041000Y-58047000D01*
X51036000Y-58043000D01*
X51014000Y-58030000D01*
X51006000Y-58025000D01*
X50996000Y-58017000D01*
X50994000Y-58016000D01*
X50982000Y-58011000D01*
X50979000Y-58010000D01*
X50982000Y-58010000D01*
X50969000Y-58008000D01*
X50960000Y-58006000D01*
X50929000Y-57996000D01*
X50926000Y-57996000D01*
X50917000Y-57997000D01*
X50738000Y-57997000D01*
X50650000Y-57909000D01*
X50650000Y-56947000D01*
X47350000Y-56948000D01*
X47350000Y-59448000D01*
X48421000Y-59448000D01*
X48498000Y-59633000D01*
X44766000Y-63366000D01*
X44711000Y-63389000D01*
X42662000Y-63389000D01*
X42607000Y-63366000D01*
X42392000Y-63152000D01*
X42369000Y-63097000D01*
X42369000Y-62753000D01*
X42554000Y-62676000D01*
X42632000Y-62754000D01*
X42728000Y-62809000D01*
X42729000Y-62810000D01*
X42837000Y-62839000D01*
X42943000Y-62839000D01*
X43051000Y-62810000D01*
X43052000Y-62809000D01*
X43148000Y-62754000D01*
X43224000Y-62678000D01*
X43279000Y-62583000D01*
X43309000Y-62475000D01*
X43309000Y-62367000D01*
X43280000Y-62259000D01*
X43279000Y-62258000D01*
X43224000Y-62162000D01*
X43148000Y-62086000D01*
X43048000Y-62029000D01*
X42947000Y-62002000D01*
X42888000Y-62002000D01*
X42800000Y-61914000D01*
X42800000Y-61329000D01*
X44023000Y-61329000D01*
X44023000Y-62512000D01*
X44042000Y-62583000D01*
X44083000Y-62654000D01*
X44136000Y-62707000D01*
X44208000Y-62748000D01*
X44279000Y-62767000D01*
X44361000Y-62767000D01*
X44432000Y-62748000D01*
X44504000Y-62707000D01*
X44557000Y-62654000D01*
X44598000Y-62583000D01*
X44617000Y-62512000D01*
X44617000Y-61329000D01*
X44598000Y-61258000D01*
X44559000Y-61189000D01*
X44557000Y-61186000D01*
X44504000Y-61133000D01*
X44432000Y-61092000D01*
X44361000Y-61073000D01*
X44279000Y-61073000D01*
X44208000Y-61092000D01*
X44136000Y-61133000D01*
X44083000Y-61186000D01*
X44081000Y-61189000D01*
X44042000Y-61258000D01*
X44023000Y-61329000D01*
X42800000Y-61329000D01*
X42800000Y-60670000D01*
X42447000Y-60670000D01*
X42392000Y-60647000D01*
X42051000Y-60307000D01*
X42128000Y-60122000D01*
X42796000Y-60122000D01*
X42862000Y-60157000D01*
X42880000Y-60185000D01*
X42886000Y-60193000D01*
X42959000Y-60266000D01*
X43047000Y-60316000D01*
X43152000Y-60344000D01*
X43248000Y-60344000D01*
X43353000Y-60316000D01*
X43441000Y-60266000D01*
X43515000Y-60192000D01*
X43566000Y-60104000D01*
X43594000Y-59999000D01*
X43594000Y-59902000D01*
X43566000Y-59797000D01*
X43516000Y-59709000D01*
X43441000Y-59634000D01*
X43350000Y-59582000D01*
X43253000Y-59557000D01*
X43147000Y-59557000D01*
X43050000Y-59582000D01*
X42959000Y-59634000D01*
X42885000Y-59708000D01*
X42884000Y-59710000D01*
X42865000Y-59740000D01*
X42797000Y-59779000D01*
X42011000Y-59779000D01*
X41934000Y-59594000D01*
X43298000Y-58232000D01*
X43305000Y-58224000D01*
X43309000Y-58220000D01*
X43318000Y-58208000D01*
X43319000Y-58207000D01*
X43339000Y-58181000D01*
X43344000Y-58172000D01*
X43349000Y-58164000D01*
X43352000Y-58160000D01*
X43353000Y-58158000D01*
X43359000Y-58144000D01*
X43375000Y-58110000D01*
X43376000Y-58106000D01*
X43381000Y-58092000D01*
X43383000Y-58088000D01*
X43385000Y-58075000D01*
X43386000Y-58071000D01*
X43395000Y-58032000D01*
X43395000Y-58013000D01*
X43396000Y-58002000D01*
X43397000Y-57998000D01*
X43397000Y-54607000D01*
X43385000Y-54529000D01*
X43384000Y-54527000D01*
X43369000Y-54492000D01*
X43367000Y-54488000D01*
X43365000Y-54481000D01*
X43360000Y-54472000D01*
X43356000Y-54462000D01*
X43355000Y-54459000D01*
X43343000Y-54441000D01*
X43342000Y-54439000D01*
X43330000Y-54419000D01*
X43323000Y-54410000D01*
X43312000Y-54399000D01*
X43302000Y-54387000D01*
X43300000Y-54384000D01*
X41378000Y-52461000D01*
X41370000Y-52454000D01*
X41367000Y-52451000D01*
X41349000Y-52438000D01*
X41321000Y-52415000D01*
X41316000Y-52413000D01*
X41304000Y-52406000D01*
X41282000Y-52397000D01*
X41277000Y-52394000D01*
X41257000Y-52384000D01*
X41252000Y-52383000D01*
X41230000Y-52376000D01*
X41224000Y-52374000D01*
X41221000Y-52374000D01*
X41180000Y-52364000D01*
X41161000Y-52364000D01*
X41148000Y-52363000D01*
X41147000Y-52363000D01*
X41136000Y-52362000D01*
X40872000Y-52362000D01*
X40812000Y-52140000D01*
X40933000Y-52070000D01*
X40935000Y-52068000D01*
X41006000Y-51999000D01*
X41010000Y-51995000D01*
X41058000Y-51910000D01*
X41059000Y-51908000D01*
X41087000Y-51803000D01*
X41087000Y-51706000D01*
X41059000Y-51601000D01*
X41057000Y-51596000D01*
X41011000Y-51517000D01*
X41008000Y-51513000D01*
X40931000Y-51436000D01*
X40848000Y-51388000D01*
X40775000Y-51361000D01*
X40740000Y-51201000D01*
X41324000Y-50618000D01*
X41379000Y-50595000D01*
X41475000Y-50595000D01*
X41579000Y-50567000D01*
X41578000Y-50567000D01*
X41663000Y-50518000D01*
X41666000Y-50516000D01*
X41741000Y-50441000D01*
X41790000Y-50356000D01*
X41791000Y-50355000D01*
X41819000Y-50253000D01*
X41819000Y-50150000D01*
X41791000Y-50047000D01*
X41741000Y-49960000D01*
X41665000Y-49884000D01*
X41573000Y-49832000D01*
X41479000Y-49807000D01*
X41370000Y-49807000D01*
X41276000Y-49832000D01*
X41184000Y-49884000D01*
X41108000Y-49960000D01*
X41055000Y-50052000D01*
X41055000Y-50054000D01*
X41031000Y-50146000D01*
X41031000Y-50246000D01*
X41008000Y-50301000D01*
X40156000Y-51152000D01*
X40101000Y-51175000D01*
X39486000Y-51175000D01*
X39471000Y-51177000D01*
X39447000Y-51180000D01*
X39442000Y-51181000D01*
X39321000Y-51219000D01*
X39199000Y-51018000D01*
X41545000Y-48673000D01*
X41553000Y-48666000D01*
X41556000Y-48664000D01*
X41561000Y-48658000D01*
X41571000Y-48642000D01*
X41573000Y-48638000D01*
X41591000Y-48612000D01*
X41592000Y-48609000D01*
X41593000Y-48604000D01*
X41603000Y-48547000D01*
X41603000Y-48542000D01*
X41602000Y-48531000D01*
X41602000Y-42709000D01*
X41603000Y-42700000D01*
X41586000Y-42629000D01*
X41577000Y-42617000D01*
X41575000Y-42614000D01*
X41554000Y-42584000D01*
X41547000Y-42578000D01*
X41546000Y-42577000D01*
X41534000Y-42567000D01*
X41359000Y-42392000D01*
X41359000Y-42268000D01*
X42246000Y-41381000D01*
X42313000Y-41358000D01*
X42357000Y-41365000D01*
X42461000Y-41365000D01*
X42565000Y-41337000D01*
X42650000Y-41287000D01*
X42656000Y-41283000D01*
X42723000Y-41216000D01*
X42776000Y-41126000D01*
X42777000Y-41125000D01*
X42805000Y-41021000D01*
X42805000Y-40924000D01*
X42777000Y-40818000D01*
X42724000Y-40727000D01*
X42657000Y-40660000D01*
X42652000Y-40656000D01*
X42560000Y-40603000D01*
X42409000Y-40564000D01*
X42262000Y-40603000D01*
X42261000Y-40603000D01*
X42170000Y-40654000D01*
X42169000Y-40655000D01*
X42100000Y-40723000D01*
X42093000Y-40732000D01*
X42042000Y-40821000D01*
X42017000Y-40920000D01*
X42017000Y-41026000D01*
X42026000Y-41064000D01*
X42004000Y-41138000D01*
X41117000Y-42025000D01*
X40993000Y-42025000D01*
X40538000Y-41570000D01*
X40557000Y-41423000D01*
X40675000Y-41355000D01*
X40750000Y-41282000D01*
X40752000Y-41280000D01*
X40801000Y-41194000D01*
X40830000Y-41086000D01*
X40830000Y-40987000D01*
X40801000Y-40880000D01*
X40753000Y-40794000D01*
X40752000Y-40792000D01*
X40678000Y-40720000D01*
X40672000Y-40715000D01*
X40593000Y-40669000D01*
X40586000Y-40666000D01*
X40484000Y-40639000D01*
X40383000Y-40639000D01*
X40277000Y-40667000D01*
X40204000Y-40697000D01*
X40072000Y-40608000D01*
X40072000Y-40381000D01*
X40160000Y-40293000D01*
X44607000Y-40293000D01*
X44632000Y-40287000D01*
X44637000Y-40286000D01*
X44651000Y-40283000D01*
X44663000Y-40278000D01*
X44670000Y-40276000D01*
X44674000Y-40275000D01*
X44677000Y-40274000D01*
X44683000Y-40269000D01*
X44694000Y-40262000D01*
X44713000Y-40254000D01*
X44713000Y-40253000D01*
X44717000Y-40249000D01*
X44734000Y-40235000D01*
X44739000Y-40232000D01*
X44886524Y-40084000D01*
X45679000Y-40084000D01*
X45679000Y-40908000D01*
X45680000Y-40927000D01*
X45682000Y-40941000D01*
X45684000Y-40952000D01*
X45690000Y-40968000D01*
X45704000Y-40992000D01*
X45715000Y-41008000D01*
X45725000Y-41019000D01*
X45731000Y-41025000D01*
X45742000Y-41035000D01*
X45756000Y-41045000D01*
X45782000Y-41060000D01*
X45801000Y-41067000D01*
X45807000Y-41068000D01*
X45825000Y-41070000D01*
X45841000Y-41072000D01*
X45966000Y-41072000D01*
X46054000Y-41160000D01*
X46054000Y-41524000D01*
X46031000Y-41580000D01*
X45936000Y-41673000D01*
X45926000Y-41682000D01*
X45920000Y-41686000D01*
X45904000Y-41714000D01*
X45901000Y-41720000D01*
X45888000Y-41738000D01*
X45888000Y-41739000D01*
X45877000Y-41808000D01*
X45878000Y-41812000D01*
X45879000Y-41825000D01*
X45879000Y-43847000D01*
X45826000Y-43924000D01*
X45781000Y-43940000D01*
X45780000Y-43941000D01*
X45756000Y-43955000D01*
X45742000Y-43965000D01*
X45731000Y-43975000D01*
X45725000Y-43981000D01*
X45714000Y-43993000D01*
X45703000Y-44009000D01*
X45690000Y-44032000D01*
X45683000Y-44052000D01*
X45682000Y-44059000D01*
X45679000Y-44084000D01*
X45679000Y-44908000D01*
X45680000Y-44927000D01*
X45682000Y-44941000D01*
X45684000Y-44952000D01*
X45690000Y-44968000D01*
X45705000Y-44994000D01*
X45715000Y-45008000D01*
X45725000Y-45019000D01*
X45731000Y-45025000D01*
X45742000Y-45035000D01*
X45756000Y-45045000D01*
X45782000Y-45060000D01*
X45826000Y-45076000D01*
X45879000Y-45153000D01*
X45879000Y-47979000D01*
X45878000Y-47990000D01*
X45877000Y-47996000D01*
X45877000Y-48001000D01*
X45884000Y-48031000D01*
X45885000Y-48032000D01*
X45891000Y-48060000D01*
X45894000Y-48066000D01*
X45915000Y-48094000D01*
X45917000Y-48096000D01*
X45927000Y-48112000D01*
X45938000Y-48122000D01*
X45947000Y-48129000D01*
X47331000Y-49514000D01*
X47354000Y-49569000D01*
X47354000Y-50538000D01*
X47266000Y-50626000D01*
X47065000Y-50626000D01*
X47054000Y-50625000D01*
X47050000Y-50624000D01*
X47046000Y-50625000D01*
X46977000Y-50641000D01*
X46955000Y-50658000D01*
X46952000Y-50660000D01*
X46928000Y-50677000D01*
X46927000Y-50678000D01*
X46926000Y-50680000D01*
X46916000Y-50692000D01*
X46904000Y-50704000D01*
X46869000Y-50756000D01*
X46858000Y-50824000D01*
X46872000Y-50889000D01*
X46912000Y-50947000D01*
X46974000Y-50983000D01*
X47038000Y-50993000D01*
X47129000Y-50971000D01*
X47146000Y-50969000D01*
X47266000Y-50969000D01*
X47354000Y-51057000D01*
X47354000Y-52002000D01*
X47291000Y-52084000D01*
X47162000Y-52116000D01*
X47159000Y-52117000D01*
X47075000Y-52166000D01*
X46997000Y-52244000D01*
X46994000Y-52248000D01*
X46946000Y-52331000D01*
X46920000Y-52432000D01*
X46920000Y-52537000D01*
X46946000Y-52636000D01*
X46997000Y-52726000D01*
X47000000Y-52729000D01*
X47073000Y-52800000D01*
X47076000Y-52802000D01*
X47159000Y-52850000D01*
X47159000Y-52851000D01*
X47263000Y-52879000D01*
X47363000Y-52879000D01*
X47467000Y-52850000D01*
X47554000Y-52800000D01*
X47628000Y-52726000D01*
X47651000Y-52691000D01*
X47717000Y-52656000D01*
X48891000Y-52656000D01*
X48898000Y-52657000D01*
X48906000Y-52656000D01*
X48925000Y-52652000D01*
X48926000Y-52651000D01*
X48964000Y-52643000D01*
X48970000Y-52640000D01*
X48993000Y-52623000D01*
X48995000Y-52622000D01*
X49016000Y-52607000D01*
X49025000Y-52597000D01*
X49028000Y-52593000D01*
X49114000Y-52507000D01*
X49124000Y-52499000D01*
X49127000Y-52497000D01*
X49131000Y-52492000D01*
X49141000Y-52476000D01*
X49160000Y-52448000D01*
X49162000Y-52443000D01*
X49163000Y-52437000D01*
X49172000Y-52386000D01*
X49173000Y-52379000D01*
X49173000Y-52378000D01*
X49172000Y-52366000D01*
X49172000Y-52132000D01*
X49260000Y-52044000D01*
X50647000Y-52043000D01*
X50647000Y-51057000D01*
X50735000Y-50969000D01*
X51547000Y-50969000D01*
X51602000Y-50992000D01*
X55531000Y-54922000D01*
X55554000Y-54977000D01*
X55554000Y-55341000D01*
X55466000Y-55429000D01*
X55342000Y-55429000D01*
X55330000Y-55430000D01*
X55309000Y-55432000D01*
X55301000Y-55433000D01*
X55282000Y-55440000D01*
X55256000Y-55455000D01*
X55242000Y-55465000D01*
X55231000Y-55475000D01*
X55225000Y-55481000D01*
X55214000Y-55493000D01*
X55203000Y-55509000D01*
X55190000Y-55532000D01*
X55183000Y-55553000D01*
X55182000Y-55559000D01*
X55179000Y-55584000D01*
X55179000Y-56272000D01*
X55156000Y-56327000D01*
X54706000Y-56776000D01*
X54696000Y-56785000D01*
X54691000Y-56788000D01*
X54667000Y-56828000D01*
X54658000Y-56840000D01*
X54647000Y-56908000D01*
X54649000Y-56925000D01*
X54649000Y-58859000D01*
X54648000Y-58870000D01*
X54647000Y-58879000D01*
X54657000Y-58922000D01*
X54660000Y-58939000D01*
X54665000Y-58948000D01*
X54688000Y-58978000D01*
X54691000Y-58982000D01*
X54700000Y-58996000D01*
X54706000Y-59000000D01*
X54718000Y-59010000D01*
X55681000Y-59974000D01*
X55704000Y-60029000D01*
X55704000Y-61247000D01*
X57297000Y-61247000D01*
X57297000Y-59854000D01*
X56078000Y-59854000D01*
X56023000Y-59831000D01*
X55015000Y-58822000D01*
X54992000Y-58767000D01*
X54992000Y-57007000D01*
X55015000Y-56952000D01*
X55373000Y-56595000D01*
X55428000Y-56572000D01*
X56109000Y-56572000D01*
X56125000Y-56570000D01*
X56143000Y-56568000D01*
X56149000Y-56567000D01*
X56169000Y-56560000D01*
X56168000Y-56560000D01*
X56194000Y-56545000D01*
X56208000Y-56535000D01*
X56219000Y-56525000D01*
X56225000Y-56519000D01*
X56235000Y-56508000D01*
X56245000Y-56494000D01*
X56260000Y-56468000D01*
X56267000Y-56449000D01*
X56268000Y-56443000D01*
X56270000Y-56425000D01*
X56272000Y-56409000D01*
X56272000Y-55586000D01*
X56270000Y-55575000D01*
X56268000Y-55559000D01*
X56267000Y-55553000D01*
X56260000Y-55532000D01*
X56247000Y-55509000D01*
X56236000Y-55493000D01*
X56225000Y-55481000D01*
X56219000Y-55475000D01*
X56208000Y-55465000D01*
X56194000Y-55455000D01*
X56168000Y-55440000D01*
X56169000Y-55440000D01*
X56149000Y-55433000D01*
X56141000Y-55432000D01*
X56120000Y-55430000D01*
X56108000Y-55429000D01*
X55985000Y-55429000D01*
X55897000Y-55341000D01*
X55897000Y-54876000D01*
X55898000Y-54869000D01*
X55898000Y-54865000D01*
X55893000Y-54842000D01*
X55892000Y-54841000D01*
X55885000Y-54807000D01*
X55885000Y-54806000D01*
X55881000Y-54797000D01*
X55860000Y-54769000D01*
X55858000Y-54767000D01*
X55848000Y-54751000D01*
X55839000Y-54742000D01*
X55838000Y-54742000D01*
X55828000Y-54734000D01*
X51777000Y-50682000D01*
X51770000Y-50674000D01*
X51768000Y-50671000D01*
X51761000Y-50664000D01*
X51739000Y-50651000D01*
X51714000Y-50635000D01*
X51714000Y-50634000D01*
X51647000Y-50624000D01*
X51646000Y-50624000D01*
X51629000Y-50626000D01*
X50735000Y-50626000D01*
X50647000Y-50538000D01*
X50647000Y-49550000D01*
X49260000Y-49551000D01*
X49172000Y-49463000D01*
X49172000Y-49098000D01*
X49195000Y-49043000D01*
X51864000Y-46375000D01*
X51874000Y-46367000D01*
X51877000Y-46365000D01*
X51881000Y-46361000D01*
X51894000Y-46337000D01*
X51898000Y-46330000D01*
X51912000Y-46311000D01*
X51914000Y-46305000D01*
X51913000Y-46305000D01*
X51921000Y-46262000D01*
X51921000Y-46259000D01*
X51922000Y-46250000D01*
X51922000Y-44079000D01*
X51945000Y-44024000D01*
X51997000Y-43972000D01*
X51997000Y-43188000D01*
X52085000Y-43100000D01*
X52386000Y-43100000D01*
X52471000Y-43174000D01*
X52482000Y-43254000D01*
X52507000Y-43331000D01*
X52551000Y-43405000D01*
X52601000Y-43460000D01*
X52664000Y-43508000D01*
X52735000Y-43543000D01*
X52811000Y-43561000D01*
X52870000Y-43566000D01*
X56456000Y-43566000D01*
X56489000Y-43562000D01*
X56521000Y-43558000D01*
X56528000Y-43556000D01*
X56541000Y-43553000D01*
X56545000Y-43547000D01*
X56602000Y-43532000D01*
X56613000Y-43527000D01*
X56633000Y-43514000D01*
X56638000Y-43512000D01*
X56668000Y-43495000D01*
X56669000Y-43494000D01*
X56675000Y-43489000D01*
X56682000Y-43484000D01*
X56713000Y-43458000D01*
X56717000Y-43454000D01*
X58750000Y-41420000D01*
X58805000Y-41397000D01*
X59012000Y-41397000D01*
X59100000Y-41485000D01*
X59100000Y-41950000D01*
X59856000Y-41950000D01*
X59891000Y-42211000D01*
X59694000Y-42264000D01*
X59514000Y-42369000D01*
X59368000Y-42515000D01*
X59264000Y-42694000D01*
X59210000Y-42896000D01*
X59210000Y-43105000D01*
X59264000Y-43306000D01*
X59369000Y-43487000D01*
X59370000Y-43487000D01*
X59514000Y-43631000D01*
X59695000Y-43737000D01*
X59899000Y-43791000D01*
X60101000Y-43791000D01*
X60305000Y-43737000D01*
X60486000Y-43631000D01*
X60630000Y-43487000D01*
X60631000Y-43487000D01*
X60736000Y-43306000D01*
X60791000Y-43103000D01*
X60791000Y-42899000D01*
X60737000Y-42695000D01*
X60632000Y-42515000D01*
X60486000Y-42369000D01*
X60487000Y-42369000D01*
X60306000Y-42264000D01*
X60109000Y-42211000D01*
X60144000Y-41950000D01*
X60900000Y-41950000D01*
X60900000Y-40050000D01*
X59100000Y-40050000D01*
X59100000Y-40516000D01*
X59012000Y-40604000D01*
X58613000Y-40604000D01*
X58597000Y-40603000D01*
X58588000Y-40604000D01*
X58564000Y-40608000D01*
X58559000Y-40608000D01*
X58536000Y-40610000D01*
X58510000Y-40616000D01*
X58506000Y-40622000D01*
X58449000Y-40637000D01*
X58435000Y-40643000D01*
X58406000Y-40661000D01*
X58400000Y-40665000D01*
X58386000Y-40672000D01*
X58377000Y-40679000D01*
X58371000Y-40684000D01*
X58333000Y-40716000D01*
X56300000Y-42750000D01*
X56245000Y-42773000D01*
X54610000Y-42773000D01*
X54533000Y-42588000D01*
X54626000Y-42495000D01*
X54631000Y-42489000D01*
X54652000Y-42457000D01*
X54718000Y-42422000D01*
X55663000Y-42422000D01*
X55707000Y-42436000D01*
X55721000Y-42446000D01*
X55790000Y-42457000D01*
X55855000Y-42443000D01*
X55913000Y-42403000D01*
X55949000Y-42341000D01*
X55959000Y-42278000D01*
X55943000Y-42209000D01*
X55915000Y-42172000D01*
X55912000Y-42168000D01*
X55872000Y-42126000D01*
X55869000Y-42123000D01*
X55864000Y-42117000D01*
X55842000Y-42104000D01*
X55817000Y-42088000D01*
X55817000Y-42087000D01*
X55750000Y-42077000D01*
X55749000Y-42077000D01*
X55732000Y-42079000D01*
X54717000Y-42079000D01*
X54649000Y-42040000D01*
X54632000Y-42012000D01*
X54629000Y-42008000D01*
X54556000Y-41935000D01*
X54464000Y-41882000D01*
X54367000Y-41857000D01*
X54261000Y-41857000D01*
X54164000Y-41882000D01*
X54072000Y-41935000D01*
X53999000Y-42008000D01*
X53996000Y-42012000D01*
X53979000Y-42040000D01*
X53911000Y-42079000D01*
X53079000Y-42079000D01*
X53024000Y-42056000D01*
X52972000Y-42004000D01*
X51929000Y-42004000D01*
X51929000Y-42312000D01*
X51841000Y-42400000D01*
X51825000Y-42400000D01*
X51825000Y-42841000D01*
X51737000Y-42929000D01*
X50163000Y-42929000D01*
X50075000Y-42841000D01*
X50075000Y-42500000D01*
X49001000Y-42500000D01*
X48946000Y-42477000D01*
X48863000Y-42394000D01*
X48808000Y-42354000D01*
X48802000Y-42351000D01*
X48746000Y-42332000D01*
X48738000Y-42331000D01*
X48675000Y-42330000D01*
X48604000Y-42350000D01*
X48570000Y-42374000D01*
X48503000Y-42386000D01*
X48384000Y-42353000D01*
X48284000Y-42353000D01*
X48182000Y-42381000D01*
X48091000Y-42432000D01*
X48016000Y-42505000D01*
X48014000Y-42508000D01*
X47965000Y-42594000D01*
X47965000Y-42596000D01*
X47937000Y-42702000D01*
X47937000Y-42801000D01*
X47965000Y-42905000D01*
X47967000Y-42909000D01*
X48016000Y-42995000D01*
X48091000Y-43068000D01*
X48182000Y-43119000D01*
X48284000Y-43147000D01*
X48385000Y-43147000D01*
X48487000Y-43119000D01*
X48578000Y-43068000D01*
X48648000Y-42999000D01*
X48703000Y-42977000D01*
X48970000Y-42977000D01*
X49025000Y-43000000D01*
X49916000Y-43000000D01*
X50004000Y-43088000D01*
X50004000Y-43972000D01*
X51491000Y-43972000D01*
X51579000Y-44060000D01*
X51579000Y-46143000D01*
X51556000Y-46198000D01*
X48886000Y-48867000D01*
X48876000Y-48875000D01*
X48873000Y-48877000D01*
X48872000Y-48878000D01*
X48854000Y-48907000D01*
X48852000Y-48910000D01*
X48837000Y-48931000D01*
X48827000Y-48999000D01*
X48829000Y-49016000D01*
X48829000Y-49463000D01*
X48741000Y-49551000D01*
X47886000Y-49552000D01*
X47831000Y-49529000D01*
X46245000Y-47942000D01*
X46222000Y-47887000D01*
X46222000Y-45160000D01*
X46310000Y-45072000D01*
X46609000Y-45072000D01*
X46625000Y-45070000D01*
X46643000Y-45068000D01*
X46649000Y-45067000D01*
X46669000Y-45060000D01*
X46668000Y-45060000D01*
X46694000Y-45045000D01*
X46708000Y-45035000D01*
X46719000Y-45025000D01*
X46725000Y-45019000D01*
X46735000Y-45008000D01*
X46745000Y-44994000D01*
X46760000Y-44968000D01*
X46766000Y-44952000D01*
X46768000Y-44943000D01*
X46770000Y-44925000D01*
X46772000Y-44909000D01*
X46772000Y-44086000D01*
X46770000Y-44075000D01*
X46768000Y-44059000D01*
X46767000Y-44052000D01*
X46760000Y-44032000D01*
X46747000Y-44009000D01*
X46736000Y-43993000D01*
X46725000Y-43981000D01*
X46719000Y-43975000D01*
X46708000Y-43965000D01*
X46694000Y-43955000D01*
X46670000Y-43941000D01*
X46669000Y-43940000D01*
X46649000Y-43933000D01*
X46641000Y-43932000D01*
X46620000Y-43930000D01*
X46608000Y-43929000D01*
X46310000Y-43929000D01*
X46222000Y-43841000D01*
X46222000Y-41905000D01*
X46245000Y-41849000D01*
X46343000Y-41753000D01*
X46351000Y-41746000D01*
X46354000Y-41744000D01*
X46368000Y-41719000D01*
X46388000Y-41691000D01*
X46389000Y-41686000D01*
X46388000Y-41686000D01*
X46398000Y-41629000D01*
X46398000Y-41626000D01*
X46397000Y-41615000D01*
X46397000Y-41160000D01*
X46485000Y-41072000D01*
X46609000Y-41072000D01*
X46625000Y-41070000D01*
X46643000Y-41068000D01*
X46651000Y-41066000D01*
X46735000Y-41038000D01*
X46767000Y-40947000D01*
X46768000Y-40943000D01*
X46770000Y-40925000D01*
X46772000Y-40913000D01*
X46772000Y-40086000D01*
X46770000Y-40075000D01*
X46768000Y-40059000D01*
X46767000Y-40052000D01*
X46760000Y-40032000D01*
X46747000Y-40009000D01*
X46736000Y-39993000D01*
X46725000Y-39981000D01*
X46719000Y-39975000D01*
X46708000Y-39965000D01*
X46694000Y-39955000D01*
X46668000Y-39940000D01*
X46669000Y-39940000D01*
X46649000Y-39933000D01*
X46643000Y-39932000D01*
X46625000Y-39930000D01*
X46609000Y-39928000D01*
X45841000Y-39928000D01*
X45825000Y-39930000D01*
X45807000Y-39932000D01*
X45801000Y-39933000D01*
X45782000Y-39940000D01*
X45756000Y-39955000D01*
X45742000Y-39965000D01*
X45731000Y-39975000D01*
X45725000Y-39981000D01*
X45714000Y-39993000D01*
X45703000Y-40009000D01*
X45690000Y-40032000D01*
X45683000Y-40052000D01*
X45682000Y-40059000D01*
X45679000Y-40084000D01*
X44886524Y-40084000D01*
X45359000Y-39610000D01*
X45414000Y-39587000D01*
X48934000Y-39587000D01*
X48989000Y-39610000D01*
X49977000Y-40598000D01*
X50000000Y-40653000D01*
X50000000Y-40912000D01*
X49912000Y-41000000D01*
X49025000Y-41000000D01*
X48970000Y-41023000D01*
X47395000Y-41023000D01*
X47370000Y-41029000D01*
X47365000Y-41030000D01*
X47351000Y-41033000D01*
X47339000Y-41038000D01*
X47332000Y-41040000D01*
X47328000Y-41041000D01*
X47326000Y-41042000D01*
X47318000Y-41048000D01*
X47303000Y-41057000D01*
X47289000Y-41063000D01*
X47278000Y-41074000D01*
X47223000Y-41097000D01*
X47124000Y-41097000D01*
X47022000Y-41124000D01*
X47016000Y-41126000D01*
X46886000Y-41204000D01*
X46885000Y-41203000D01*
X46806000Y-41340000D01*
X46778000Y-41445000D01*
X46778000Y-41544000D01*
X46807000Y-41652000D01*
X46857000Y-41739000D01*
X46859000Y-41741000D01*
X46932000Y-41812000D01*
X46936000Y-41815000D01*
X47015000Y-41861000D01*
X47022000Y-41864000D01*
X47124000Y-41891000D01*
X47224000Y-41891000D01*
X47330000Y-41863000D01*
X47329000Y-41863000D01*
X47420000Y-41811000D01*
X47468000Y-41763000D01*
X47523000Y-41740000D01*
X48470000Y-41740000D01*
X48495000Y-41734000D01*
X48500000Y-41733000D01*
X48512000Y-41730000D01*
X48523000Y-41726000D01*
X48536000Y-41721000D01*
X48540000Y-41720000D01*
X48544000Y-41718000D01*
X48552000Y-41713000D01*
X48559000Y-41709000D01*
X48575000Y-41701000D01*
X48584000Y-41693000D01*
X48590000Y-41688000D01*
X48601000Y-41680000D01*
X48602000Y-41679000D01*
X48605000Y-41677000D01*
X48779000Y-41500000D01*
X48835000Y-41477000D01*
X48941000Y-41477000D01*
X49029000Y-41565000D01*
X49029000Y-41997000D01*
X50072000Y-41997000D01*
X50072000Y-41535000D01*
X50075000Y-41528000D01*
X50075000Y-41163000D01*
X50163000Y-41075000D01*
X50500000Y-41075000D01*
X50500000Y-40040000D01*
X50588000Y-39952000D01*
X50912000Y-39952000D01*
X51000000Y-40040000D01*
X51000000Y-41075000D01*
X51528000Y-41075000D01*
X51535000Y-41072000D01*
X51841000Y-41072000D01*
X51929000Y-41160000D01*
X51929000Y-41497000D01*
X52972000Y-41497000D01*
X52972000Y-41004000D01*
X52085000Y-41004000D01*
X51997000Y-40916000D01*
X51997000Y-40029000D01*
X51571000Y-40029000D01*
X51485000Y-39953000D01*
X51477000Y-39882000D01*
X51475000Y-39874000D01*
X51472000Y-39865000D01*
X51468000Y-39839000D01*
X51467000Y-39834000D01*
X51464000Y-39828000D01*
X51460000Y-39818000D01*
X51458000Y-39810000D01*
X51451000Y-39799000D01*
X51445000Y-39789000D01*
X51440000Y-39777000D01*
X51438000Y-39774000D01*
X51435000Y-39771000D01*
X51425000Y-39759000D01*
X51416000Y-39746000D01*
X51220000Y-39552000D01*
X51217000Y-39550000D01*
X51214000Y-39546000D01*
X51213000Y-39545000D01*
X51191000Y-39532000D01*
X51188000Y-39530000D01*
X51172000Y-39519000D01*
X51169000Y-39518000D01*
X51155000Y-39512000D01*
X51149000Y-39509000D01*
X51137000Y-39507000D01*
X51130000Y-39505000D01*
X51109000Y-39498000D01*
X51101000Y-39498000D01*
X51092000Y-39497000D01*
X51081000Y-39496000D01*
X50592000Y-39496000D01*
X50537000Y-39473000D01*
X50468000Y-39404000D01*
X50380000Y-39354000D01*
X50276000Y-39326000D01*
X50175000Y-39326000D01*
X50070000Y-39354000D01*
X50068000Y-39355000D01*
X49981000Y-39404000D01*
X49978000Y-39407000D01*
X49908000Y-39479000D01*
X49818000Y-39631000D01*
X49672000Y-39650000D01*
X49206000Y-39184000D01*
X49206000Y-39183000D01*
X49190000Y-39175000D01*
X49168000Y-39159000D01*
X49167000Y-39158000D01*
X49166000Y-39158000D01*
X49145000Y-39149000D01*
X49140000Y-39146000D01*
X49134000Y-39145000D01*
X49124000Y-39143000D01*
X49103000Y-39135000D01*
X49092000Y-39135000D01*
X49083000Y-39134000D01*
X49072000Y-39133000D01*
X45264000Y-39133000D01*
X45239000Y-39139000D01*
X45234000Y-39140000D01*
X45220000Y-39143000D01*
X45208000Y-39148000D01*
X45201000Y-39150000D01*
X45197000Y-39151000D01*
X45195000Y-39152000D01*
X45187000Y-39158000D01*
X45172000Y-39167000D01*
X45157000Y-39173000D01*
X45145000Y-39184000D01*
X45138000Y-39189000D01*
X45131000Y-39195000D01*
X44512000Y-39816000D01*
X44457000Y-39839000D01*
X38715000Y-39839000D01*
X38660000Y-39816000D01*
X38503000Y-39659000D01*
X38522000Y-39512000D01*
X38654000Y-39436000D01*
X38728000Y-39362000D01*
X38779000Y-39274000D01*
X38808000Y-39167000D01*
X38808000Y-39069000D01*
X38780000Y-38963000D01*
X38729000Y-38873000D01*
X38657000Y-38801000D01*
X38599000Y-38772000D01*
X38568000Y-38634000D01*
X38608000Y-38583000D01*
X38663000Y-38489000D01*
X38664000Y-38487000D01*
X38692000Y-38382000D01*
X38692000Y-38238000D01*
X38697000Y-38236000D01*
X38614000Y-38092000D01*
X38613000Y-38090000D01*
X38539000Y-38014000D01*
X38451000Y-37964000D01*
X38449000Y-37963000D01*
X38345000Y-37935000D01*
X38239000Y-37935000D01*
X38178000Y-37944000D01*
X38075000Y-37854000D01*
X38075000Y-37756000D01*
X38073000Y-37734000D01*
X38070000Y-37704000D01*
X38069000Y-37699000D01*
X38057000Y-37667000D01*
X38026000Y-37610000D01*
X38041000Y-37512000D01*
X38307000Y-37246000D01*
X38362000Y-37223000D01*
X38845000Y-37223000D01*
X38934000Y-37319000D01*
X38928000Y-37398000D01*
X38928000Y-38191000D01*
X38915000Y-38195000D01*
X38963000Y-38255000D01*
X38975000Y-38269000D01*
X38981000Y-38275000D01*
X38992000Y-38285000D01*
X39006000Y-38295000D01*
X39032000Y-38310000D01*
X39051000Y-38317000D01*
X39059000Y-38318000D01*
X39080000Y-38320000D01*
X39092000Y-38321000D01*
X39908000Y-38321000D01*
X39920000Y-38320000D01*
X39941000Y-38318000D01*
X39949000Y-38317000D01*
X39969000Y-38310000D01*
X39968000Y-38310000D01*
X39994000Y-38295000D01*
X40008000Y-38285000D01*
X40019000Y-38275000D01*
X40025000Y-38269000D01*
X40035000Y-38258000D01*
X40045000Y-38244000D01*
X40060000Y-38218000D01*
X40066000Y-38202000D01*
X40068000Y-38193000D01*
X40070000Y-38175000D01*
X40072000Y-38163000D01*
X40072000Y-38034000D01*
X40160000Y-37946000D01*
X40792000Y-37946000D01*
X40803000Y-37947000D01*
X40807000Y-37948000D01*
X40809000Y-37947000D01*
X40878000Y-37931000D01*
X40877000Y-37931000D01*
X40900000Y-37914000D01*
X40902000Y-37913000D01*
X40923000Y-37898000D01*
X40932000Y-37889000D01*
X40932000Y-37888000D01*
X40940000Y-37878000D01*
X41444000Y-37374000D01*
X41454000Y-37366000D01*
X41457000Y-37364000D01*
X41461000Y-37359000D01*
X41471000Y-37343000D01*
X41489000Y-37316000D01*
X41493000Y-37306000D01*
X41493000Y-37304000D01*
X41503000Y-37247000D01*
X41502000Y-37238000D01*
X41502000Y-33819000D01*
X41503000Y-33813000D01*
X41503000Y-33809000D01*
X41499000Y-33791000D01*
X41498000Y-33789000D01*
X41489000Y-33748000D01*
X41487000Y-33742000D01*
X41465000Y-33713000D01*
X41463000Y-33711000D01*
X41453000Y-33695000D01*
X41447000Y-33690000D01*
X41446000Y-33689000D01*
X41434000Y-33679000D01*
X41196000Y-33441000D01*
X41273000Y-33256000D01*
X41453000Y-33256000D01*
X41550000Y-33231000D01*
X41641000Y-33179000D01*
X41741000Y-33079000D01*
X41764000Y-33023000D01*
X41804000Y-32877000D01*
X41895000Y-32815000D01*
X41969000Y-32823000D01*
X41986000Y-32825000D01*
X42041000Y-32825000D01*
X42129000Y-32913000D01*
X42129000Y-33032000D01*
X42106000Y-33087000D01*
X41987000Y-33207000D01*
X41957000Y-33275000D01*
X41932000Y-33374000D01*
X41932000Y-33479000D01*
X41957000Y-33575000D01*
X42010000Y-33667000D01*
X42083000Y-33740000D01*
X42086000Y-33742000D01*
X42175000Y-33793000D01*
X42272000Y-33818000D01*
X42378000Y-33818000D01*
X42475000Y-33793000D01*
X42564000Y-33742000D01*
X42567000Y-33740000D01*
X42640000Y-33667000D01*
X42691000Y-33578000D01*
X42719000Y-33473000D01*
X42719000Y-33378000D01*
X42691000Y-33272000D01*
X42640000Y-33183000D01*
X42545000Y-33088000D01*
X42522000Y-33033000D01*
X42522000Y-32913000D01*
X42610000Y-32825000D01*
X42664000Y-32825000D01*
X42679000Y-32823000D01*
X42703000Y-32820000D01*
X42708000Y-32819000D01*
X42744000Y-32807000D01*
X42745000Y-32807000D01*
X42771000Y-32790000D01*
X42772000Y-32790000D01*
X42782000Y-32784000D01*
X42786000Y-32781000D01*
X42807000Y-32764000D01*
X42814000Y-32757000D01*
X42830000Y-32738000D01*
X42840000Y-32722000D01*
X42840000Y-32721000D01*
X42854000Y-32700000D01*
X42857000Y-32694000D01*
X42868000Y-32662000D01*
X42870000Y-32653000D01*
X42871000Y-32649000D01*
X42871000Y-32648000D01*
X42875000Y-32616000D01*
X42875000Y-32484000D01*
X42963000Y-32396000D01*
X43082000Y-32396000D01*
X43137000Y-32419000D01*
X43234000Y-32516000D01*
X43325000Y-32568000D01*
X43422000Y-32593000D01*
X43528000Y-32593000D01*
X43625000Y-32568000D01*
X43716000Y-32516000D01*
X43813000Y-32419000D01*
X43868000Y-32396000D01*
X45779000Y-32396000D01*
X45790000Y-32395000D01*
X45844000Y-32386000D01*
X45904000Y-32352000D01*
X45944000Y-32305000D01*
X45949000Y-32298000D01*
X45970000Y-32240000D01*
X45971000Y-32236000D01*
X45973000Y-32168000D01*
X45948000Y-32102000D01*
X45908000Y-32052000D01*
X45904000Y-32048000D01*
X45848000Y-32015000D01*
X45846000Y-32014000D01*
X45792000Y-32004000D01*
X45782000Y-32003000D01*
X43867000Y-32003000D01*
X43812000Y-31980000D01*
X43716000Y-31884000D01*
X43628000Y-31834000D01*
X43524000Y-31806000D01*
X43426000Y-31806000D01*
X43322000Y-31834000D01*
X43234000Y-31884000D01*
X43138000Y-31980000D01*
X43083000Y-32003000D01*
X42963000Y-32003000D01*
X42875000Y-31915000D01*
X42875000Y-31790000D01*
X42873000Y-31771000D01*
X42870000Y-31748000D01*
X42870000Y-31747000D01*
X42857000Y-31705000D01*
X42840000Y-31679000D01*
X42840000Y-31678000D01*
X42832000Y-31665000D01*
X42814000Y-31643000D01*
X42811000Y-31640000D01*
X42788000Y-31620000D01*
X42784000Y-31618000D01*
X42772000Y-31610000D01*
X42771000Y-31610000D01*
X42745000Y-31593000D01*
X42744000Y-31593000D01*
X42708000Y-31581000D01*
X42703000Y-31580000D01*
X42679000Y-31577000D01*
X42664000Y-31575000D01*
X41986000Y-31575000D01*
X41971000Y-31577000D01*
X41947000Y-31580000D01*
X41942000Y-31581000D01*
X41906000Y-31593000D01*
X41905000Y-31593000D01*
X41879000Y-31610000D01*
X41878000Y-31610000D01*
X41866000Y-31618000D01*
X41862000Y-31620000D01*
X41841000Y-31638000D01*
X41773000Y-31724000D01*
X41572000Y-31653000D01*
X41572000Y-31150000D01*
X41792000Y-31089000D01*
X41854000Y-31192000D01*
X41865000Y-31208000D01*
X41875000Y-31219000D01*
X41881000Y-31225000D01*
X41892000Y-31235000D01*
X41906000Y-31245000D01*
X41932000Y-31260000D01*
X41951000Y-31267000D01*
X41959000Y-31268000D01*
X41980000Y-31270000D01*
X41992000Y-31271000D01*
X42658000Y-31271000D01*
X42670000Y-31270000D01*
X42691000Y-31268000D01*
X42699000Y-31267000D01*
X42719000Y-31260000D01*
X42718000Y-31260000D01*
X42744000Y-31245000D01*
X42758000Y-31235000D01*
X42769000Y-31225000D01*
X42775000Y-31219000D01*
X42785000Y-31208000D01*
X42795000Y-31194000D01*
X42810000Y-31168000D01*
X42816000Y-31152000D01*
X42818000Y-31143000D01*
X42820000Y-31125000D01*
X42822000Y-31109000D01*
X42822000Y-30959000D01*
X42910000Y-30871000D01*
X62756000Y-30871000D01*
X62811000Y-30894000D01*
X63893000Y-31977000D01*
X63901000Y-31987000D01*
X63903000Y-31990000D01*
X63904000Y-31991000D01*
X63933000Y-32009000D01*
X63936000Y-32011000D01*
X63957000Y-32026000D01*
X64024000Y-32036000D01*
X64025000Y-32036000D01*
X64042000Y-32034000D01*
X64445000Y-32034000D01*
X64521000Y-32087000D01*
X64744000Y-32666000D01*
X66511000Y-31988000D01*
X66156000Y-31060000D01*
X64523000Y-31686000D01*
X64496000Y-31691000D01*
X64124000Y-31691000D01*
X64069000Y-31668000D01*
X62987000Y-30585000D01*
X62980000Y-30577000D01*
X62978000Y-30574000D01*
X62971000Y-30567000D01*
X62949000Y-30554000D01*
X62928000Y-30540000D01*
X62920000Y-30537000D01*
X62918000Y-30537000D01*
X62864000Y-30528000D01*
X62860000Y-30527000D01*
X62857000Y-30527000D01*
X62842000Y-30528000D01*
X42910000Y-30528000D01*
X42822000Y-30440000D01*
X42822000Y-30286000D01*
X42820000Y-30275000D01*
X42818000Y-30259000D01*
X42817000Y-30253000D01*
X42810000Y-30232000D01*
X42797000Y-30209000D01*
X42786000Y-30193000D01*
X42775000Y-30181000D01*
X42770000Y-30176000D01*
X42758000Y-30165000D01*
X42744000Y-30155000D01*
X42718000Y-30140000D01*
X42719000Y-30140000D01*
X42699000Y-30133000D01*
X42693000Y-30132000D01*
X42675000Y-30130000D01*
X42659000Y-30128000D01*
X41991000Y-30128000D01*
X41975000Y-30130000D01*
X41957000Y-30132000D01*
X41951000Y-30133000D01*
X41932000Y-30140000D01*
X41906000Y-30155000D01*
X41892000Y-30165000D01*
X41880000Y-30176000D01*
X41875000Y-30181000D01*
X41864000Y-30193000D01*
X41853000Y-30209000D01*
X41840000Y-30232000D01*
X41833000Y-30253000D01*
X41832000Y-30259000D01*
X41830000Y-30280000D01*
X41829000Y-30284000D01*
X41829000Y-30440000D01*
X41741000Y-30528000D01*
X41662000Y-30528000D01*
X41655000Y-30527000D01*
X41634000Y-30528000D01*
X41523000Y-30528000D01*
X41516000Y-30529000D01*
X41462000Y-30540000D01*
X41459000Y-30541000D01*
X41331000Y-30628000D01*
X41172000Y-30543000D01*
X41172000Y-30286000D01*
X41170000Y-30275000D01*
X41168000Y-30259000D01*
X41167000Y-30253000D01*
X41160000Y-30232000D01*
X41147000Y-30209000D01*
X41136000Y-30193000D01*
X41125000Y-30181000D01*
X41120000Y-30176000D01*
X41108000Y-30165000D01*
X41094000Y-30155000D01*
X41068000Y-30140000D01*
X41069000Y-30140000D01*
X41049000Y-30133000D01*
X41043000Y-30132000D01*
X41025000Y-30130000D01*
X41009000Y-30128000D01*
X40935000Y-30128000D01*
X40847000Y-30040000D01*
X40847000Y-29581000D01*
X40848000Y-29572000D01*
X40848000Y-29562000D01*
X40846000Y-29555000D01*
X40846000Y-29554000D01*
X40835000Y-29505000D01*
X40834000Y-29501000D01*
X40833000Y-29499000D01*
X40822000Y-29485000D01*
X40820000Y-29482000D01*
X40799000Y-29452000D01*
X40789000Y-29443000D01*
X40788000Y-29442000D01*
X40778000Y-29434000D01*
X38540000Y-27195000D01*
X38533000Y-27187000D01*
X38532000Y-27185000D01*
X38524000Y-27177000D01*
X38502000Y-27164000D01*
X38481000Y-27150000D01*
X38473000Y-27147000D01*
X38471000Y-27147000D01*
X38417000Y-27138000D01*
X38413000Y-27137000D01*
X38410000Y-27137000D01*
X38395000Y-27138000D01*
X31411000Y-27138000D01*
X31404000Y-27139000D01*
X31350000Y-27150000D01*
X31347000Y-27151000D01*
X31294000Y-27187000D01*
X31290000Y-27192000D01*
X31255000Y-27247000D01*
X31244000Y-27313000D01*
X31245000Y-27316000D01*
X31259000Y-27382000D01*
X31299000Y-27438000D01*
X31358000Y-27473000D01*
X31409000Y-27481000D01*
X38309000Y-27481000D01*
X38364000Y-27504000D01*
X40091000Y-29232000D01*
X39975000Y-29431000D01*
X39805000Y-29385000D01*
X39704000Y-29385000D01*
X39601000Y-29413000D01*
X39514000Y-29463000D01*
X39439000Y-29538000D01*
X39436000Y-29542000D01*
X39388000Y-29626000D01*
X39360000Y-29729000D01*
X39360000Y-29832000D01*
X39388000Y-29933000D01*
X39438000Y-30020000D01*
X39514000Y-30096000D01*
X39606000Y-30148000D01*
X39700000Y-30173000D01*
X39804000Y-30173000D01*
X39842000Y-30164000D01*
X39918000Y-30185000D01*
X40156000Y-30424000D01*
X40179000Y-30479000D01*
X40179000Y-31108000D01*
X40180000Y-31127000D01*
X40182000Y-31141000D01*
X40184000Y-31152000D01*
X40190000Y-31168000D01*
X40205000Y-31194000D01*
X40215000Y-31208000D01*
X40225000Y-31219000D01*
X40231000Y-31225000D01*
X40242000Y-31235000D01*
X40256000Y-31245000D01*
X40282000Y-31260000D01*
X40301000Y-31267000D01*
X40309000Y-31268000D01*
X40330000Y-31270000D01*
X40342000Y-31271000D01*
X40416000Y-31271000D01*
X40504000Y-31359000D01*
X40504000Y-31540000D01*
X40416000Y-31628000D01*
X40341000Y-31628000D01*
X40325000Y-31630000D01*
X40307000Y-31632000D01*
X40301000Y-31633000D01*
X40282000Y-31640000D01*
X40256000Y-31655000D01*
X40242000Y-31665000D01*
X40231000Y-31675000D01*
X40225000Y-31681000D01*
X40214000Y-31693000D01*
X40202000Y-31711000D01*
X40190000Y-31732000D01*
X40183000Y-31752000D01*
X40182000Y-31759000D01*
X40179000Y-31784000D01*
X40179000Y-31940000D01*
X40091000Y-32028000D01*
X37878000Y-32028000D01*
X37871000Y-32027000D01*
X37865000Y-32028000D01*
X37767000Y-32051000D01*
X37650000Y-31892000D01*
X37708000Y-31792000D01*
X37711000Y-31786000D01*
X37724000Y-31768000D01*
X37729000Y-31758000D01*
X37730000Y-31755000D01*
X37733000Y-31749000D01*
X37736000Y-31742000D01*
X37747000Y-31691000D01*
X37829000Y-31625000D01*
X37914000Y-31625000D01*
X37929000Y-31623000D01*
X37953000Y-31620000D01*
X37958000Y-31619000D01*
X37994000Y-31607000D01*
X37995000Y-31607000D01*
X38021000Y-31590000D01*
X38022000Y-31590000D01*
X38032000Y-31584000D01*
X38036000Y-31581000D01*
X38057000Y-31564000D01*
X38064000Y-31557000D01*
X38079000Y-31539000D01*
X38090000Y-31522000D01*
X38090000Y-31521000D01*
X38107000Y-31495000D01*
X38107000Y-31494000D01*
X38118000Y-31462000D01*
X38121000Y-31448000D01*
X38123000Y-31432000D01*
X38125000Y-31418000D01*
X38125000Y-30586000D01*
X38123000Y-30571000D01*
X38121000Y-30552000D01*
X38120000Y-30546000D01*
X38108000Y-30507000D01*
X38090000Y-30479000D01*
X38090000Y-30478000D01*
X38081000Y-30464000D01*
X38064000Y-30443000D01*
X38061000Y-30440000D01*
X38037000Y-30419000D01*
X38036000Y-30419000D01*
X38034000Y-30418000D01*
X38022000Y-30410000D01*
X38021000Y-30410000D01*
X37995000Y-30393000D01*
X37994000Y-30393000D01*
X37958000Y-30381000D01*
X37953000Y-30380000D01*
X37929000Y-30377000D01*
X37914000Y-30375000D01*
X37248000Y-30375000D01*
X37193000Y-30352000D01*
X36607000Y-29765000D01*
X36602000Y-29761000D01*
X36592000Y-29751000D01*
X36574000Y-29740000D01*
X36568000Y-29736000D01*
X36554000Y-29726000D01*
X36541000Y-29720000D01*
X36533000Y-29716000D01*
X36530000Y-29715000D01*
X36507000Y-29709000D01*
X36504000Y-29708000D01*
X36493000Y-29705000D01*
X36485000Y-29704000D01*
X36479000Y-29704000D01*
X36461000Y-29702000D01*
X36456000Y-29701000D01*
X36038000Y-29701000D01*
X35950000Y-29613000D01*
X35950000Y-29250000D01*
X34350000Y-29250000D01*
X34350000Y-30600000D01*
X35950000Y-30600000D01*
X35950000Y-30236000D01*
X36038000Y-30148000D01*
X36325000Y-30148000D01*
X36380000Y-30171000D01*
X36902000Y-30694000D01*
X36925000Y-30749000D01*
X36925000Y-31418000D01*
X36926000Y-31425000D01*
X36940000Y-31493000D01*
X36850000Y-31603000D01*
X36587000Y-31603000D01*
X36580000Y-31604000D01*
X36565000Y-31604000D01*
X36550000Y-31608000D01*
X36547000Y-31608000D01*
X36530000Y-31611000D01*
X36516000Y-31616000D01*
X36514000Y-31617000D01*
X36507000Y-31619000D01*
X36505000Y-31620000D01*
X36500000Y-31622000D01*
X36485000Y-31632000D01*
X36474000Y-31638000D01*
X36458000Y-31645000D01*
X36448000Y-31655000D01*
X36443000Y-31659000D01*
X36436000Y-31665000D01*
X34440000Y-33660000D01*
X34437000Y-33665000D01*
X34423000Y-33679000D01*
X34413000Y-33697000D01*
X34409000Y-33702000D01*
X34399000Y-33716000D01*
X34395000Y-33726000D01*
X34391000Y-33735000D01*
X34390000Y-33737000D01*
X34389000Y-33740000D01*
X34384000Y-33764000D01*
X34382000Y-33768000D01*
X34379000Y-33780000D01*
X34378000Y-33788000D01*
X34377000Y-33801000D01*
X34376000Y-33809000D01*
X34376000Y-33887000D01*
X34288000Y-33975000D01*
X34156000Y-33975000D01*
X34138000Y-33977000D01*
X34128000Y-33978000D01*
X34059000Y-33978000D01*
X33971000Y-33890000D01*
X33971000Y-33137000D01*
X34012000Y-33067000D01*
X34056000Y-33042000D01*
X34121000Y-32977000D01*
X34126000Y-32970000D01*
X34178000Y-32880000D01*
X34203000Y-32786000D01*
X34203000Y-32676000D01*
X34180000Y-32587000D01*
X34179000Y-32584000D01*
X34128000Y-32491000D01*
X34060000Y-32421000D01*
X34050000Y-32414000D01*
X33963000Y-32364000D01*
X33964000Y-32364000D01*
X33859000Y-32336000D01*
X33738000Y-32336000D01*
X33650000Y-32248000D01*
X33650000Y-31000000D01*
X32050000Y-31000000D01*
X32050000Y-32126000D01*
X32027000Y-32181000D01*
X31756000Y-32452000D01*
X31592000Y-32413000D01*
X31557000Y-32305000D01*
X31540000Y-32279000D01*
X31540000Y-32278000D01*
X31533000Y-32266000D01*
X31514000Y-32243000D01*
X31509000Y-32238000D01*
X31488000Y-32220000D01*
X31484000Y-32218000D01*
X31472000Y-32210000D01*
X31471000Y-32210000D01*
X31445000Y-32193000D01*
X31444000Y-32193000D01*
X31408000Y-32181000D01*
X31403000Y-32180000D01*
X31379000Y-32177000D01*
X31364000Y-32175000D01*
X30748000Y-32175000D01*
X30693000Y-32152000D01*
X29648000Y-31106000D01*
X29625000Y-31051000D01*
X29625000Y-30189000D01*
X29623000Y-30171000D01*
X29621000Y-30152000D01*
X29620000Y-30145000D01*
X29608000Y-30107000D01*
X29590000Y-30079000D01*
X29590000Y-30078000D01*
X29582000Y-30065000D01*
X29564000Y-30043000D01*
X29561000Y-30040000D01*
X29537000Y-30019000D01*
X29536000Y-30019000D01*
X29534000Y-30018000D01*
X29522000Y-30010000D01*
X29521000Y-30010000D01*
X29495000Y-29993000D01*
X29494000Y-29993000D01*
X29458000Y-29981000D01*
X29453000Y-29980000D01*
X29429000Y-29977000D01*
X29414000Y-29975000D01*
X28636000Y-29975000D01*
X28621000Y-29977000D01*
X28597000Y-29980000D01*
X28592000Y-29981000D01*
X28555000Y-29993000D01*
X28529000Y-30010000D01*
X28528000Y-30010000D01*
X28516000Y-30018000D01*
X28514000Y-30019000D01*
X28513000Y-30019000D01*
X28489000Y-30040000D01*
X28486000Y-30043000D01*
X28409000Y-30134000D01*
X28213000Y-30062000D01*
X28213000Y-29517000D01*
X28236000Y-29462000D01*
X30486000Y-27212000D01*
X30489000Y-27208000D01*
X30498000Y-27199000D01*
X30510000Y-27180000D01*
X30514000Y-27174000D01*
X30524000Y-27160000D01*
X30530000Y-27147000D01*
X30534000Y-27139000D01*
X30537000Y-27123000D01*
X30540000Y-27111000D01*
X30545000Y-27096000D01*
X30547000Y-27071000D01*
X30547000Y-27067000D01*
X30548000Y-27060000D01*
X30548000Y-25915000D01*
X30623000Y-25830000D01*
X30703000Y-25820000D01*
X30708000Y-25819000D01*
X30744000Y-25807000D01*
X30745000Y-25807000D01*
X30771000Y-25790000D01*
X30772000Y-25790000D01*
X30782000Y-25784000D01*
X30786000Y-25781000D01*
X30845000Y-25731000D01*
X30955000Y-25731000D01*
X31014000Y-25781000D01*
X31018000Y-25784000D01*
X31028000Y-25790000D01*
X31029000Y-25790000D01*
X31055000Y-25807000D01*
X31092000Y-25819000D01*
X31097000Y-25820000D01*
X31121000Y-25823000D01*
X31136000Y-25825000D01*
X31914000Y-25825000D01*
X31929000Y-25823000D01*
X31953000Y-25820000D01*
X31958000Y-25819000D01*
X31994000Y-25807000D01*
X31995000Y-25807000D01*
X32021000Y-25790000D01*
X32022000Y-25790000D01*
X32032000Y-25784000D01*
X32036000Y-25781000D01*
X32057000Y-25764000D01*
X32064000Y-25757000D01*
X32081000Y-25737000D01*
X32090000Y-25722000D01*
X32090000Y-25721000D01*
X32104000Y-25700000D01*
X32107000Y-25694000D01*
X32118000Y-25662000D01*
X32121000Y-25648000D01*
X32123000Y-25632000D01*
X32125000Y-25614000D01*
X32125000Y-24786000D01*
X32123000Y-24771000D01*
X32120000Y-24748000D01*
X32119000Y-24742000D01*
X32107000Y-24705000D01*
X32090000Y-24679000D01*
X32090000Y-24678000D01*
X32082000Y-24665000D01*
X32064000Y-24643000D01*
X32059000Y-24638000D01*
X32037000Y-24619000D01*
X32036000Y-24619000D01*
X32034000Y-24618000D01*
X32022000Y-24610000D01*
X32021000Y-24610000D01*
X31995000Y-24593000D01*
X31994000Y-24593000D01*
X31958000Y-24581000D01*
X31953000Y-24580000D01*
X31929000Y-24577000D01*
X31914000Y-24575000D01*
X31136000Y-24575000D01*
X31121000Y-24577000D01*
X31097000Y-24580000D01*
X31092000Y-24581000D01*
X31055000Y-24593000D01*
X31029000Y-24610000D01*
X31028000Y-24610000D01*
X31016000Y-24618000D01*
X31014000Y-24619000D01*
X30955000Y-24669000D01*
X30845000Y-24669000D01*
X30786000Y-24619000D01*
X30784000Y-24618000D01*
X30772000Y-24610000D01*
X30771000Y-24610000D01*
X30745000Y-24593000D01*
X30744000Y-24593000D01*
X30708000Y-24581000D01*
X30703000Y-24580000D01*
X30679000Y-24577000D01*
X30664000Y-24575000D01*
X30048000Y-24575000D01*
X29993000Y-24552000D01*
X29421000Y-23979000D01*
X29417000Y-23976000D01*
X29407000Y-23966000D01*
X29389000Y-23955000D01*
X29383000Y-23951000D01*
X29369000Y-23941000D01*
X29356000Y-23935000D01*
X29348000Y-23931000D01*
X29345000Y-23930000D01*
X29322000Y-23924000D01*
X29319000Y-23923000D01*
X29308000Y-23920000D01*
X29300000Y-23919000D01*
X29294000Y-23919000D01*
X29276000Y-23917000D01*
X29271000Y-23916000D01*
X26177000Y-23916000D01*
X26170000Y-23917000D01*
X26155000Y-23917000D01*
X26140000Y-23921000D01*
X26137000Y-23921000D01*
X26120000Y-23924000D01*
X26106000Y-23929000D01*
X26097000Y-23933000D01*
X26090000Y-23935000D01*
X26080000Y-23942000D01*
X26067000Y-23950000D01*
X26049000Y-23958000D01*
X26048000Y-23959000D01*
X26038000Y-23968000D01*
X26033000Y-23972000D01*
X26027000Y-23977000D01*
X23856000Y-26147000D01*
X23801000Y-26170000D01*
X22555000Y-26170000D01*
X22555000Y-27830000D01*
X23008000Y-27830000D01*
X23096000Y-27918000D01*
X23096000Y-28105000D01*
X23073000Y-28160000D01*
X22766000Y-28469000D01*
X22580000Y-28392000D01*
X22580000Y-28210000D01*
X19490000Y-28210000D01*
X19490000Y-29250000D01*
X22580000Y-29250000D01*
X22580000Y-29041000D01*
X22668000Y-28953000D01*
X22845000Y-28953000D01*
X22865000Y-28948000D01*
X22872000Y-28946000D01*
X22890000Y-28943000D01*
X22896000Y-28941000D01*
X22901000Y-28939000D01*
X22913000Y-28934000D01*
X22923000Y-28927000D01*
X22932000Y-28922000D01*
X22950000Y-28914000D01*
X22952000Y-28912000D01*
X22960000Y-28905000D01*
X22961000Y-28904000D01*
X22970000Y-28897000D01*
X22974000Y-28894000D01*
X22977000Y-28892000D01*
X23489000Y-28378000D01*
X23494000Y-28371000D01*
X23501000Y-28360000D01*
X23504000Y-28355000D01*
X23521000Y-28331000D01*
X23521000Y-28330000D01*
X23526000Y-28317000D01*
X23530000Y-28311000D01*
X23532000Y-28297000D01*
X23535000Y-28285000D01*
X23540000Y-28270000D01*
X23541000Y-28257000D01*
X23541000Y-28255000D01*
X23543000Y-28240000D01*
X23543000Y-27918000D01*
X23631000Y-27830000D01*
X24085000Y-27830000D01*
X24085000Y-26583000D01*
X24108000Y-26528000D01*
X26251000Y-24386000D01*
X26306000Y-24363000D01*
X28317000Y-24363000D01*
X28377000Y-24586000D01*
X28263000Y-24651000D01*
X28242000Y-24665000D01*
X28231000Y-24675000D01*
X28225000Y-24681000D01*
X28214000Y-24693000D01*
X28202000Y-24711000D01*
X28190000Y-24732000D01*
X28183000Y-24752000D01*
X28182000Y-24759000D01*
X28178000Y-24795000D01*
X28178000Y-24940000D01*
X28090000Y-25028000D01*
X27835000Y-25028000D01*
X27828000Y-25027000D01*
X27807000Y-25028000D01*
X27111000Y-25028000D01*
X27104000Y-25027000D01*
X27096000Y-25028000D01*
X27077000Y-25032000D01*
X27076000Y-25033000D01*
X27038000Y-25041000D01*
X27032000Y-25044000D01*
X27009000Y-25061000D01*
X27007000Y-25062000D01*
X26986000Y-25077000D01*
X26977000Y-25087000D01*
X26969000Y-25097000D01*
X25321000Y-26744000D01*
X25311000Y-26752000D01*
X25308000Y-26754000D01*
X25307000Y-26755000D01*
X25289000Y-26783000D01*
X25288000Y-26785000D01*
X25273000Y-26808000D01*
X25268000Y-26837000D01*
X25264000Y-26861000D01*
X25262000Y-26879000D01*
X25263000Y-26889000D01*
X25263000Y-29599000D01*
X25240000Y-29654000D01*
X23818000Y-31075000D01*
X23763000Y-31098000D01*
X22614000Y-31098000D01*
X22526000Y-31010000D01*
X22526000Y-30803000D01*
X19543000Y-30803000D01*
X19543000Y-31453000D01*
X19358000Y-31530000D01*
X18930000Y-31101000D01*
X18922000Y-31095000D01*
X18906000Y-31085000D01*
X18902000Y-31083000D01*
X18884000Y-31070000D01*
X18882000Y-31069000D01*
X18869000Y-31064000D01*
X18862000Y-31060000D01*
X18839000Y-31054000D01*
X18836000Y-31053000D01*
X18825000Y-31050000D01*
X18817000Y-31049000D01*
X18811000Y-31049000D01*
X18793000Y-31047000D01*
X18788000Y-31046000D01*
X18598000Y-31046000D01*
X18510000Y-30958000D01*
X18510000Y-30750000D01*
X18457000Y-30697000D01*
X18457000Y-30573000D01*
X18571000Y-30459000D01*
X18671000Y-30446000D01*
X18752000Y-30492000D01*
X18754000Y-30493000D01*
X18859000Y-30521000D01*
X18959000Y-30521000D01*
X19064000Y-30493000D01*
X19063000Y-30493000D01*
X19148000Y-30444000D01*
X19150000Y-30443000D01*
X19225000Y-30368000D01*
X19275000Y-30282000D01*
X19303000Y-30177000D01*
X19303000Y-30078000D01*
X19277000Y-29978000D01*
X19277000Y-29977000D01*
X19225000Y-29887000D01*
X19223000Y-29885000D01*
X19151000Y-29811000D01*
X19149000Y-29810000D01*
X19065000Y-29762000D01*
X19063000Y-29761000D01*
X18958000Y-29733000D01*
X18860000Y-29733000D01*
X18755000Y-29761000D01*
X18750000Y-29763000D01*
X18740000Y-29768000D01*
X18706000Y-29776000D01*
X18598000Y-29776000D01*
X18510000Y-29688000D01*
X18510000Y-29480000D01*
X18434000Y-29480000D01*
X18357000Y-29295000D01*
X18456000Y-29196000D01*
X18456000Y-28263000D01*
X15473000Y-28263000D01*
X15473000Y-29196000D01*
X15572000Y-29295000D01*
X15495000Y-29480000D01*
X15420000Y-29480000D01*
X12485572Y-29480000D01*
X12745000Y-28717000D01*
X12748000Y-28708000D01*
X14449000Y-25259000D01*
X14454000Y-25251000D01*
X16593000Y-22048000D01*
X16599000Y-22040000D01*
X16917362Y-21677000D01*
X56978000Y-21677000D01*
X56984000Y-21740000D01*
X57015000Y-21806000D01*
X57062000Y-21854000D01*
X57063000Y-21855000D01*
X57116000Y-21880000D01*
X57126000Y-21883000D01*
X57190000Y-21890000D01*
X57256000Y-21873000D01*
X57255000Y-21873000D01*
X57310000Y-21836000D01*
X57751000Y-21395000D01*
X57963000Y-21596000D01*
X57538000Y-22066000D01*
X57539000Y-22068000D01*
X57692000Y-22206000D01*
X57696000Y-22335000D01*
X57610000Y-22420000D01*
X57555000Y-22443000D01*
X57420000Y-22443000D01*
X57317000Y-22471000D01*
X57230000Y-22521000D01*
X57154000Y-22597000D01*
X57102000Y-22689000D01*
X57077000Y-22783000D01*
X57077000Y-22892000D01*
X57102000Y-22987000D01*
X57105000Y-22994000D01*
X57153000Y-23077000D01*
X57154000Y-23079000D01*
X57226000Y-23150000D01*
X57319000Y-23205000D01*
X57323000Y-23207000D01*
X57415000Y-23231000D01*
X57526000Y-23231000D01*
X57618000Y-23207000D01*
X57622000Y-23205000D01*
X57715000Y-23150000D01*
X57787000Y-23079000D01*
X57788000Y-23077000D01*
X57836000Y-22994000D01*
X57865000Y-22888000D01*
X57865000Y-22753000D01*
X57888000Y-22698000D01*
X57996000Y-22590000D01*
X58116000Y-22587000D01*
X58356000Y-22803000D01*
X59694000Y-21318000D01*
X59694000Y-21317000D01*
X58876000Y-20581000D01*
X58422000Y-21087000D01*
X58293000Y-21091000D01*
X58129000Y-20927000D01*
X58125000Y-20922000D01*
X58103000Y-20909000D01*
X58100000Y-20906000D01*
X58079000Y-20892000D01*
X58075000Y-20890000D01*
X58067000Y-20887000D01*
X58053000Y-20884000D01*
X58049000Y-20883000D01*
X58015000Y-20874000D01*
X58010000Y-20874000D01*
X58001000Y-20875000D01*
X57795000Y-20875000D01*
X57784000Y-20874000D01*
X57782000Y-20874000D01*
X57751000Y-20882000D01*
X57744000Y-20884000D01*
X57730000Y-20886000D01*
X57726000Y-20888000D01*
X57714000Y-20893000D01*
X57696000Y-20905000D01*
X57690000Y-20908000D01*
X57668000Y-20920000D01*
X57660000Y-20930000D01*
X57033000Y-21557000D01*
X57029000Y-21562000D01*
X56997000Y-21607000D01*
X56978000Y-21677000D01*
X16917362Y-21677000D01*
X19138000Y-19145000D01*
X19145000Y-19138000D01*
X22040000Y-16599000D01*
X22048000Y-16593000D01*
X25251000Y-14454000D01*
X25259000Y-14449000D01*
X28708000Y-12748000D01*
X28717000Y-12745000D01*
X32361000Y-11506000D01*
X32371000Y-11504000D01*
X36137000Y-10756000D01*
X36146000Y-10755000D01*
X39995000Y-10502000D01*
X40005000Y-10502000D01*
X43854000Y-10755000D01*
X43863000Y-10756000D01*
X47629000Y-11504000D01*
X47639000Y-11506000D01*
X51283000Y-12745000D01*
X51292000Y-12748000D01*
X54741000Y-14449000D01*
X54749000Y-14454000D01*
X57952000Y-16593000D01*
X57960000Y-16599000D01*
X60855000Y-19138000D01*
X60862000Y-19145000D01*
X63401000Y-22040000D01*
X63407000Y-22048000D01*
X65546000Y-25251000D01*
X65551000Y-25259000D01*
X67252000Y-28708000D01*
X67255000Y-28717000D01*
X68494000Y-32361000D01*
X68496000Y-32371000D01*
X69244000Y-36137000D01*
X69245000Y-36146000D01*
X69498000Y-39995000D01*
X69498000Y-40005000D01*
X69245000Y-43854000D01*
X69244000Y-43863000D01*
X68496000Y-47629000D01*
X68494000Y-47639000D01*
X67255000Y-51283000D01*
X67252000Y-51292000D01*
X65551000Y-54741000D01*
X65546000Y-54749000D01*
X63407000Y-57952000D01*
X63401000Y-57960000D01*
X60862000Y-60855000D01*
X60855000Y-60862000D01*
X57960000Y-63401000D01*
X57952000Y-63407000D01*
X54749000Y-65546000D01*
X54741000Y-65551000D01*
X51292000Y-67252000D01*
X51283000Y-67255000D01*
X47639000Y-68494000D01*
X47629000Y-68496000D01*
X43863000Y-69244000D01*
X43854000Y-69245000D01*
X40005000Y-69498000D01*
G37*
%TD.AperFunction*%
%TD*%
M02*
