%TF.GenerationSoftware,Flux,Flux PCB Export,1*%
%TF.CreationDate,2026-09-04T00:22:20+00:00*%
%TF.ProjectId,input,696e7075-742e-46b6-9963-61645f706362,rev?*%
%TF.SameCoordinates,Original*%
%TF.FileFunction,Paste,Top*%
%TF.FilePolarity,Positive*%
%FSLAX46Y46*%
G04 Gerber Fmt 4.6, Leading zero omitted, Abs format (unit mm)*
G04 Filename: claude-handset*
G04 Build it with Flux! Visit our site at: https://www.flux.ai (Flux) date 2026-09-04 00:22:20*
%MOMM*%
%LPD*%
G01*
G04 APERTURE LIST*
G04 Aperture macros list*
%AMRoundRect*
0 Rectangle with rounded corners*
0 $1 Rounding radius*
0 $2 $3 $4 $5 $6 $7 $8 $9 X,Y pos of 4 corners*
0 Add a 4 corners polygon primitive as box body*
4,1,4,$2,$3,$4,$5,$6,$7,$8,$9,$2,$3,0*
0 Add four circle primitives for the rounded corners*
1,1,$1+$1,$2,$3*
1,1,$1+$1,$4,$5*
1,1,$1+$1,$6,$7*
1,1,$1+$1,$8,$9*
0 Add four rect primitives between the rounded corners*
20,1,$1+$1,$2,$3,$4,$5,0*
20,1,$1+$1,$4,$5,$6,$7,0*
20,1,$1+$1,$6,$7,$8,$9,0*
20,1,$1+$1,$8,$9,$2,$3,0*%
%AMRotRect*
0 Rectangle, with rotation*
0 The origin of the aperture is its center*
0 $1 length*
0 $2 width*
0 $3 Rotation angle, in degrees counterclockwise*
0 Add horizontal line*
21,1,$1,$2,0,0,$3*%
G04 Aperture macros list end*
%ADD10C,0.000000*%
%ADD11RoundRect,0.071200X0.403800X-0.378800X0.403800X0.378800X-0.403800X0.378800X-0.403800X-0.378800X0*%
%ADD12R,1.230000X1.360000*%
%ADD13RoundRect,0.071200X-0.378800X-0.403800X0.378800X-0.403800X0.378800X0.403800X-0.378800X0.403800X0*%
%ADD14R,3.100000X2.300000*%
%ADD15C,1.400000*%
%ADD16R,1.400000X1.500000*%
%ADD17R,0.875000X0.950000*%
%ADD18RoundRect,0.108700X-0.391300X-0.616300X0.391300X-0.616300X0.391300X0.616300X-0.391300X0.616300X0*%
%ADD19R,0.600000X1.150000*%
%ADD20R,0.300000X1.150000*%
%ADD21O,1.000000X2.100000*%
%ADD22RoundRect,0.135000X-0.365000X-0.765000X0.365000X-0.765000X0.365000X0.765000X-0.365000X0.765000X0*%
%ADD23R,0.725000X0.522000*%
%ADD24RoundRect,0.071200X-0.328800X-0.403800X0.328800X-0.403800X0.328800X0.403800X-0.328800X0.403800X0*%
%ADD25R,1.400000X1.200000*%
%ADD26R,1.300000X1.050000*%
%ADD27RotRect,0.800000X1.700000X318.000000*%
%ADD28R,0.600000X0.280000*%
%ADD29R,0.300000X1.700000*%
%ADD30RoundRect,0.065600X0.034400X0.371900X-0.034400X0.371900X-0.034400X-0.371900X0.034400X-0.371900X0*%
%ADD31RoundRect,0.065600X0.371900X0.034400X-0.371900X0.034400X-0.371900X-0.034400X0.371900X-0.034400X0*%
%ADD32R,3.200000X3.200000*%
%ADD33R,1.060000X0.650000*%
%ADD34RotRect,0.800000X1.700000X291.000000*%
%ADD35R,0.650000X2.000000*%
%ADD36R,3.200000X2.000000*%
%ADD37R,0.300000X0.850000*%
%ADD38R,0.850000X0.300000*%
%ADD39R,1.250000X1.250000*%
%ADD40R,2.790000X0.740000*%
G04 APERTURE END LIST*
D10*
%TO.C,MK1*%
G36*
X21049300Y-50191500D02*
G01*
X21091300Y-50194500D01*
X21133300Y-50200500D01*
X21174300Y-50208500D01*
X21215300Y-50217500D01*
X21255300Y-50229500D01*
X21295300Y-50243500D01*
X21334300Y-50258500D01*
X21372300Y-50277500D01*
X21409300Y-50298500D01*
X21445300Y-50319500D01*
X21479300Y-50343500D01*
X21513300Y-50369500D01*
X21544300Y-50396500D01*
X21575300Y-50425500D01*
X21604300Y-50456500D01*
X21631300Y-50487500D01*
X21657300Y-50521500D01*
X21681300Y-50555500D01*
X21702300Y-50590500D01*
X21723300Y-50628500D01*
X21741300Y-50666500D01*
X21757300Y-50705500D01*
X21771300Y-50745500D01*
X21783300Y-50784500D01*
X21792300Y-50826500D01*
X21800300Y-50867500D01*
X21806300Y-50909500D01*
X21809300Y-50951500D01*
X21810300Y-50990500D01*
X21810300Y-51000500D01*
X21809300Y-51042500D01*
X21806300Y-51085500D01*
X21800300Y-51127500D01*
X21792300Y-51168500D01*
X21782300Y-51210500D01*
X21770300Y-51250500D01*
X21756300Y-51290500D01*
X21740300Y-51329500D01*
X21722300Y-51368500D01*
X21701300Y-51404500D01*
X21679300Y-51441500D01*
X21655300Y-51476500D01*
X21629300Y-51510500D01*
X21602300Y-51542500D01*
X21573300Y-51573500D01*
X21542300Y-51602500D01*
X21510300Y-51628500D01*
X21476300Y-51655500D01*
X21441300Y-51679500D01*
X21405300Y-51701500D01*
X21368300Y-51722500D01*
X21290300Y-51756500D01*
X21250300Y-51770500D01*
X21210300Y-51782500D01*
X21168300Y-51792500D01*
X21127300Y-51800500D01*
X21085300Y-51806500D01*
X21042300Y-51809500D01*
X21000300Y-51810500D01*
X20940300Y-51810500D01*
X20895300Y-51806500D01*
X20856300Y-51800500D01*
X20818300Y-51793500D01*
X20781300Y-51784500D01*
X20744300Y-51773500D01*
X20707300Y-51760500D01*
X20671300Y-51746500D01*
X20636300Y-51730500D01*
X20602300Y-51712500D01*
X20569300Y-51692500D01*
X20536300Y-51671500D01*
X20505300Y-51649500D01*
X20475300Y-51624500D01*
X20446300Y-51599500D01*
X20418300Y-51572500D01*
X20392300Y-51544500D01*
X20367300Y-51514500D01*
X20343300Y-51484500D01*
X20321300Y-51452500D01*
X20300300Y-51419500D01*
X20282300Y-51386500D01*
X20264300Y-51351500D01*
X20249300Y-51316500D01*
X20235300Y-51280500D01*
X20223300Y-51243500D01*
X20213300Y-51206500D01*
X20204300Y-51168500D01*
X20197300Y-51130500D01*
X20193300Y-51091500D01*
X20190300Y-51060500D01*
X20190300Y-50990500D01*
X20191300Y-50951500D01*
X20194300Y-50909500D01*
X20200300Y-50867500D01*
X20208300Y-50826500D01*
X20217300Y-50784500D01*
X20229300Y-50745500D01*
X20243300Y-50705500D01*
X20259300Y-50666500D01*
X20277300Y-50628500D01*
X20298300Y-50590500D01*
X20319300Y-50555500D01*
X20343300Y-50521500D01*
X20369300Y-50487500D01*
X20396300Y-50456500D01*
X20425300Y-50425500D01*
X20456300Y-50396500D01*
X20487300Y-50369500D01*
X20521300Y-50343500D01*
X20555300Y-50319500D01*
X20591300Y-50298500D01*
X20628300Y-50277500D01*
X20666300Y-50258500D01*
X20705300Y-50243500D01*
X20745300Y-50229500D01*
X20785300Y-50217500D01*
X20826300Y-50208500D01*
X20867300Y-50200500D01*
X20909300Y-50194500D01*
X20951300Y-50191500D01*
X20995300Y-50190500D01*
X20995300Y-50490500D01*
X20971300Y-50491500D01*
X20944300Y-50492500D01*
X20918300Y-50496500D01*
X20892300Y-50501500D01*
X20866300Y-50507500D01*
X20816300Y-50523500D01*
X20791300Y-50534500D01*
X20767300Y-50545500D01*
X20744300Y-50558500D01*
X20721300Y-50572500D01*
X20699300Y-50586500D01*
X20678300Y-50603500D01*
X20658300Y-50620500D01*
X20639300Y-50639500D01*
X20620300Y-50657500D01*
X20603300Y-50678500D01*
X20587300Y-50699500D01*
X20572300Y-50721500D01*
X20558300Y-50744500D01*
X20545300Y-50767500D01*
X20534300Y-50791500D01*
X20524300Y-50815500D01*
X20515300Y-50841500D01*
X20507300Y-50866500D01*
X20501300Y-50892500D01*
X20496300Y-50917500D01*
X20493300Y-50944500D01*
X20491300Y-50971500D01*
X20490300Y-51000500D01*
X20490300Y-51022500D01*
X20492300Y-51049500D01*
X20495300Y-51075500D01*
X20499300Y-51101500D01*
X20505300Y-51127500D01*
X20512300Y-51153500D01*
X20520300Y-51178500D01*
X20530300Y-51202500D01*
X20541300Y-51226500D01*
X20553300Y-51250500D01*
X20567300Y-51273500D01*
X20581300Y-51295500D01*
X20597300Y-51316500D01*
X20614300Y-51335500D01*
X20632300Y-51356500D01*
X20670300Y-51392500D01*
X20691300Y-51408500D01*
X20713300Y-51424500D01*
X20735300Y-51438500D01*
X20758300Y-51451500D01*
X20806300Y-51473500D01*
X20831300Y-51482500D01*
X20881300Y-51496500D01*
X20907300Y-51502500D01*
X20933300Y-51506500D01*
X20960300Y-51508500D01*
X20990300Y-51510500D01*
X21000300Y-51510500D01*
X21031300Y-51508500D01*
X21058300Y-51506500D01*
X21084300Y-51502500D01*
X21111300Y-51496500D01*
X21163300Y-51482500D01*
X21188300Y-51473500D01*
X21213300Y-51462500D01*
X21237300Y-51450500D01*
X21283300Y-51422500D01*
X21305300Y-51406500D01*
X21326300Y-51390500D01*
X21346300Y-51372500D01*
X21365300Y-51353500D01*
X21384300Y-51333500D01*
X21401300Y-51312500D01*
X21417300Y-51290500D01*
X21432300Y-51268500D01*
X21445300Y-51245500D01*
X21458300Y-51221500D01*
X21469300Y-51196500D01*
X21479300Y-51171500D01*
X21488300Y-51146500D01*
X21495300Y-51120500D01*
X21501300Y-51093500D01*
X21505300Y-51067500D01*
X21508300Y-51039500D01*
X21510300Y-51013500D01*
X21510300Y-50990500D01*
X21509300Y-50968500D01*
X21506300Y-50943500D01*
X21502300Y-50917500D01*
X21497300Y-50893500D01*
X21490300Y-50868500D01*
X21483300Y-50844500D01*
X21474300Y-50820500D01*
X21464300Y-50796500D01*
X21453300Y-50773500D01*
X21427300Y-50729500D01*
X21413300Y-50708500D01*
X21397300Y-50687500D01*
X21381300Y-50668500D01*
X21364300Y-50648500D01*
X21307300Y-50597500D01*
X21286300Y-50583500D01*
X21265300Y-50568500D01*
X21243300Y-50555500D01*
X21197300Y-50533500D01*
X21173300Y-50523500D01*
X21125300Y-50507500D01*
X21100300Y-50501500D01*
X21075300Y-50496500D01*
X21049300Y-50492500D01*
X21020300Y-50490500D01*
X21005300Y-50490500D01*
X21005300Y-50190500D01*
X21049300Y-50191500D01*
G37*
%TD*%
D11*
%TO.C,C17*%
X22000006Y-42275000D03*
X21999994Y-40725000D03*
%TD*%
D12*
%TO.C,SW4*%
X27180000Y-35500000D03*
X22820000Y-35500000D03*
%TD*%
D13*
%TO.C,C1*%
X55725000Y-56000000D03*
X57275000Y-56000000D03*
%TD*%
D12*
%TO.C,SW3*%
X27680000Y-27000000D03*
X23320000Y-27000000D03*
%TD*%
D14*
%TO.C,F1*%
X48999973Y-50797500D03*
X49000027Y-58197500D03*
%TD*%
D11*
%TO.C,C8*%
X28500006Y-40775000D03*
X28499994Y-39225000D03*
%TD*%
D15*
%TO.C,J3*%
X60000007Y-43000000D03*
D16*
X59999993Y-41000000D03*
%TD*%
D17*
%TO.C,FB1*%
X28787500Y-47400000D03*
X27212500Y-47400000D03*
%TD*%
D18*
%TO.C,C2*%
X31750000Y-56800000D03*
X33650000Y-56800000D03*
%TD*%
D19*
%TO.C,J1*%
X43200000Y-61345000D03*
X36800000Y-61345000D03*
D20*
X40250000Y-61345000D03*
D21*
X35680000Y-61920000D03*
D20*
X39250000Y-61345000D03*
X38750000Y-61345000D03*
X39750000Y-61345000D03*
D21*
X44320000Y-61920000D03*
D22*
X35680000Y-66100000D03*
D20*
X40750000Y-61345000D03*
X41750000Y-61345000D03*
D19*
X37600000Y-61345000D03*
D20*
X41250000Y-61345000D03*
D19*
X42400000Y-61345000D03*
D20*
X38250000Y-61345000D03*
D22*
X44320000Y-66100000D03*
%TD*%
D13*
%TO.C,C12*%
X37525000Y-31000000D03*
X39075000Y-31000000D03*
%TD*%
D23*
%TO.C,MK1*%
X21837500Y-49748000D03*
X20162500Y-48926000D03*
X21837500Y-48926000D03*
X20162500Y-49748000D03*
%TD*%
D24*
%TO.C,R6*%
X28825000Y-44000000D03*
X27175000Y-44000000D03*
%TD*%
D11*
%TO.C,C5*%
X39500006Y-40775000D03*
X39499994Y-39225000D03*
%TD*%
%TO.C,C11*%
%TD*%
D13*
%TO.C,C15*%
X35825000Y-43200000D03*
X37375000Y-43200000D03*
%TD*%
D18*
%TO.C,C3*%
X34850000Y-56800000D03*
X36750000Y-56800000D03*
%TD*%
D25*
%TO.C,D2*%
X56499989Y-57450000D03*
X56500011Y-60550000D03*
%TD*%
D24*
%TO.C,R5*%
X31025000Y-32800000D03*
X29375000Y-32800000D03*
%TD*%
%TO.C,R3*%
X39825000Y-55500000D03*
X38175000Y-55500000D03*
%TD*%
D13*
%TO.C,C9*%
X35825000Y-45000000D03*
X37375000Y-45000000D03*
%TD*%
D11*
%TO.C,C4*%
X39500006Y-37775000D03*
X39499994Y-36225000D03*
%TD*%
D26*
%TO.C,Y1*%
X35150000Y-29925000D03*
X32850000Y-29925000D03*
X32850000Y-31675000D03*
X35150000Y-31675000D03*
%TD*%
D24*
%TO.C,R15*%
X42325000Y-30700000D03*
X40675000Y-30700000D03*
%TD*%
D13*
%TO.C,C25*%
X46225000Y-44500000D03*
X47775000Y-44500000D03*
%TD*%
D24*
%TO.C,R9*%
X39825000Y-51800000D03*
X38175000Y-51800000D03*
%TD*%
D13*
%TO.C,C20*%
X31525000Y-25200000D03*
X33075000Y-25200000D03*
%TD*%
D27*
%TO.C,SW1*%
X58615837Y-21692033D03*
X56089163Y-19416967D03*
%TD*%
D13*
%TO.C,C13*%
X30225000Y-43200000D03*
X31775000Y-43200000D03*
%TD*%
D28*
%TO.C,U2*%
X23489998Y-41250011D03*
X23490006Y-42250011D03*
X23489994Y-40750011D03*
X23490002Y-41750011D03*
X26510002Y-41749989D03*
X26509998Y-41249989D03*
D29*
X25000000Y-41500000D03*
D28*
X26509994Y-40749989D03*
X26510006Y-42249989D03*
%TD*%
D30*
%TO.C,U1*%
X33399982Y-41437497D03*
D31*
X30562512Y-35799982D03*
D30*
X32999982Y-41437495D03*
X34200018Y-34562501D03*
X35399982Y-41437507D03*
X35000018Y-34562505D03*
D31*
X30562503Y-37399982D03*
X37437505Y-37000018D03*
D30*
X32600018Y-34562493D03*
X36199982Y-41437512D03*
D31*
X37437493Y-39400018D03*
X30562499Y-38199982D03*
D30*
X33000018Y-34562495D03*
X33400018Y-34562497D03*
X31800018Y-34562488D03*
D31*
X37437510Y-36200018D03*
X37437514Y-35400018D03*
D30*
X31399982Y-41437486D03*
X36599982Y-41437514D03*
X31400018Y-34562486D03*
D31*
X30562488Y-40199982D03*
X30562486Y-40599982D03*
D30*
X34600018Y-34562503D03*
D31*
X37437497Y-38600018D03*
D30*
X34999982Y-41437505D03*
X32599982Y-41437493D03*
D31*
X37437501Y-37800018D03*
X30562490Y-39799982D03*
D30*
X33799982Y-41437499D03*
D31*
X30562507Y-36599982D03*
X30562493Y-39399982D03*
X37437490Y-39800018D03*
D30*
X34599982Y-41437503D03*
D31*
X30562514Y-35399982D03*
X30562497Y-38599982D03*
X37437488Y-40200018D03*
X37437507Y-36600018D03*
D30*
X32199982Y-41437490D03*
D32*
X34000000Y-38000000D03*
D31*
X30562510Y-36199982D03*
X37437495Y-39000018D03*
D30*
X32200018Y-34562490D03*
X35400018Y-34562507D03*
X36600018Y-34562514D03*
D31*
X37437503Y-37400018D03*
D30*
X35799982Y-41437510D03*
D31*
X30562501Y-37799982D03*
D30*
X34199982Y-41437501D03*
D31*
X37437499Y-38200018D03*
X30562505Y-36999982D03*
X37437486Y-40600018D03*
D30*
X33800018Y-34562499D03*
X31799982Y-41437488D03*
X35800018Y-34562510D03*
D31*
X30562495Y-38999982D03*
D30*
X36200018Y-34562512D03*
D31*
X37437512Y-35800018D03*
%TD*%
D13*
%TO.C,C16*%
X30225000Y-45000000D03*
X31775000Y-45000000D03*
%TD*%
D24*
%TO.C,R4*%
X39825000Y-53800000D03*
X38175000Y-53800000D03*
%TD*%
D13*
%TO.C,C6*%
%TD*%
%TO.C,C10*%
X33025000Y-45000000D03*
X34575000Y-45000000D03*
%TD*%
D24*
%TO.C,R1*%
X35825000Y-58500000D03*
X34175000Y-58500000D03*
%TD*%
%TO.C,R2*%
X30325000Y-59000000D03*
X28675000Y-59000000D03*
%TD*%
D13*
%TO.C,C14*%
X33025000Y-43200000D03*
X34575000Y-43200000D03*
%TD*%
D33*
%TO.C,D1*%
X38400000Y-59450000D03*
X40600000Y-58500000D03*
X38400000Y-58500000D03*
X40600000Y-57550000D03*
X38400000Y-57550000D03*
X40600000Y-59450000D03*
%TD*%
D34*
%TO.C,SW2*%
X65449339Y-31863181D03*
X64230861Y-28689019D03*
%TD*%
D24*
%TO.C,R14*%
X42325000Y-32200000D03*
X40675000Y-32200000D03*
%TD*%
D13*
%TO.C,C18*%
X29025000Y-30600000D03*
X30575000Y-30600000D03*
%TD*%
D35*
%TO.C,U5*%
X35270022Y-54499991D03*
X34000022Y-54500000D03*
X31460022Y-54500019D03*
X36540022Y-54499981D03*
X32730022Y-54500009D03*
D36*
X33999978Y-48500000D03*
%TD*%
D37*
%TO.C,U3*%
X50250000Y-43450000D03*
X50750000Y-43450000D03*
D38*
X52450000Y-42250000D03*
X52450000Y-41250000D03*
D39*
X51000000Y-42000000D03*
D38*
X49550000Y-41250000D03*
D37*
X50750000Y-40550000D03*
D38*
X49550000Y-41750000D03*
D37*
X51250000Y-43450000D03*
D38*
X52450000Y-42750000D03*
X52450000Y-41750000D03*
D37*
X51250000Y-40550000D03*
X51750000Y-43450000D03*
D38*
X49550000Y-42250000D03*
D37*
X50250000Y-40550000D03*
D38*
X49550000Y-42750000D03*
D37*
X51750000Y-40550000D03*
%TD*%
D13*
%TO.C,C28*%
X21225000Y-47400000D03*
X22775000Y-47400000D03*
%TD*%
D24*
%TO.C,R8*%
X30325000Y-25200000D03*
X28675000Y-25200000D03*
%TD*%
D11*
%TO.C,C7*%
X28500006Y-37775000D03*
X28499994Y-36225000D03*
%TD*%
D13*
%TO.C,C29*%
X24225000Y-47400000D03*
X25775000Y-47400000D03*
%TD*%
D40*
%TO.C,J4*%
X21035009Y-31269985D03*
X16964991Y-28730015D03*
X16965000Y-30000015D03*
X21035000Y-29999985D03*
X16965009Y-31270015D03*
X21034991Y-28729985D03*
%TD*%
D24*
%TO.C,R7*%
X25825000Y-43500000D03*
X24175000Y-43500000D03*
%TD*%
D13*
%TO.C,C24*%
%TD*%
G04 --- patch 2 ---*
%ADD41R,0.500000X0.450000*%
D13*
X36930000Y-33100000D03*
X38470000Y-33100000D03*
X51530000Y-44600000D03*
X53070000Y-44600000D03*
D41*
X33550000Y-33500000D03*
X33550000Y-32600000D03*
M02*
