M48
; DRILL file Flux date 2026-09-04T00:22:23
; FORMAT={-:-/ absolute / metric / decimal}
; #@! TF.CreationDate,2026-09-04T00:22:23+00:00
; #@! TF.GenerationSoftware,Flux,Flux PCB Export,1
; #@! TF.FileFunction,MixedPlating,1,4
FMAT,2
METRIC
; #@! TA.AperFunction,Plated,PTH,ViaDrill
T1C0.300
; #@! TA.AperFunction,Plated,PTH,ComponentDrill
T2C0.300
; #@! TA.AperFunction,Plated,PTH,ComponentDrill
T3C0.600
; #@! TA.AperFunction,Plated,PTH,ComponentDrill
T4C0.850
; #@! TA.AperFunction,NonPlated,NPTH,ComponentDrill
T5C0.500
; #@! TA.AperFunction,NonPlated,NPTH,ComponentDrill
T6C0.650
%
G90
G05
T1
X18.591Y-48.665
X18.909Y-30.127
X19.569Y-32.057
X20.162Y-47.874
X20.924Y-43.185
X22.115Y-45.705
X22.309Y-37.323
X22.815Y-39.624
X22.933Y-30.0
X22.99Y-49.748
X23.845Y-38.381
X24.026Y-36.706
X24.084Y-40.326
X24.403Y-41.982
X24.627Y-38.817
X24.64Y-36.096
X24.944Y-34.038
X25.0Y-55.0
X25.629Y-40.05
X25.999Y-31.279
X26.51Y-44.896
X27.267Y-38.208
X27.4Y-39.911
X27.414Y-41.25
X28.8Y-43.128
X28.843Y-31.696
X29.595Y-26.12
X29.948Y-33.843
X30.393Y-28.889
X30.835Y-45.863
X31.496Y-36.125
X31.583Y-38.281
X31.583Y-39.021
X31.875Y-40.464
X32.138Y-35.406
X32.2Y-42.286
X32.536Y-32.729
X32.759Y-57.819
X33.034Y-45.911
X33.12Y-40.568
X33.4Y-35.712
X33.8Y-42.286
X34.250Y-32.730
X33.971Y-45.945
X34.2Y-40.588
X34.6Y-42.297
X35.154Y-35.537
X35.337Y-59.9
X35.588Y-42.254
X35.671Y-40.098
X35.954Y-51.063
X36.461Y-36.053
X36.54Y-53.078
X36.6Y-38.549
X36.603Y-37.8
X36.735Y-47.867
X37.287Y-53.753
X37.365Y-52.797
X37.47Y-59.69
X37.725Y-34.087
X38.294Y-38.332
X38.332Y-35.209
X38.4Y-56.8
X38.411Y-39.117
X38.475Y-49.691
X38.576Y-36.341
X32.700Y-38.350
X35.100Y-38.300
X34.000Y-37.400
X34.000Y-39.300
X34.200Y-44.100
X31.500Y-46.400
X27.210Y-48.200
X38.748Y-44.527
X39.003Y-54.678
X39.395Y-63.225
X39.623Y-58.5
X39.755Y-29.779
X39.823Y-46.652
X40.0Y-25.0
X40.433Y-41.036
X40.468Y-34.225
X40.621Y-53.362
X40.667Y-42.919
X40.693Y-51.754
X40.732Y-36.785
X41.375Y-41.002
X41.4Y-32.863
X41.424Y-50.2
X41.755Y-63.97
X41.782Y-55.637
X42.325Y-33.425
X42.343Y-47.138
X42.41Y-40.971
X43.475Y-32.2
X44.47Y-50.855
X45.365Y-31.437
X46.297Y-64.285
X47.175Y-41.494
X47.313Y-52.484
X48.147Y-46.957
X48.334Y-42.75
X48.893Y-40.436
X50.225Y-39.723
X54.314Y-42.25
X55.0Y-40.0
X55.0Y-55.0
X57.47Y-22.837
T2
X43.2Y-59.95
T4
X60.0Y-41.0
X60.0Y-43.0
T5
X21.0Y-51.0
T6
X37.11Y-62.42
X42.89Y-62.42
T3
X35.68Y-61.37G85X35.68Y-62.47
G05
X35.68Y-65.7G85X35.68Y-66.5
G05
X44.32Y-61.37G85X44.32Y-62.47
G05
X44.32Y-65.7G85X44.32Y-66.5
G05
M30
