%TF.GenerationSoftware,Flux,Flux PCB Export,1*%
%TF.CreationDate,2026-09-04T00:22:15+00:00*%
%TF.ProjectId,input,696e7075-742e-46b6-9963-61645f706362,rev?*%
%TF.SameCoordinates,Original*%
%TF.FileFunction,Profile,NP*%
%FSLAX46Y46*%
G04 Gerber Fmt 4.6, Leading zero omitted, Abs format (unit mm)*
G04 Filename: claude-handset*
G04 Build it with Flux! Visit our site at: https://www.flux.ai (Flux) date 2026-09-04 00:22:15*
%MOMM*%
%LPD*%
G01*
G04 APERTURE LIST*
%TA.AperFunction,Profile*%
%ADD10C,0.050000*%
%TD*%
G04 APERTURE END LIST*
D10*
X70000000Y-40000000D02*
X69963864Y-38527970D01*
X69963864Y-38527970D02*
X69855542Y-37059486D01*
X69855542Y-37059486D02*
X69675295Y-35598086D01*
X69675295Y-35598086D02*
X69423558Y-34147290D01*
X69423558Y-34147290D02*
X69100938Y-32710595D01*
X69100938Y-32710595D02*
X68708210Y-31291460D01*
X68708210Y-31291460D02*
X68246322Y-29893304D01*
X68246322Y-29893304D02*
X67716386Y-28519497D01*
X67716386Y-28519497D02*
X67119679Y-27173347D01*
X67119679Y-27173347D02*
X66457638Y-25858098D01*
X66457638Y-25858098D02*
X65731858Y-24576918D01*
X65731858Y-24576918D02*
X64944088Y-23332893D01*
X64944088Y-23332893D02*
X64096226Y-22129021D01*
X64096226Y-22129021D02*
X63190314Y-20968201D01*
X63190314Y-20968201D02*
X62228534Y-19853231D01*
X62228534Y-19853231D02*
X61213203Y-18786797D01*
X61213203Y-18786797D02*
X60146769Y-17771466D01*
X60146769Y-17771466D02*
X59031799Y-16809686D01*
X59031799Y-16809686D02*
X57870979Y-15903774D01*
X57870979Y-15903774D02*
X56667107Y-15055912D01*
X56667107Y-15055912D02*
X55423082Y-14268142D01*
X55423082Y-14268142D02*
X54141902Y-13542362D01*
X54141902Y-13542362D02*
X52826653Y-12880321D01*
X52826653Y-12880321D02*
X51480503Y-12283614D01*
X51480503Y-12283614D02*
X50106696Y-11753678D01*
X50106696Y-11753678D02*
X48708540Y-11291790D01*
X48708540Y-11291790D02*
X47289405Y-10899062D01*
X47289405Y-10899062D02*
X45852710Y-10576442D01*
X45852710Y-10576442D02*
X44401914Y-10324705D01*
X44401914Y-10324705D02*
X42940514Y-10144458D01*
X42940514Y-10144458D02*
X41472030Y-10036136D01*
X41472030Y-10036136D02*
X40000000Y-10000000D01*
X40000000Y-10000000D02*
X38527970Y-10036136D01*
X38527970Y-10036136D02*
X37059486Y-10144458D01*
X37059486Y-10144458D02*
X35598086Y-10324705D01*
X35598086Y-10324705D02*
X34147290Y-10576442D01*
X34147290Y-10576442D02*
X32710595Y-10899062D01*
X32710595Y-10899062D02*
X31291460Y-11291790D01*
X31291460Y-11291790D02*
X29893304Y-11753678D01*
X29893304Y-11753678D02*
X28519497Y-12283614D01*
X28519497Y-12283614D02*
X27173347Y-12880321D01*
X27173347Y-12880321D02*
X25858098Y-13542362D01*
X25858098Y-13542362D02*
X24576918Y-14268142D01*
X24576918Y-14268142D02*
X23332893Y-15055912D01*
X23332893Y-15055912D02*
X22129021Y-15903774D01*
X22129021Y-15903774D02*
X20968201Y-16809686D01*
X20968201Y-16809686D02*
X19853231Y-17771466D01*
X19853231Y-17771466D02*
X18786797Y-18786797D01*
X18786797Y-18786797D02*
X17771466Y-19853231D01*
X17771466Y-19853231D02*
X16809686Y-20968201D01*
X16809686Y-20968201D02*
X15903774Y-22129021D01*
X15903774Y-22129021D02*
X15055912Y-23332893D01*
X15055912Y-23332893D02*
X14268142Y-24576918D01*
X14268142Y-24576918D02*
X13542362Y-25858098D01*
X13542362Y-25858098D02*
X12880321Y-27173347D01*
X12880321Y-27173347D02*
X12283614Y-28519497D01*
X12283614Y-28519497D02*
X11753678Y-29893304D01*
X11753678Y-29893304D02*
X11291790Y-31291460D01*
X11291790Y-31291460D02*
X10899062Y-32710595D01*
X10899062Y-32710595D02*
X10576442Y-34147290D01*
X10576442Y-34147290D02*
X10324705Y-35598086D01*
X10324705Y-35598086D02*
X10144458Y-37059486D01*
X10144458Y-37059486D02*
X10036136Y-38527970D01*
X10036136Y-38527970D02*
X10000000Y-40000000D01*
X10000000Y-40000000D02*
X10036136Y-41472030D01*
X10036136Y-41472030D02*
X10144458Y-42940514D01*
X10144458Y-42940514D02*
X10324705Y-44401914D01*
X10324705Y-44401914D02*
X10576442Y-45852710D01*
X10576442Y-45852710D02*
X10899062Y-47289405D01*
X10899062Y-47289405D02*
X11291790Y-48708540D01*
X11291790Y-48708540D02*
X11753678Y-50106696D01*
X11753678Y-50106696D02*
X12283614Y-51480503D01*
X12283614Y-51480503D02*
X12880321Y-52826653D01*
X12880321Y-52826653D02*
X13542362Y-54141902D01*
X13542362Y-54141902D02*
X14268142Y-55423082D01*
X14268142Y-55423082D02*
X15055912Y-56667107D01*
X15055912Y-56667107D02*
X15903774Y-57870979D01*
X15903774Y-57870979D02*
X16809686Y-59031799D01*
X16809686Y-59031799D02*
X17771466Y-60146769D01*
X17771466Y-60146769D02*
X18786797Y-61213203D01*
X18786797Y-61213203D02*
X19853231Y-62228534D01*
X19853231Y-62228534D02*
X20968201Y-63190314D01*
X20968201Y-63190314D02*
X22129021Y-64096226D01*
X22129021Y-64096226D02*
X23332893Y-64944088D01*
X23332893Y-64944088D02*
X24576918Y-65731858D01*
X24576918Y-65731858D02*
X25858098Y-66457638D01*
X25858098Y-66457638D02*
X27173347Y-67119679D01*
X27173347Y-67119679D02*
X28519497Y-67716386D01*
X28519497Y-67716386D02*
X29893304Y-68246322D01*
X29893304Y-68246322D02*
X31291460Y-68708210D01*
X31291460Y-68708210D02*
X32710595Y-69100938D01*
X32710595Y-69100938D02*
X34147290Y-69423558D01*
X34147290Y-69423558D02*
X35598086Y-69675295D01*
X35598086Y-69675295D02*
X37059486Y-69855542D01*
X37059486Y-69855542D02*
X38527970Y-69963864D01*
X38527970Y-69963864D02*
X40000000Y-70000000D01*
X40000000Y-70000000D02*
X41472030Y-69963864D01*
X41472030Y-69963864D02*
X42940514Y-69855542D01*
X42940514Y-69855542D02*
X44401914Y-69675295D01*
X44401914Y-69675295D02*
X45852710Y-69423558D01*
X45852710Y-69423558D02*
X47289405Y-69100938D01*
X47289405Y-69100938D02*
X48708540Y-68708210D01*
X48708540Y-68708210D02*
X50106696Y-68246322D01*
X50106696Y-68246322D02*
X51480503Y-67716386D01*
X51480503Y-67716386D02*
X52826653Y-67119679D01*
X52826653Y-67119679D02*
X54141902Y-66457638D01*
X54141902Y-66457638D02*
X55423082Y-65731858D01*
X55423082Y-65731858D02*
X56667107Y-64944088D01*
X56667107Y-64944088D02*
X57870979Y-64096226D01*
X57870979Y-64096226D02*
X59031799Y-63190314D01*
X59031799Y-63190314D02*
X60146769Y-62228534D01*
X60146769Y-62228534D02*
X61213203Y-61213203D01*
X61213203Y-61213203D02*
X62228534Y-60146769D01*
X62228534Y-60146769D02*
X63190314Y-59031799D01*
X63190314Y-59031799D02*
X64096226Y-57870979D01*
X64096226Y-57870979D02*
X64944088Y-56667107D01*
X64944088Y-56667107D02*
X65731858Y-55423082D01*
X65731858Y-55423082D02*
X66457638Y-54141902D01*
X66457638Y-54141902D02*
X67119679Y-52826653D01*
X67119679Y-52826653D02*
X67716386Y-51480503D01*
X67716386Y-51480503D02*
X68246322Y-50106696D01*
X68246322Y-50106696D02*
X68708210Y-48708540D01*
X68708210Y-48708540D02*
X69100938Y-47289405D01*
X69100938Y-47289405D02*
X69423558Y-45852710D01*
X69423558Y-45852710D02*
X69675295Y-44401914D01*
X69675295Y-44401914D02*
X69855542Y-42940514D01*
X69855542Y-42940514D02*
X69963864Y-41472030D01*
X69963864Y-41472030D02*
X70000000Y-40000000D01*
M02*
